<?xml version="1.0" encoding="UTF-8" standalone="no"?>
<!-- Created with Inkscape (http://www.inkscape.org/) -->
<svg
   xmlns:svg="http://www.w3.org/2000/svg"
   xmlns="http://www.w3.org/2000/svg"
   version="1.0"
   width="352.47552"
   height="446.38251">
  <defs />
  <path
     d="M 3.32394,353.78932 L 349.5986,353.78932 L 349.5986,420.04926 L 327.85387,442.20427 L 24.6584,442.61451 L 3.32394,418.40812 L 3.32394,353.78932 z"
     style="fill:#ffffff" />
  <path
     d="M 348.33648,35.4193 C 348.33648,18.14785 334.32769,4.13906 317.05623,4.13906 L 35.4193,4.13906 C 18.12576,4.13906 4.13906,18.14785 4.13906,35.4193 L 4.13906,368.73818 L 348.33648,368.73818 L 348.33648,35.4193 L 348.33648,35.4193 z"
     style="fill:#000000" />
  <path
     d="M 348.33648,410.94112 C 348.33648,428.21258 334.32769,442.24344 317.05623,442.24344 L 35.4193,442.24344 C 18.12576,442.24344 4.13906,428.21258 4.13906,410.94112 L 4.13906,35.4193 C 4.13906,18.14785 18.12576,4.13906 35.4193,4.13906 L 317.05623,4.13906 C 334.32769,4.13906 348.33648,18.14785 348.33648,35.4193 L 348.33648,410.94112 L 348.33648,410.94112 z"
     style="fill:none;stroke:#000000;stroke-width:8.27811527;stroke-linejoin:miter;marker-start:none;marker-end:none;stroke-miterlimit:79.84031677" />
  <path
     d="M 89.9665,34.95132 C 83.70607,30.75707 76.31536,28.35973 68.6995,28.35973 C 51.22495,28.35973 46.2537,42.34643 46.2537,57.77685 C 46.2537,75.37943 54.77902,89.63099 73.78116,89.63099 C 83.70607,89.63099 92.74356,85.92686 101.31306,81.35292 L 94.91574,99.95767 C 86.63762,102.24464 78.11223,103.02168 69.56483,103.02168 C 56.57592,103.02168 45.60911,100.82301 35.4193,92.07691 C 25.60918,83.77234 20.36858,71.78562 20.36858,58.81878 C 20.36858,47.0749 25.33987,34.70849 34.28906,26.78357 C 43.96673,18.52312 57.35292,15.45912 69.82974,15.45912 L 89.07912,17.12798 L 89.9665,34.95132 L 89.9665,34.95132 z"
     style="fill:#ffffff" />
  <path
     d="M 132.65953,87.18951 C 136.87582,88.90252 141.58224,89.12327 146.04576,89.12327 C 153.1716,89.12327 159.81175,87.96654 164.62851,82.10788 L 165.29518,82.10788 L 160.18704,101.33074 L 103.75456,101.33074 L 103.75456,100.95546 C 109.9488,97.02612 109.10553,89.87824 109.10553,83.28227 L 109.10553,35.57383 C 109.10553,28.96017 109.9488,21.6975 103.75456,17.90502 L 103.75456,17.50325 L 148.33273,17.50325 C 150.24005,17.50325 152.30626,17.50325 153.68374,16.85866 L 154.05902,16.85866 L 154.05902,35.35308 L 153.68374,35.35308 C 150.24005,29.33544 142.98179,30.00211 136.74337,30.00211 L 132.65953,30.00211 L 132.65953,50.62897 L 144.49173,50.62897 C 146.28863,50.62897 148.08995,50.53625 149.22018,50.00645 L 149.86478,50.00645 L 149.86478,67.8342 L 149.22018,67.8342 C 147.42328,62.72606 141.58224,63.26026 136.87582,63.26026 L 132.65953,63.26026 L 132.65953,87.18951 L 132.65953,87.18951 z"
     style="fill:#ffffff" />
  <path
     d="M 197.63944,29.86965 C 200.16923,29.86965 202.88004,30.11248 205.03456,31.64448 C 208.47383,34.0639 210.13829,38.39501 210.13829,42.50096 C 210.13829,50.53625 204.25749,57.2647 196.39441,58.64219 L 196.39441,29.86965 L 197.63944,29.86965 z M 196.39441,65.43245 L 211.15816,93.18507 C 215.59964,101.08792 219.68347,102.24464 228.23094,101.77665 L 245.81587,100.60226 C 240.72976,96.4036 237.02557,91.03055 233.58188,85.30434 L 218.42079,59.94902 C 226.85347,56.35522 233.58188,49.38394 233.58188,39.81664 C 233.58188,31.24714 229.74087,24.51868 222.26187,20.41273 C 216.50913,17.3708 211.40536,17.50325 205.16701,17.50325 L 167.44528,17.50325 L 167.44528,17.90502 C 173.68367,21.83436 172.81834,29.09262 172.81834,35.70628 L 172.81834,83.12775 C 172.81834,89.76786 173.68367,97.02612 167.44528,100.95546 L 167.44528,101.33074 L 201.74539,101.33074 L 201.74539,100.95546 C 195.46285,97.02612 196.39441,89.76786 196.39441,83.12775 L 196.39441,65.43245 L 196.39441,65.43245 z"
     style="fill:#ffffff" />
  <path
     d="M 263.73192,55.7327 C 263.73192,42.61134 270.34558,28.2052 285.37423,28.2052 C 302.87086,28.2052 308.57503,48.98218 308.57503,63.52517 C 308.57503,69.76355 307.68762,76.24476 303.84657,81.35292 C 299.76269,86.83631 293.65676,90.27559 286.90619,90.27559 C 279.67006,90.27559 273.25507,85.41472 269.701,79.2867 C 266.12927,72.91586 263.73192,63.12782 263.73192,55.7327 z M 238.97704,59.17198 C 238.97704,86.08137 259.24628,103.02168 285.37423,103.02168 C 311.26376,103.02168 333.30783,86.83631 333.30783,59.06161 C 333.30783,31.02197 313.6611,15.45912 286.90619,15.45912 C 261.04319,15.45912 238.97704,32.04624 238.97704,59.17198 L 238.97704,59.17198 z"
     style="fill:#ffffff" />
  <path
     d="M 67.97985,352.83095 L 67.97985,118.46092 L 208.54003,118.46092 C 257.4538,118.46092 291.3124,148.24006 291.3124,189.6483 C 291.3124,204.0147 286.90619,215.67029 280.86651,224.57975 L 279.96144,225.7718 L 284.81794,231.16692 C 295.95697,245.50682 299.01657,261.96593 299.01657,274.69878 C 299.01657,323.2858 258.98139,352.83095 213.42305,352.83095 L 67.97985,352.83095 z M 287.79364,274.69878 C 287.79364,259.97035 283.14024,240.43399 264.18224,226.81373 L 265.17562,225.90424 C 273.02107,218.30604 280.08948,206.27077 280.08948,189.6483 C 280.08948,152.76985 248.9461,129.68384 208.54003,129.68384 L 79.20277,129.68384 L 79.20277,341.60803 L 213.42305,341.60803 C 251.0653,341.60803 287.79364,317.95248 287.79364,274.69878 z M 159.91772,278.95925 L 159.91772,260.70766 L 192.08976,260.70766 C 198.05886,260.70766 201.70123,261.74076 203.55112,262.94165 C 204.55774,263.59948 205.81159,264.65466 205.81159,268.68113 C 205.81159,277.34336 197.67034,278.95925 192.08976,278.95925 L 159.91772,278.95925 z M 159.91772,206.1648 L 159.91772,192.31055 L 194.42091,192.31055 C 197.16703,192.31055 197.58646,193.17147 197.80721,193.50259 C 198.4827,194.52246 198.86239,196.23107 198.86239,197.50699 C 198.86239,205.45841 195.12731,206.1648 194.42091,206.1648 L 159.91772,206.1648 z"
     style="fill:#ffffff" />
  <path
     d="M 144.98179,249.49798 L 188.38116,249.49798 C 201.99262,249.49798 213.26848,253.89531 213.26848,268.68113 C 213.26848,283.93053 200.96834,290.16892 188.38116,290.16892 L 144.98179,290.16892 L 144.98179,249.49798 z M 209.69675,330.39835 C 243.33023,330.39835 272.85331,310.06289 272.85331,274.69878 C 272.85331,262.222 269.01667,246.74744 253.85116,235.86889 C 248.21321,231.69231 243.83795,230.09408 235.11392,228.0102 C 241.79822,225.92191 245.90417,224.32368 251.02998,220.15151 C 257.95711,214.62393 265.15355,204.65487 265.15355,189.6483 C 265.15355,160.51817 241.02115,140.89351 204.80936,140.89351 L 86.68173,140.89351 L 86.68173,330.39835 L 209.69675,330.39835 z M 144.98179,181.10087 L 190.69024,181.10087 C 203.78953,181.10087 206.34139,192.17809 206.34139,197.50699 C 206.34139,209.29503 199.41427,217.37448 190.69024,217.37448 L 144.98179,217.37448 L 144.98179,181.10087 L 144.98179,181.10087 z"
     style="fill:#ffffff" />
  <path
     d="M 22.41272,380.97213 L 22.41272,387.29882 L 29.86965,387.29882 L 29.86965,427.19272 L 35.71069,427.19272 L 35.71069,380.97213 L 22.41272,380.97213 L 22.41272,380.97213 z"
     style="fill:#000000" />
  <path
     d="M 63.79444,410.6983 C 61.34849,411.18395 59.35295,411.87268 58.44346,414.45104 C 57.99755,415.69166 57.75472,418.40246 57.75472,419.55477 L 57.75472,420.84396 L 83.30871,420.84396 L 83.30871,427.19272 L 51.95784,427.19272 L 51.95784,422.08457 C 51.95784,414.80424 52.42582,406.36719 61.79441,404.65858 L 71.33966,402.90583 C 75.62662,402.08463 77.7105,400.72924 77.7105,394.98092 C 77.7105,389.22817 75.42353,386.83083 68.27566,386.83083 C 60.13,386.83083 58.37721,389.16195 58.33308,396.44669 L 52.58035,396.44669 C 52.69073,386.47763 55.06595,380.48206 67.92246,380.48206 C 75.29109,380.48206 83.46324,381.59464 83.46324,394.98092 C 83.46324,400.83961 81.99746,403.96984 79.22044,406.12436 C 78.31095,406.83517 76.20058,408.41133 73.04827,409.01176 L 63.79444,410.6983 L 63.79444,410.6983 z"
     style="fill:#000000" />
  <path
     d="M 90.03275,422.08457 C 94.36386,420.91018 102.11218,418.68944 111.54703,413.51507 L 111.54703,424.55255 C 111.54703,425.83732 111.50288,426.37153 109.9488,426.37153 L 101.95324,426.37153 L 102.73029,432.47747 L 112.36821,432.47747 C 115.20705,432.47747 116.85386,430.7203 116.85386,427.83731 L 116.85386,410.36276 C 123.33507,406.08021 126.68605,401.59458 128.64189,399.08686 L 124.42115,395.15751 C 123.24676,396.86611 121.42333,399.48421 116.85386,403.19281 L 116.85386,393.15751 L 133.4145,393.15751 L 133.4145,387.16637 L 116.85386,387.16637 L 116.85386,377.44013 L 111.54703,377.44013 L 111.54703,387.16637 L 88.14756,387.16637 L 88.14756,393.15751 L 111.54703,393.15751 L 111.54703,406.94555 C 107.26007,409.47534 100.49188,413.47091 88.14756,416.11549 L 90.03275,422.08457 L 90.03275,422.08457 z"
     style="fill:#000000" />
  <path
     d="M 151.6396,384.30104 C 156.03693,390.2966 157.78969,393.15751 160.96407,400.19502 L 165.60423,396.26568 C 162.09872,389.33855 159.9221,385.7006 155.59102,380.72489 L 151.6396,384.30104 z M 137.67497,427.72693 C 144.13853,425.30752 155.06119,420.15522 160.69917,416.93669 L 159.67489,411.34288 C 154.43871,414.1155 146.64625,417.51505 146.64625,417.51505 L 146.64625,378.48649 L 141.31731,378.48649 L 141.31731,419.68722 C 138.87585,420.68943 138.05466,420.91018 136.74337,421.37376 L 137.67497,427.72693 z M 178.43421,378.90592 L 172.97286,378.90592 L 172.97286,389.00742 C 172.97286,403.55042 171.57772,420.73358 151.74994,426.43775 L 154.48283,432.47747 C 157.78969,431.29866 165.33933,428.54812 171.22008,419.621 C 174.32826,424.08456 176.76976,427.72693 178.65934,432.29645 L 183.00815,426.97197 C 180.47835,422.55255 178.43421,419.91239 174.04129,414.45104 C 176.9022,407.83297 178.43421,397.90805 178.43421,389.40918 L 178.43421,378.90592 L 178.43421,378.90592 z"
     style="fill:#000000" />
  <path
     d="M 209.80717,377.44013 L 209.80717,395.15751 L 228.07641,395.15751 L 228.07641,401.44005 L 209.80717,401.44005 L 209.80717,424.30531 L 231.18458,424.30531 L 231.18458,430.47748 L 185.11851,430.47748 L 185.11851,424.30531 L 204.45619,424.30531 L 204.45619,377.44013 L 209.80717,377.44013 L 209.80717,377.44013 z"
     style="fill:#000000" />
  <path
     d="M 261.29043,399.37383 C 262.75179,401.97427 264.86216,406.01398 267.77161,414.98084 L 262.82243,417.91239 C 261.35665,412.83074 259.11383,406.94555 256.67235,402.37161 L 261.29043,399.37383 z M 275.51995,377.37391 L 275.51995,388.23039 L 279.55968,388.23039 L 279.55968,394.51292 L 275.51995,394.51292 L 275.51995,427.08235 C 275.51995,431.59005 273.51996,432.41124 269.76722,432.41124 L 262.37652,432.41124 L 261.10942,426.37153 L 268.65906,426.37153 C 270.19102,426.37153 270.32347,426.19493 270.32347,424.97198 L 270.32347,394.51292 L 258.53547,394.51292 L 258.53547,388.23039 L 270.32347,388.23039 L 270.32347,377.37391 L 275.51995,377.37391 z M 238.84459,396.62329 C 240.22207,397.97869 242.64149,400.37604 246.54876,405.12657 C 248.23528,399.44006 248.72535,395.15751 249.01233,392.2701 L 234.27066,392.2701 L 234.27066,386.30103 L 243.41852,386.30103 L 243.41852,377.37391 L 248.58845,377.37391 L 248.58845,386.30103 L 257.06969,386.30103 L 257.06969,392.2701 L 254.23085,392.2701 C 253.76286,395.73588 252.78715,402.26123 250.30151,409.94334 C 252.51783,412.98527 255.51561,417.26781 257.29044,421.44439 L 253.20657,425.37374 C 252.18671,423.3296 250.63263,420.19936 247.89975,416.04927 C 244.63706,423.26337 240.31034,427.94769 236.88875,431.29866 L 233.38324,425.90354 C 235.44505,424.04042 240.44279,419.51062 244.3059,410.94112 C 240.10728,405.30318 236.88875,402.37161 235.13596,400.72924 L 238.84459,396.62329 L 238.84459,396.62329 z"
     style="fill:#000000" />
  <path
     d="M 320.72068,393.62551 L 320.72068,399.08686 L 307.95251,399.08686 L 307.95251,393.62551 L 320.72068,393.62551 z M 291.61262,389.00742 C 293.74506,387.54164 295.25499,386.30103 296.27485,385.29882 L 310.34986,385.29882 C 309.4183,386.58801 308.44258,387.69617 307.17548,389.00742 L 291.61262,389.00742 z M 284.88858,423.26337 C 294.45588,420.84396 300.27484,417.75787 303.53751,415.47091 C 303.82449,416.22587 303.97902,416.73801 304.16003,417.51505 C 301.14018,419.621 294.1689,423.5062 282.68991,425.94769 L 284.28814,431.12206 C 294.9459,428.12429 301.53752,424.5967 304.88851,422.26559 C 304.98123,425.72694 304.75605,426.6585 301.91721,426.6585 L 297.63025,426.6585 L 298.76491,432.47747 L 303.17991,432.47747 C 305.82448,432.47747 309.70968,432.47747 309.70968,423.90796 C 309.70968,422.79539 309.57281,415.22808 306.19976,410.29653 C 305.29027,409.01176 304.62361,408.16851 304.16003,407.72259 C 306.24391,406.59235 307.95251,405.30318 310.01873,403.77117 C 312.43815,421.79759 319.45358,427.08235 326.18203,431.01169 L 329.29019,425.66072 C 327.64781,424.66292 323.29462,422.08457 319.89949,418.04485 C 323.00765,415.9124 325.29461,413.7623 327.69192,411.29873 L 323.69635,407.12215 C 321.80673,409.58572 319.40943,411.51948 317.05623,413.40469 C 316.38954,411.87268 315.30348,408.41133 314.63682,403.77117 L 325.53741,403.77117 L 325.53741,389.00742 L 314.30569,389.00742 C 316.34542,386.63216 316.63681,386.30103 317.32114,385.29882 L 317.32114,380.61451 L 300.40729,380.61451 C 300.95916,379.83748 301.18432,379.48428 301.87306,378.3717 L 296.65451,377.08693 C 291.25942,385.01185 284.48678,387.16637 282.11154,387.94341 L 284.15569,393.09129 C 285.37423,392.58357 285.66561,392.38048 286.35432,392.04935 L 286.35432,403.77117 L 302.44701,403.77117 C 296.65451,407.078 290.30577,408.54378 284.00117,409.83296 L 285.66561,414.62764 C 288.39409,414.04928 293.67883,412.87489 299.98345,409.94334 C 300.65007,410.65414 301.05187,411.11772 301.383,411.58571 C 295.78917,415.16186 289.63908,417.15743 283.37865,418.08899 L 284.88858,423.26337 z M 303.29028,393.62551 L 303.29028,399.08686 L 291.08279,399.08686 L 291.08279,393.62551 L 303.29028,393.62551 L 303.29028,393.62551 z"
     style="fill:#000000" />
</svg>
