<?xml version="1.0" encoding="UTF-8" standalone="no"?>
<!-- Created with Inkscape (http://www.inkscape.org/) -->
<svg
   xmlns:svg="http://www.w3.org/2000/svg"
   xmlns="http://www.w3.org/2000/svg"
   version="1.0"
   width="352.49762"
   height="446.38251">
  <defs />
  <path
     d="M 3.8387,353.54685 L 350.11339,353.54685 L 350.11339,419.80678 L 328.36866,441.9618 L 25.17316,442.37204 L 3.8387,418.16564 L 3.8387,353.54685 z"
     style="fill:#ffffff" />
  <path
     d="M 348.35856,35.41931 C 348.35856,18.14784 334.34978,4.13906 317.07828,4.13906 L 35.41923,4.13906 C 18.14784,4.13906 4.13906,18.14784 4.13906,35.41931 L 4.13906,368.73818 L 348.35856,368.73818 L 348.35856,35.41931 L 348.35856,35.41931 z"
     style="fill:#000000" />
  <path
     d="M 348.35856,410.94112 C 348.35856,428.21258 334.34978,442.24344 317.07828,442.24344 L 35.41923,442.24344 C 18.14784,442.24344 4.13906,428.21258 4.13906,410.94112 L 4.13906,35.41931 C 4.13906,18.14784 18.14784,4.13906 35.41923,4.13906 L 317.07828,4.13906 C 334.34978,4.13906 348.35856,18.14784 348.35856,35.41931 L 348.35856,410.94112 L 348.35856,410.94112 z"
     style="fill:none;stroke:#000000;stroke-width:8.27811527;stroke-linejoin:miter;marker-start:none;marker-end:none;stroke-miterlimit:79.84031677" />
  <path
     d="M 89.96657,34.95132 C 83.72818,30.75707 76.33748,28.35973 68.69954,28.35973 C 51.25148,28.35973 46.2537,42.34643 46.2537,57.77684 C 46.2537,75.37943 54.80106,89.63103 73.80762,89.63103 C 83.72818,89.63103 92.76568,85.92685 101.31311,81.35292 L 94.94227,99.95771 C 86.65967,102.24468 78.13438,103.02172 69.58695,103.02172 C 56.60238,103.02172 45.63112,100.82305 35.44131,92.07694 C 25.63126,83.77234 20.39066,71.78562 20.39066,58.81878 C 20.39066,47.07489 25.36636,34.70849 34.28906,26.78357 C 43.98881,18.52312 57.35734,15.45911 69.82978,15.45911 L 89.10116,17.12798 L 89.96657,34.95132 L 89.96657,34.95132 z"
     style="fill:#ffffff" />
  <path
     d="M 132.65958,87.18954 C 136.8759,88.90256 141.58221,89.12331 146.04581,89.12331 C 153.17157,89.12331 159.81176,87.96658 164.6506,82.10788 L 165.29519,82.10788 L 160.187,101.33077 L 103.7546,101.33077 L 103.7546,100.9555 C 109.99299,97.02615 109.10551,89.87827 109.10551,83.28227 L 109.10551,35.57383 C 109.10551,28.96017 109.99299,21.6975 103.7546,17.90502 L 103.7546,17.50325 L 148.35485,17.50325 C 150.26654,17.50325 152.30627,17.50325 153.70582,16.85866 L 154.05902,16.85866 L 154.05902,35.35308 L 153.70582,35.35308 C 150.26654,29.33544 143.00384,30.00211 136.74338,30.00211 L 132.65958,30.00211 L 132.65958,50.62896 L 144.51384,50.62896 C 146.31071,50.62896 148.08995,50.53625 149.24226,50.00645 L 149.90893,50.00645 L 149.90893,67.8342 L 149.24226,67.8342 C 147.42329,62.72605 141.58221,63.26027 136.8759,63.26027 L 132.65958,63.26027 L 132.65958,87.18954 L 132.65958,87.18954 z"
     style="fill:#ffffff" />
  <path
     d="M 197.63941,29.86966 C 200.19569,29.86966 202.88004,30.11248 205.0566,31.64448 C 208.49588,34.0639 210.16037,38.39501 210.16037,42.50096 C 210.16037,50.53625 204.25752,57.2647 196.39879,58.64218 L 196.39879,29.86966 L 197.63941,29.86966 z M 196.39879,65.43244 L 211.16257,93.18511 C 215.62172,101.08795 219.71001,102.24468 228.23095,101.77669 L 245.83795,100.6023 C 240.72976,96.40364 237.04769,91.03059 233.58192,85.30434 L 218.4429,59.94902 C 226.85785,56.35521 233.58192,49.38394 233.58192,39.81664 C 233.58192,31.24713 229.76295,24.51868 222.26184,20.41274 C 216.5091,17.3708 211.42744,17.50325 205.18909,17.50325 L 167.47178,17.50325 L 167.47178,17.90502 C 173.71017,21.83436 172.84041,29.09262 172.84041,35.70628 L 172.84041,83.12775 C 172.84041,89.7679 173.71017,97.02615 167.47178,100.9555 L 167.47178,101.33077 L 201.7498,101.33077 L 201.7498,100.9555 C 195.48489,97.02615 196.39879,89.7679 196.39879,83.12775 L 196.39879,65.43244 L 196.39879,65.43244 z"
     style="fill:#ffffff" />
  <path
     d="M 263.754,55.7327 C 263.754,42.61133 270.34559,28.2052 285.40072,28.2052 C 302.87086,28.2052 308.59707,48.98217 308.59707,63.52517 C 308.59707,69.76355 307.70969,76.24477 303.86865,81.35292 C 299.78478,86.83634 293.67884,90.27562 286.91065,90.27562 C 279.67006,90.27562 273.25507,85.41471 269.72749,79.2867 C 266.15134,72.91586 263.754,63.12782 263.754,55.7327 z M 238.99909,59.17198 C 238.99909,86.08138 259.26833,103.02172 285.40072,103.02172 C 311.28584,103.02172 333.30784,86.83634 333.30784,59.06161 C 333.30784,31.02197 313.70526,15.45911 286.91065,15.45911 C 261.06527,15.45911 238.99909,32.04625 238.99909,59.17198 L 238.99909,59.17198 z"
     style="fill:#ffffff" />
  <path
     d="M 59.21171,237.48919 C 59.21171,165.18923 107.74576,113.35722 180.52247,113.35722 C 204.77408,113.35722 239.40972,120.09009 264.45598,144.4432 C 289.63912,168.95964 293.60375,200.37233 294.71633,209.95287 L 297.59935,234.46051 L 297.60818,234.95499 L 295.84215,258.56638 C 294.93711,270.69438 292.50445,300.48676 263.33454,327.6434 C 243.89977,345.70515 216.82698,357.91261 180.76975,357.91261 C 114.28878,357.91261 59.21171,314.57501 59.21171,237.48919 z M 255.69218,319.42268 C 281.69654,295.21526 283.81132,268.9946 284.65017,257.72753 L 285.55083,245.68343 L 205.56874,245.68343 L 204.53567,255.75403 C 203.44513,266.35885 202.99921,268.54427 201.1405,271.21976 C 195.95733,278.42503 188.95953,279.67006 180.76975,279.67006 C 169.52917,279.67006 164.63735,277.07404 159.45411,269.74515 C 156.60648,265.48027 152.95086,252.91519 152.95086,239.33025 C 152.95086,229.20666 154.73007,208.49151 159.64841,201.6306 C 164.34155,194.76087 169.90882,191.84256 179.48053,191.84256 C 187.47612,191.84256 193.01249,192.70348 196.76527,195.14497 C 199.71449,197.06108 203.54229,201.29948 204.51359,213.43188 L 205.33475,223.74531 L 285.01658,223.74531 L 283.5685,211.24646 C 282.50004,202.06327 278.84,174.11194 256.62816,152.48729 C 234.48258,130.95539 203.1317,124.58014 180.52247,124.58014 C 114.21373,124.58014 70.43463,171.07 70.43463,237.48919 C 70.43463,307.81124 119.80304,346.68969 180.76975,346.68969 C 214.06761,346.68969 238.39423,335.50651 255.69218,319.42268 z M 190.37236,266.48247 L 191.97055,264.73855 L 192.07213,264.40742 C 192.15157,264.11162 192.27077,263.60389 192.40764,262.78712 C 192.71669,260.93724 192.95513,258.63702 193.37014,254.60613 L 195.38338,234.96823 L 194.97279,234.96823 L 193.32599,214.32371 C 192.58427,205.06988 190.2664,204.30609 190.65051,204.55333 C 189.85581,204.04119 187.25975,203.06548 179.48053,203.06548 C 173.29074,203.06548 171.32607,204.43412 168.80952,208.10299 C 168.0678,209.33477 166.50931,213.80716 165.38349,222.11618 C 164.42098,229.24198 164.17378,236.13379 164.17378,239.33025 C 164.17378,249.82469 166.69474,258.8666 168.22674,262.39418 L 168.79628,263.52001 L 170.1561,265.25952 C 171.40113,266.67231 172.24435,267.12706 172.67702,267.33456 C 173.46289,267.70984 175.50707,268.44714 180.76975,268.44714 C 186.01035,268.44714 188.57987,267.91293 190.37236,266.48247 z"
     style="fill:#ffffff" />
  <path
     d="M 211.96169,212.53564 C 209.65261,183.63067 192.17809,180.63288 175.7499,180.63288 C 162.91992,180.63288 153.68375,185.03022 146.73455,195.19795 C 139.29531,205.60851 138.01055,231.00798 138.01055,239.33025 C 138.01055,254.11607 141.87367,269.14471 146.49172,276.09391 C 154.19589,286.95039 162.67268,290.87973 177.03904,290.87973 C 186.29732,290.87973 198.1074,289.4846 206.58864,277.69214 C 210.42965,272.14249 210.93737,266.84008 211.96169,256.8931 L 269.74956,256.8931 C 268.97252,267.30366 267.17121,289.94817 244.32802,311.2152 C 229.16693,325.31228 207.6085,335.48002 177.03904,335.48002 C 121.58235,335.48002 77.93564,301.04747 77.93564,237.48919 C 77.93564,176.94636 116.96427,135.78981 176.79622,135.78981 C 197.83812,135.78981 225.8336,141.80303 245.10506,160.51816 C 264.3544,179.25541 267.70539,203.74539 268.72525,212.53564 L 211.96169,212.53564 L 211.96169,212.53564 z"
     style="fill:#ffffff" />
  <path
     d="M 35.71069,380.97213 L 35.71069,427.19272 L 29.86962,427.19272 L 29.86962,387.29882 L 22.4348,387.29882 L 22.4348,380.97213 L 35.71069,380.97213 L 35.71069,380.97213 z"
     style="fill:#000000" />
  <path
     d="M 53.67089,380.97213 L 53.22498,406.9014 L 58.55388,406.9014 C 59.28677,404.83518 60.48758,402.37161 68.39049,402.37161 C 77.48972,402.37161 77.82533,406.94555 77.82533,412.45105 C 77.82533,419.621 75.00415,421.3296 67.61345,421.3296 C 57.95337,421.3296 57.90922,416.98083 57.90922,412.83074 L 52.13889,412.83074 C 52.31542,424.08456 56.7349,427.66071 67.85627,427.66071 C 80.37713,427.66071 83.57366,422.37596 83.57366,411.51948 C 83.57366,398.72924 77.33527,396.1553 69.60903,396.1553 C 62.30662,396.1553 60.19626,398.26567 58.73048,399.73145 L 59.04387,387.29882 L 82.06366,387.29882 L 82.06366,380.97213 L 53.67089,380.97213 L 53.67089,380.97213 z"
     style="fill:#000000" />
  <path
     d="M 90.0548,422.08457 C 94.38591,420.91018 102.11215,418.68944 111.56907,413.51506 L 111.56907,424.55255 C 111.56907,425.83731 111.52492,426.37153 109.97092,426.37153 L 101.97977,426.37153 L 102.75681,432.47747 L 112.39033,432.47747 C 115.23359,432.47747 116.8759,430.7203 116.8759,427.83731 L 116.8759,410.36276 C 123.35718,406.08021 126.70816,401.59457 128.66401,399.08686 L 124.42112,395.15751 C 123.26888,396.86611 121.44983,399.48421 116.8759,403.1928 L 116.8759,393.15752 L 133.43662,393.15752 L 133.43662,387.16637 L 116.8759,387.16637 L 116.8759,377.44013 L 111.56907,377.44013 L 111.56907,387.16637 L 88.14759,387.16637 L 88.14759,393.15752 L 111.56907,393.15752 L 111.56907,406.94555 C 107.28211,409.47534 100.514,413.47091 88.14759,416.11549 L 90.0548,422.08457 L 90.0548,422.08457 z"
     style="fill:#000000" />
  <path
     d="M 151.66168,384.30104 C 156.05898,390.2966 157.81177,393.15752 160.96408,400.19502 L 165.64839,396.26567 C 162.14288,389.33855 159.94421,385.70059 155.61307,380.72489 L 151.66168,384.30104 z M 178.43863,378.90591 L 172.99935,378.90591 L 172.99935,389.00742 C 172.99935,403.55042 171.57773,420.73358 151.77202,426.43775 L 154.48286,432.47747 C 157.81177,431.29866 165.36141,428.54812 171.24219,419.621 C 174.37242,424.08456 176.79622,427.72693 178.68145,432.29645 L 183.0346,426.97197 C 180.47832,422.55256 178.43863,419.91239 174.06337,414.45104 C 176.9287,407.83296 178.43863,397.90805 178.43863,389.40919 L 178.43863,378.90591 z M 137.67494,427.72693 C 144.16057,425.30751 155.08327,420.15522 160.72125,416.93668 L 159.70139,411.34288 C 154.43871,414.1155 146.64625,417.51505 146.64625,417.51505 L 146.64625,378.48649 L 141.33939,378.48649 L 141.33939,419.68723 C 138.89789,420.68943 138.07678,420.91018 136.76552,421.37375 L 137.67494,427.72693 L 137.67494,427.72693 z"
     style="fill:#000000" />
  <path
     d="M 204.4562,377.44013 L 204.4562,424.30531 L 185.14059,424.30531 L 185.14059,430.47747 L 231.20665,430.47747 L 231.20665,424.30531 L 209.82925,424.30531 L 209.82925,401.44005 L 228.07639,401.44005 L 228.07639,395.15751 L 209.82925,395.15751 L 209.82925,377.44013 L 204.4562,377.44013 L 204.4562,377.44013 z"
     style="fill:#000000" />
  <path
     d="M 261.31251,399.37383 C 262.77829,401.97426 264.86213,406.01398 267.79372,414.98084 L 262.82244,417.9124 C 261.35666,412.83074 259.13591,406.94555 256.69442,402.37161 L 261.31251,399.37383 z M 275.51996,377.37391 L 275.51996,388.23038 L 279.55965,388.23038 L 279.55965,394.51292 L 275.51996,394.51292 L 275.51996,427.08234 C 275.51996,431.59005 273.51997,432.41124 269.79371,432.41124 L 262.39856,432.41124 L 261.11383,426.37153 L 268.6811,426.37153 C 270.23521,426.37153 270.32351,426.19493 270.32351,424.97198 L 270.32351,394.51292 L 258.53544,394.51292 L 258.53544,388.23038 L 270.32351,388.23038 L 270.32351,377.37391 L 275.51996,377.37391 z M 238.86667,396.62329 C 240.22207,397.97869 242.66357,400.37604 246.54876,405.12657 C 248.25737,399.44006 248.74743,395.15751 249.03441,392.2701 L 234.29274,392.2701 L 234.29274,386.30103 L 243.44061,386.30103 L 243.44061,377.37391 L 248.61495,377.37391 L 248.61495,386.30103 L 257.0697,386.30103 L 257.0697,392.2701 L 254.25293,392.2701 C 253.76287,395.73588 252.78715,402.26124 250.30147,409.94333 C 252.54433,412.98526 255.51562,417.26781 257.3169,421.44439 L 253.22862,425.37374 C 252.20879,423.3296 250.65471,420.19937 247.92624,416.04927 C 244.65914,423.26337 240.33245,427.94768 236.91524,431.29866 L 233.40529,425.90354 C 235.44946,424.04041 240.4649,419.51063 244.32802,410.94112 C 240.13374,405.30317 236.91524,402.37161 235.15804,400.72924 L 238.86667,396.62329 L 238.86667,396.62329 z"
     style="fill:#000000" />
  <path
     d="M 320.74276,393.62551 L 320.74276,399.08686 L 307.97901,399.08686 L 307.97901,393.62551 L 320.74276,393.62551 z M 303.2947,393.62551 L 303.2947,399.08686 L 291.08282,399.08686 L 291.08282,393.62551 L 303.2947,393.62551 z M 284.91062,423.26337 C 294.50003,420.84395 300.27484,417.75787 303.53749,415.4709 C 303.84657,416.22587 303.97902,416.73801 304.18208,417.51505 C 301.16226,419.621 294.21305,423.5062 282.71196,425.94769 L 284.31022,431.12206 C 294.99009,428.12428 301.53753,424.5967 304.91497,422.26558 C 305.0033,425.72694 304.75603,426.6585 301.96137,426.6585 L 297.65233,426.6585 L 298.76491,432.47747 L 303.22844,432.47747 C 305.84657,432.47747 309.73176,432.47747 309.73176,423.90796 C 309.73176,422.79538 309.57724,415.22808 306.22181,410.29653 C 305.29028,409.01177 304.62361,408.1685 304.18208,407.72259 C 306.26599,406.59235 307.97901,405.30317 310.0187,403.77117 C 312.46019,421.79759 319.47562,427.08234 326.20407,431.01169 L 329.31227,425.66071 C 327.64778,424.66293 323.31667,422.08457 319.92154,418.04485 C 323.02973,415.9124 325.3167,413.7623 327.71404,411.29873 L 323.71847,407.12215 C 321.80677,409.58572 319.43151,411.51948 317.07828,413.40469 C 316.41165,411.87268 315.32553,408.41133 314.65886,403.77117 L 325.55949,403.77117 L 325.55949,389.00742 L 314.3057,389.00742 C 316.34539,386.63215 316.65889,386.30103 317.32555,385.29883 L 317.32555,380.61452 L 300.42937,380.61452 C 300.98566,379.83748 301.22848,379.48428 301.89515,378.3717 L 296.6987,377.08693 C 291.2815,385.01185 284.51331,387.16637 282.13363,387.94341 L 284.17773,393.09129 C 285.40072,392.58357 285.6877,392.38048 286.35433,392.04935 L 286.35433,403.77117 L 302.49555,403.77117 C 296.6987,407.078 290.30578,408.54378 284.02324,409.83296 L 285.6877,414.62764 C 288.42058,414.04928 293.72299,412.87489 299.98345,409.94333 C 300.67219,410.65414 301.07392,411.11772 301.40508,411.58571 C 295.81125,415.16186 289.68327,417.15743 283.40073,418.089 L 284.91062,423.26337 z M 291.617,389.00742 C 293.74506,387.54164 295.25499,386.30103 296.30135,385.29883 L 310.37635,385.29883 C 309.44037,386.588 308.46466,387.69617 307.20197,389.00742 L 291.617,389.00742 L 291.617,389.00742 z"
     style="fill:#000000" />
</svg>
