<?xml version="1.0" encoding="UTF-8" standalone="no"?>
<!-- Created with Inkscape (http://www.inkscape.org/) -->
<svg
   xmlns:svg="http://www.w3.org/2000/svg"
   xmlns="http://www.w3.org/2000/svg"
   version="1.0"
   width="352.49759"
   height="446.38251">
  <defs />
  <path
     d="M 3.7244,353.78932 L 349.99903,353.78932 L 349.99903,420.04926 L 328.25429,442.20427 L 25.05883,442.61451 L 3.7244,418.40812 L 3.7244,353.78932 z"
     style="fill:#ffffff" />
  <path
     d="M 348.35852,35.41931 C 348.35852,18.14784 334.37181,4.13906 317.07827,4.13906 L 35.44137,4.13906 C 18.16991,4.13906 4.13906,18.14784 4.13906,35.41931 L 4.13906,368.73818 L 348.35852,368.73818 L 348.35852,35.41931 L 348.35852,35.41931 z"
     style="fill:#000000" />
  <path
     d="M 348.35852,410.94112 C 348.35852,428.21258 334.37181,442.24344 317.07827,442.24344 L 35.44137,442.24344 C 18.16991,442.24344 4.13906,428.21258 4.13906,410.94112 L 4.13906,35.41931 C 4.13906,18.14784 18.16991,4.13906 35.44137,4.13906 L 317.07827,4.13906 C 334.37181,4.13906 348.35852,18.14784 348.35852,35.41931 L 348.35852,410.94112 L 348.35852,410.94112 z"
     style="fill:none;stroke:#000000;stroke-width:8.27811527;stroke-linejoin:miter;marker-start:none;marker-end:none;stroke-miterlimit:79.84031677" />
  <path
     d="M 89.9665,34.95132 C 83.72818,30.75707 76.35506,28.35973 68.71712,28.35973 C 51.24702,28.35973 46.2537,42.34643 46.2537,57.77684 C 46.2537,75.37943 54.8232,89.63103 73.82534,89.63103 C 83.72818,89.63103 92.78326,85.92685 101.33069,81.35292 L 94.93778,99.95771 C 86.67732,102.24468 78.15645,103.02172 69.58688,103.02172 C 56.598,103.02172 45.63118,100.82305 35.46345,92.07694 C 25.6268,83.77234 20.41269,71.78562 20.41269,58.81878 C 20.41269,47.07489 25.38401,34.70849 34.30668,26.78357 C 43.98877,18.52312 57.353,15.45911 69.85185,15.45911 L 89.10116,17.12798 L 89.9665,34.95132 L 89.9665,34.95132 z"
     style="fill:#ffffff" />
  <path
     d="M 132.65516,87.18954 C 136.8979,88.90256 141.60428,89.12331 146.06784,89.12331 C 153.19365,89.12331 159.80731,87.96658 164.66822,82.10788 L 165.31281,82.10788 L 160.187,101.33077 L 103.75011,101.33077 L 103.75011,100.9555 C 109.9885,97.02615 109.10109,89.87827 109.10109,83.28227 L 109.10109,35.57383 C 109.10109,28.96017 109.9885,21.6975 103.75011,17.90502 L 103.75011,17.50325 L 148.3504,17.50325 C 150.26209,17.50325 152.32831,17.50325 153.70137,16.85866 L 154.08106,16.85866 L 154.08106,35.35308 L 153.70137,35.35308 C 150.26209,29.33544 143.00384,30.00211 136.76545,30.00211 L 132.65516,30.00211 L 132.65516,50.62896 L 144.53584,50.62896 C 146.33274,50.62896 148.08557,50.53625 149.24222,50.00645 L 149.90447,50.00645 L 149.90447,67.8342 L 149.24222,67.8342 C 147.44091,62.72605 141.60428,63.26027 136.8979,63.26027 L 132.65516,63.26027 L 132.65516,87.18954 L 132.65516,87.18954 z"
     style="fill:#ffffff" />
  <path
     d="M 197.66148,29.86966 C 200.19127,29.86966 202.89766,30.11248 205.07426,31.64448 C 208.49588,34.0639 210.18241,38.39501 210.18241,42.50096 C 210.18241,50.53625 204.27514,57.2647 196.39438,58.64218 L 196.39438,29.86966 L 197.66148,29.86966 z M 196.39438,65.43244 L 211.18019,93.18511 C 215.62168,101.08795 219.70555,102.24468 228.25298,101.77669 L 245.85557,100.6023 C 240.72976,96.40364 237.04327,91.03059 233.60396,85.30434 L 218.46052,59.94902 C 226.85343,56.35521 233.60396,49.38394 233.60396,39.81664 C 233.60396,31.24713 229.78502,24.51868 222.25742,20.41274 C 216.53117,17.3708 211.44513,17.50325 205.20671,17.50325 L 167.4894,17.50325 L 167.4894,17.90502 C 173.70575,21.83436 172.84037,29.09262 172.84037,35.70628 L 172.84037,83.12775 C 172.84037,89.7679 173.70575,97.02615 167.4894,100.9555 L 167.4894,101.33077 L 201.74538,101.33077 L 201.74538,100.9555 C 195.50696,97.02615 196.39438,89.7679 196.39438,83.12775 L 196.39438,65.43244 L 196.39438,65.43244 z"
     style="fill:#ffffff" />
  <path
     d="M 263.74955,55.7327 C 263.74955,42.61133 270.36766,28.2052 285.3963,28.2052 C 302.88848,28.2052 308.59707,48.98217 308.59707,63.52517 C 308.59707,69.76355 307.70965,76.24477 303.86861,81.35292 C 299.80681,86.83634 293.6788,90.27562 286.92827,90.27562 C 279.69209,90.27562 273.27711,85.41471 269.74511,79.2867 C 266.14689,72.91586 263.74955,63.12782 263.74955,55.7327 z M 238.99908,59.17198 C 238.99908,86.08138 259.26832,103.02172 285.3963,103.02172 C 311.28139,103.02172 333.32546,86.83634 333.32546,59.06161 C 333.32546,31.02197 313.7008,15.45911 286.92827,15.45911 C 261.06523,15.45911 238.99908,32.04625 238.99908,59.17198 L 238.99908,59.17198 z"
     style="fill:#ffffff" />
  <path
     d="M 64.9997,352.83095 L 64.9997,277.92172 L 133.38356,206.75203 L 68.86282,206.75203 L 68.86282,118.46095 L 286.02761,118.46095 L 286.02761,193.33486 L 217.81152,264.5178 L 289.89073,264.5178 L 289.89073,352.83095 L 64.9997,352.83095 z M 278.66785,341.60803 L 278.66785,275.74072 L 191.51139,275.74072 L 274.80473,188.82715 L 274.80473,129.68387 L 80.08581,129.68387 L 80.08581,195.52911 L 159.73225,195.52911 L 76.22269,282.43826 L 76.22269,341.60803 L 278.66785,341.60803 z"
     style="fill:#ffffff" />
  <path
     d="M 161.51591,286.95039 L 263.7054,286.95039 L 263.7054,330.39836 L 83.70603,330.39836 L 83.70603,286.95039 L 182.31937,184.31944 L 87.56915,184.31944 L 87.56915,140.89355 L 259.86435,140.89355 L 259.86435,184.31944 L 161.51591,286.95039 L 161.51591,286.95039 z"
     style="fill:#ffffff" />
  <path
     d="M 33.28682,380.97213 L 33.28682,427.19272 L 28.86744,427.19272 L 28.86744,387.29882 L 23.20742,387.29882 L 23.20742,380.97213 L 33.28682,380.97213 L 33.28682,380.97213 z"
     style="fill:#000000" />
  <path
     d="M 57.68412,406.08021 C 62.21391,406.08021 65.58696,406.94555 65.58696,413.5857 C 65.58696,419.33403 64.16975,421.44439 57.68412,421.44439 C 51.22495,421.44439 49.84747,419.15743 49.84747,413.87268 C 49.84747,408.1685 51.60464,406.08021 57.68412,406.08021 z M 50.18301,403.08243 C 49.29559,403.48419 48.11682,404.01399 47.07489,406.36718 C 45.78571,409.34289 45.56496,412.69387 45.56496,414.62764 C 45.56496,426.01391 51.78124,427.66071 57.72827,427.66071 C 64.61125,427.66071 69.896,425.37374 69.896,414.45104 C 69.896,412.11992 69.58688,409.12214 68.36399,406.36718 C 67.29998,403.96984 66.07703,403.44004 65.29992,403.08243 C 68.80991,401.08243 69.25134,395.20166 69.25134,393.04714 C 69.25134,380.83968 61.56932,380.48207 57.72827,380.48207 C 53.4678,380.48207 46.23162,381.12666 46.23162,392.98092 C 46.23162,395.15751 46.62897,401.08243 50.18301,403.08243 z M 57.72827,386.588 C 62.68189,386.588 64.94679,388.12001 64.94679,393.04714 C 64.94679,398.26567 63.56931,400.44226 57.9534,400.44226 C 53.79889,400.44226 50.51417,399.84182 50.51417,393.51513 C 50.51417,389.00742 51.62671,386.588 57.72827,386.588 L 57.72827,386.588 z"
     style="fill:#000000" />
  <path
     d="M 73.09238,416.11549 C 82.48315,413.47091 87.61337,409.47534 90.87598,406.94555 L 90.87598,393.15752 L 73.09238,393.15752 L 73.09238,387.16637 L 90.87598,387.16637 L 90.87598,377.44013 L 94.91571,377.44013 L 94.91571,387.16637 L 107.45878,387.16637 L 107.45878,393.15752 L 94.91571,393.15752 L 94.91571,403.1928 C 98.37706,399.48421 99.75461,396.86611 100.64195,395.15751 L 103.83841,399.08686 C 102.37705,401.59457 99.82077,406.08021 94.91571,410.36276 L 94.91571,427.83731 C 94.91571,430.7203 93.6486,432.47747 91.4985,432.47747 L 84.16961,432.47747 L 83.59566,426.37153 L 89.65303,426.37153 C 90.83183,426.37153 90.87598,425.83731 90.87598,424.55255 L 90.87598,413.51506 C 83.70603,418.68944 77.82084,420.91018 74.53609,422.08457 L 73.09238,416.11549 L 73.09238,416.11549 z"
     style="fill:#000000" />
  <path
     d="M 121.31296,384.30104 C 124.61979,390.2966 125.9752,393.15752 128.37254,400.19502 L 131.9222,396.26567 C 129.25995,389.33855 127.5955,385.70059 124.31075,380.72489 L 121.31296,384.30104 z M 110.69931,427.72693 C 115.63093,425.30751 123.88691,420.15522 128.17387,416.93668 L 127.39683,411.34288 C 123.40126,414.1155 117.49399,417.51505 117.49399,417.51505 L 117.49399,378.48649 L 113.47635,378.48649 L 113.47635,419.68723 C 111.63088,420.68943 110.9907,420.91018 109.9885,421.37375 L 110.69931,427.72693 z M 141.62636,378.90591 L 137.49834,378.90591 L 137.49834,389.00742 C 137.49834,403.55042 136.42991,420.73358 121.37919,426.43775 L 123.44541,432.47747 C 125.9752,431.29866 131.70145,428.54812 136.16501,419.621 C 138.54028,424.08456 140.3814,427.72693 141.82503,432.29645 L 145.10979,426.97197 C 143.18044,422.55256 141.62636,419.91239 138.31953,414.45104 C 140.4917,407.83296 141.62636,397.90805 141.62636,389.40919 L 141.62636,378.90591 L 141.62636,378.90591 z"
     style="fill:#000000" />
  <path
     d="M 161.38346,377.44013 L 161.38346,424.30531 L 146.70802,424.30531 L 146.70802,430.47747 L 181.67478,430.47747 L 181.67478,424.30531 L 165.44526,424.30531 L 165.44526,401.44005 L 179.29951,401.44005 L 179.29951,395.15751 L 165.44526,395.15751 L 165.44526,377.44013 L 161.38346,377.44013 L 161.38346,377.44013 z"
     style="fill:#000000" />
  <path
     d="M 201.12284,429.72251 C 204.98596,429.41346 218.10732,428.30088 218.10732,405.0162 C 218.10732,395.33411 214.84464,382.01407 202.61069,382.01407 C 191.64384,382.01407 185.33923,393.93456 185.33923,408.05371 C 185.33923,416.29209 187.78072,425.08235 192.64163,425.08235 C 201.56875,425.08235 203.10075,399.19723 203.763,388.18623 C 211.55547,388.9412 213.46716,397.5107 213.46716,404.37161 C 213.46716,422.55256 204.49589,423.19715 200.05882,423.5062 L 201.12284,429.72251 z M 199.54668,388.47321 C 199.23763,395.04714 198.59304,405.76675 196.48268,413.22809 C 196.06325,414.62764 194.9286,418.62321 192.77408,418.62321 C 190.88888,418.62321 189.37895,415.16186 189.37895,408.94554 C 189.37895,403.77117 190.71228,390.9147 199.54668,388.47321 L 199.54668,388.47321 z"
     style="fill:#000000" />
  <path
     d="M 234.60178,405.30317 C 233.97923,409.34289 232.31478,420.15522 228.80927,420.15522 C 227.58632,420.15522 226.54438,418.79981 226.54438,415.80203 C 226.54438,413.80645 227.25519,406.08021 234.60178,405.30317 z M 248.05424,389.98314 C 247.96594,392.98092 247.83349,396.79989 247.16682,402.54821 C 243.61717,400.90584 241.6834,400.37604 239.33021,399.97427 C 239.59511,397.73145 239.99687,394.04493 240.21762,390.58358 C 240.72976,382.72488 240.77391,381.83747 240.84013,380.88383 L 225.01238,380.88383 L 225.01238,387.00743 L 236.2662,387.00743 C 236.0013,392.46878 235.89092,395.09129 235.33463,399.79767 C 227.32145,400.19502 222.70333,407.83296 222.70333,415.51505 C 222.70333,419.7976 224.27949,426.15078 228.71656,426.15078 C 234.93287,426.15078 237.5333,413.22809 238.59732,405.88153 C 242.01452,406.54378 245.32577,408.1685 246.32356,408.65415 C 245.2375,415.04707 244.05867,421.3296 237.21984,424.79538 L 239.68341,429.89911 C 246.50016,425.94769 248.74298,418.79981 250.20875,411.05149 C 252.00566,412.34067 252.98579,413.16186 254.44715,414.40689 L 255.8467,407.87711 C 254.73854,406.9014 254.33677,406.54378 251.16239,404.61443 C 251.76283,399.55485 252.04984,395.91248 252.38535,390.69395 L 248.05424,389.98314 L 248.05424,389.98314 z"
     style="fill:#000000" />
  <path
     d="M 286.06293,377.37391 L 286.06293,388.23038 L 277.11374,388.23038 L 277.11374,394.51292 L 286.06293,394.51292 L 286.06293,424.97198 C 286.06293,426.19493 285.99671,426.37153 284.79583,426.37153 L 279.09169,426.37153 L 280.04529,432.41124 L 285.66117,432.41124 C 288.50442,432.41124 290.01435,431.59005 290.01435,427.08234 L 290.01435,394.51292 L 293.07836,394.51292 L 293.07836,388.23038 L 290.01435,388.23038 L 290.01435,377.37391 L 286.06293,377.37391 z M 259.3787,400.72924 C 260.70761,402.37161 263.15352,405.30317 266.3279,410.94112 C 263.41842,419.51063 259.59945,424.04041 258.04537,425.90354 L 260.70761,431.29866 C 263.30805,427.94768 266.5928,423.26337 269.05637,416.04927 C 271.12259,420.19937 272.31905,423.3296 273.09609,425.37374 L 276.18217,421.44439 C 274.83118,417.26781 272.56629,412.98526 270.87535,409.94333 C 272.76497,402.26124 273.49785,395.73588 273.87313,392.2701 L 276.00557,392.2701 L 276.00557,386.30103 L 269.59058,386.30103 L 269.59058,377.37391 L 265.66124,377.37391 L 265.66124,386.30103 L 258.71204,386.30103 L 258.71204,392.2701 L 269.89963,392.2701 C 269.70096,395.15751 269.32127,399.44006 268.03651,405.12657 C 265.0608,400.37604 263.21975,397.97869 262.1955,396.62329 L 259.3787,400.72924 z M 275.7186,402.37161 C 277.55965,406.94555 279.26825,412.83074 280.38083,417.9124 L 284.12916,414.98084 C 281.93491,406.01398 280.33668,401.97426 279.2241,399.37383 L 275.7186,402.37161 L 275.7186,402.37161 z"
     style="fill:#000000" />
  <path
     d="M 324.33653,393.62551 L 324.33653,399.08686 L 314.63678,399.08686 L 314.63678,393.62551 L 324.33653,393.62551 z M 311.10479,393.62551 L 311.10479,399.08686 L 301.8245,399.08686 L 301.8245,393.62551 L 311.10479,393.62551 z M 297.14016,423.26337 C 304.39841,420.84395 308.81782,417.75787 311.28139,415.4709 C 311.50655,416.22587 311.61693,416.73801 311.77145,417.51505 C 309.46241,419.621 304.19973,423.5062 295.4757,425.94769 L 296.69866,431.12206 C 304.7781,428.12428 309.77146,424.5967 312.30566,422.26558 C 312.39396,425.72694 312.21295,426.6585 310.06285,426.6585 L 306.82224,426.6585 L 307.6655,432.47747 L 311.01652,432.47747 C 313.01206,432.47747 315.98777,432.47747 315.98777,423.90796 C 315.98777,422.79538 315.85536,415.22808 313.32553,410.29653 C 312.61471,409.01177 312.10257,408.1685 311.77145,407.72259 C 313.3476,406.59235 314.63678,405.30317 316.19086,403.77117 C 318.05399,421.79759 323.36081,427.08234 328.46455,431.01169 L 330.83982,425.66071 C 329.57713,424.66293 326.28796,422.08457 323.69194,418.04485 C 326.06721,415.9124 327.79788,413.7623 329.62128,411.29873 L 326.57934,407.12215 C 325.15772,409.58572 323.33874,411.51948 321.55949,413.40469 C 321.05177,411.87268 320.23058,408.41133 319.71848,403.77117 L 328.00097,403.77117 L 328.00097,389.00742 L 319.45354,389.00742 C 321.00762,386.63215 321.22837,386.30103 321.74051,385.29883 L 321.74051,380.61452 L 308.92819,380.61452 C 309.32996,379.83748 309.50656,379.48428 310.04077,378.3717 L 306.06728,377.08693 C 301.95692,385.01185 296.83111,387.16637 295.02979,387.94341 L 296.58387,393.09129 C 297.49777,392.58357 297.71852,392.38048 298.25273,392.04935 L 298.25273,403.77117 L 310.48227,403.77117 C 306.06728,407.078 301.22403,408.54378 296.45142,409.83296 L 297.71852,414.62764 C 299.80681,414.04928 303.82446,412.87489 308.59707,409.94333 C 309.10483,410.65414 309.39618,411.11772 309.66108,411.58571 C 305.42269,415.16186 300.76045,417.15743 295.98788,418.089 L 297.14016,423.26337 z M 302.22623,389.00742 C 303.86861,387.54164 304.99885,386.30103 305.77589,385.29883 L 316.45576,385.29883 C 315.76702,386.588 315.01206,387.69617 314.05842,389.00742 L 302.22623,389.00742 L 302.22623,389.00742 z"
     style="fill:#000000" />
</svg>
