<?xml version="1.0" encoding="UTF-8" standalone="no"?>
<!-- Created with Inkscape (http://www.inkscape.org/) -->
<svg
   xmlns:svg="http://www.w3.org/2000/svg"
   xmlns="http://www.w3.org/2000/svg"
   version="1.0"
   width="352.51968"
   height="446.38251">
  <defs />
  <path
     d="M 2.93814,353.3208 L 349.2128,353.3208 L 349.2128,419.58074 L 327.46807,441.73575 L 24.2726,442.14599 L 2.93814,417.93959 L 2.93814,353.3208 z"
     style="fill:#ffffff" />
  <path
     d="M 348.38063,35.41927 C 348.38063,18.14784 334.34977,4.13906 317.10042,4.13906 L 35.44137,4.13906 C 18.16991,4.13906 4.13906,18.14784 4.13906,35.41927 L 4.13906,368.73818 L 348.38063,368.73818 L 348.38063,35.41927 L 348.38063,35.41927 z"
     style="fill:#000000" />
  <path
     d="M 348.38063,410.94112 C 348.38063,428.21258 334.34977,442.24344 317.10042,442.24344 L 35.44137,442.24344 C 18.16991,442.24344 4.13906,428.21258 4.13906,410.94112 L 4.13906,35.41927 C 4.13906,18.14784 18.16991,4.13906 35.44137,4.13906 L 317.10042,4.13906 C 334.34977,4.13906 348.38063,18.14784 348.38063,35.41927 L 348.38063,410.94112 L 348.38063,410.94112 z"
     style="fill:none;stroke:#000000;stroke-width:8.27811527;stroke-linejoin:miter;marker-start:none;marker-end:none;stroke-miterlimit:79.84031677" />
  <path
     d="M 89.98864,34.95128 C 83.72818,30.75703 76.35955,28.35969 68.72161,28.35969 C 51.25147,28.35969 46.27577,42.3464 46.27577,57.75473 C 46.27577,75.37939 54.8232,89.631 73.80768,89.631 C 83.72818,89.631 92.78775,85.92682 101.33518,81.35288 L 94.94227,99.95767 C 86.65973,102.24464 78.15645,103.02168 69.58695,103.02168 C 56.62452,103.02168 45.63118,100.82301 35.46345,92.07691 C 25.63125,83.7723 20.41273,71.78559 20.41273,58.79667 C 20.41273,47.07486 25.38843,34.70846 34.31113,26.78354 C 43.9888,18.52312 57.35299,15.45911 69.85185,15.45911 L 89.10123,17.12798 L 89.98864,34.95128 L 89.98864,34.95128 z"
     style="fill:#ffffff" />
  <path
     d="M 132.68165,87.18951 C 136.89797,88.90252 141.60435,89.12327 146.06791,89.12327 C 153.19372,89.12327 159.83387,87.96655 164.6727,82.10785 L 165.31729,82.10785 L 160.20914,101.33074 L 103.7546,101.33074 L 103.7546,100.95546 C 109.99299,97.02612 109.10557,89.87824 109.10557,83.28224 L 109.10557,35.57379 C 109.10557,28.96013 109.99299,21.6975 103.7546,17.90502 L 103.7546,17.50325 L 148.35488,17.50325 C 150.26657,17.50325 152.3063,17.50325 153.70585,16.85866 L 154.08113,16.85866 L 154.08113,35.33097 L 153.70585,35.33097 C 150.26657,29.33541 143.00391,29.98 136.76552,29.98 L 132.68165,29.98 L 132.68165,50.62893 L 144.53591,50.62893 C 146.31074,50.62893 148.08998,50.51414 149.24229,50.00641 L 149.90896,50.00641 L 149.90896,67.83417 L 149.24229,67.83417 C 147.44539,62.72602 141.60435,63.26023 136.89797,63.26023 L 132.68165,63.26023 L 132.68165,87.18951 L 132.68165,87.18951 z"
     style="fill:#ffffff" />
  <path
     d="M 197.68362,29.86962 C 200.21783,29.86962 202.90215,30.11245 205.05667,31.62237 C 208.51802,34.06387 210.18248,38.39498 210.18248,42.50092 C 210.18248,50.51414 204.27963,57.24259 196.42094,58.64215 L 196.42094,29.86962 L 197.68362,29.86962 z M 196.42094,65.43241 L 211.18468,93.18507 C 215.62175,101.08791 219.73211,102.24464 228.25305,101.77665 L 245.86005,100.60226 C 240.72983,96.4036 237.04772,91.03055 233.60403,85.3043 L 218.44293,59.94898 C 226.87999,56.35518 233.60403,49.3839 233.60403,39.81661 C 233.60403,31.2471 229.78506,24.51865 222.2619,20.41274 C 216.53124,17.3708 211.44958,17.50325 205.21119,17.50325 L 167.47181,17.50325 L 167.47181,17.90502 C 173.7102,21.83436 172.84044,29.07051 172.84044,35.70624 L 172.84044,83.10564 C 172.84044,89.76786 173.7102,97.02612 167.47181,100.95546 L 167.47181,101.33074 L 201.74542,101.33074 L 201.74542,100.95546 C 195.48496,97.02612 196.42094,89.76786 196.42094,83.10564 L 196.42094,65.43241 L 196.42094,65.43241 z"
     style="fill:#ffffff" />
  <path
     d="M 263.75403,55.71059 C 263.75403,42.6113 270.36769,28.20517 285.42283,28.20517 C 302.87089,28.20517 308.57506,48.96006 308.57506,63.52513 C 308.57506,69.74144 307.70972,76.24473 303.86868,81.35288 C 299.78481,86.83631 293.70094,90.27559 286.93276,90.27559 C 279.69216,90.27559 273.27718,85.41468 269.74959,79.28666 C 266.15137,72.91583 263.75403,63.10129 263.75403,55.71059 z M 238.99915,59.17195 C 238.99915,86.08134 259.29047,103.02168 285.42283,103.02168 C 311.28587,103.02168 333.32991,86.83631 333.32991,59.06157 C 333.32991,31.02193 313.70529,15.45911 286.93276,15.45911 C 261.0653,15.45911 238.99915,32.04621 238.99915,59.17195 L 238.99915,59.17195 z"
     style="fill:#ffffff" />
  <path
     d="M 42.97335,352.58813 L 131.92227,118.43884 L 177.20246,118.43884 L 177.30842,118.11655 L 177.40997,118.43884 L 223.21554,118.43884 L 312.16446,352.58813 L 205.84695,352.58813 L 197.63064,327.38733 L 157.41445,327.38733 L 149.44097,352.58813 L 42.97335,352.58813 z M 141.22025,341.36521 L 149.19373,316.16441 L 205.7719,316.16441 L 213.99262,341.36521 L 295.8952,341.36521 L 215.47164,129.66176 L 139.66617,129.66176 L 59.24261,341.36521 L 141.22025,341.36521 z M 168.13847,257.47146 L 177.49827,228.15589 L 186.96402,257.47146 L 168.13847,257.47146 z"
     style="fill:#ffffff" />
  <path
     d="M 210.18248,304.95474 L 218.39878,330.15553 L 275.91734,330.15553 L 203.98824,140.87144 L 143.67057,140.87144 L 71.76354,330.15553 L 129.28652,330.15553 L 137.25558,304.95474 L 210.18248,304.95474 z M 149.04362,268.68114 L 173.7102,191.48936 L 198.61519,268.68114 L 149.04362,268.68114 L 149.04362,268.68114 z"
     style="fill:#ffffff" />
  <path
     d="M 73.76353,396.067 L 73.76353,395.93455 C 67.72382,392.1818 62.19624,387.54164 57.51193,382.08029 C 51.5826,389.07365 46.94244,392.64979 41.67976,395.93455 L 41.67976,396.067 L 73.76353,396.067 z M 39.44136,397.40033 C 36.62018,399.04271 34.50981,400.0405 32.28907,401.03828 L 29.2957,395.04714 C 38.43915,391.8286 48.58481,384.47764 54.2934,376.93241 L 60.86292,376.93241 C 66.61124,384.32311 74.89377,391.18402 86.19175,394.93676 L 82.90699,400.90584 C 81.11009,400.15087 79.33526,399.44006 75.86949,397.40033 L 75.86949,401.85947 L 60.68632,401.85947 L 60.68632,409.78881 L 79.22047,409.78881 L 79.22047,415.11329 L 60.68632,415.11329 L 60.68632,424.685 L 84.43899,424.685 L 84.43899,430.7203 L 30.58046,430.7203 L 30.58046,424.685 L 54.40378,424.685 L 54.40378,415.11329 L 35.97559,415.11329 L 35.97559,409.78881 L 54.40378,409.78881 L 54.40378,401.85947 L 39.44136,401.85947 L 39.44136,397.40033 L 39.44136,397.40033 z"
     style="fill:#000000" />
  <path
     d="M 116.5625,389.00742 L 116.5625,396.99856 L 97.25131,396.99856 L 97.25131,413.36054 L 88.39041,413.36054 L 88.39041,419.28988 L 116.5625,419.28988 L 116.5625,432.47747 L 122.77881,432.47747 L 122.77881,419.28988 L 144.18271,419.28988 L 144.18271,413.36054 L 122.77881,413.36054 L 122.77881,402.7513 L 140.0282,402.7513 L 140.0282,396.99856 L 122.77881,396.99856 L 122.77881,389.00742 L 141.89574,389.00742 L 141.89574,383.07808 L 105.93119,383.07808 C 106.75238,381.36948 107.21595,380.04057 107.70602,378.68516 L 100.88926,377.04278 C 98.6023,385.01185 94.02836,391.07364 87.6796,395.82418 L 91.85618,401.03828 C 94.20938,399.15308 98.2491,395.93455 102.77888,389.00742 L 116.5625,389.00742 z M 116.5625,402.7513 L 116.5625,413.36054 L 103.60007,413.36054 L 103.60007,402.7513 L 116.5625,402.7513 L 116.5625,402.7513 z"
     style="fill:#000000" />
  <path
     d="M 168.66827,397.10894 C 168.20028,400.26125 168.15613,400.57471 167.44974,404.03607 L 170.77864,404.79103 C 171.37908,402.32746 171.73228,400.08465 172.08548,397.75353 L 168.66827,397.10894 z M 155.41446,397.75353 C 155.59106,398.50849 156.41225,401.68287 156.52704,404.79103 L 160.23122,404.08022 C 159.87802,401.03828 159.70142,400.0405 159.05683,397.10894 L 155.41446,397.75353 z M 179.59097,404.79103 L 179.59097,410.25238 L 183.27749,410.25238 L 183.27749,432.47747 L 188.84922,432.47747 L 188.84922,410.25238 L 195.19798,410.25238 L 195.19798,421.17508 C 195.19798,422.15079 194.53132,422.15079 193.7322,422.15079 L 190.44745,422.15079 L 191.26864,428.19051 L 196.12955,428.19051 C 198.7079,428.19051 200.76971,427.36932 200.76971,423.28545 L 200.76971,404.79103 L 179.59097,404.79103 z M 184.45188,394.3584 C 184.9861,393.64758 187.56004,389.71824 189.84701,383.96991 C 191.847,388.65422 194.20019,392.0052 196.0854,394.3584 L 184.45188,394.3584 z M 160.41223,410.49962 C 158.76544,413.18394 156.34602,415.8241 153.94868,418.0007 L 153.94868,410.49962 L 160.41223,410.49962 z M 172.91108,410.49962 L 172.91108,417.40026 C 170.13405,414.93669 168.08991,412.00513 167.09212,410.49962 L 172.91108,410.49962 z M 180.76978,399.10893 C 181.70134,398.08907 181.98832,397.81975 182.47838,397.04271 L 182.58875,397.04271 L 182.58875,399.8639 L 198.37236,399.8639 L 198.37236,396.99856 C 199.12733,397.75353 199.55117,398.08907 200.76971,399.10893 L 203.76749,392.93677 C 198.81828,389.00742 194.66377,383.7889 192.3768,377.32976 L 186.58433,377.32976 C 184.87572,384.03614 181.48059,389.25025 178.76978,392.11558 L 178.76978,390.00521 L 167.09212,390.00521 L 167.09212,386.14209 L 178.12519,386.14209 L 178.12519,381.21496 L 167.09212,381.21496 L 167.09212,377.32976 L 161.63077,377.32976 L 161.63077,390.00521 L 155.77207,390.00521 L 155.77207,379.85955 L 150.31072,379.85955 L 150.31072,390.00521 L 147.20257,390.00521 L 147.20257,395.28996 L 178.23557,395.28996 L 180.76978,399.10893 z M 153.94868,405.83738 L 153.94868,397.75353 L 148.84494,397.75353 L 148.84494,432.47747 L 153.94868,432.47747 L 153.94868,430.08012 L 172.91108,430.08012 L 172.91108,432.47747 L 178.12519,432.47747 L 178.12519,397.75353 L 172.91108,397.75353 L 172.91108,405.83738 L 165.84709,405.83738 L 165.84709,397.10894 L 161.27757,397.10894 L 161.27757,405.83738 L 153.94868,405.83738 z M 165.84709,414.53934 L 165.98396,414.53934 C 166.55791,415.8241 168.20028,418.86604 170.97732,422.39803 L 172.77422,418.93226 L 172.91108,418.93226 L 172.91108,424.92783 L 153.94868,424.92783 L 153.94868,418.0007 L 154.05905,418.0007 L 156.12527,422.15079 C 157.34823,420.86603 159.23343,418.99849 161.16278,415.18393 L 161.27757,415.18393 L 161.27757,422.86161 L 165.84709,422.86161 L 165.84709,414.53934 L 165.84709,414.53934 z"
     style="fill:#000000" />
  <path
     d="M 233.29498,402.37161 C 236.22653,406.96762 238.93293,412.83074 240.68568,417.93447 L 246.65917,415.00292 C 243.15366,406.01398 240.61945,401.97426 238.8667,399.39591 L 233.29498,402.37161 z M 207.36571,400.75131 C 209.44959,402.37161 213.33478,405.32525 218.39878,410.94112 C 213.73655,419.51063 207.69683,424.04041 205.25534,425.90354 L 209.44959,431.32074 C 213.58202,427.96976 218.79613,423.28545 222.72548,416.04927 C 226.01465,420.22144 227.89985,423.3296 229.12281,425.37374 L 234.04994,421.46647 C 231.89542,417.28988 228.2972,413.00734 225.61289,409.96541 C 228.61067,402.26124 229.76298,395.75795 230.36342,392.29218 L 233.75855,392.29218 L 233.75855,386.32311 L 223.54667,386.32311 L 223.54667,377.39598 L 217.33035,377.39598 L 217.33035,386.32311 L 206.29728,386.32311 L 206.29728,392.29218 L 224.08088,392.29218 C 223.72768,395.15751 223.14932,399.44006 221.0831,405.14865 C 216.39879,400.39811 213.44516,397.97869 211.82485,396.62329 L 207.36571,400.75131 z M 249.72317,377.39598 L 249.72317,388.25246 L 235.51572,388.25246 L 235.51572,394.51292 L 249.72317,394.51292 L 249.72317,424.97198 C 249.72317,426.217 249.59073,426.3936 247.72318,426.3936 L 238.64595,426.3936 L 240.15588,432.43332 L 249.07859,432.43332 C 253.5863,432.43332 256.00571,431.61213 256.00571,427.08234 L 256.00571,394.51292 L 260.86662,394.51292 L 260.86662,388.25246 L 256.00571,388.25246 L 256.00571,377.39598 L 249.72317,377.39598 L 249.72317,377.39598 z"
     style="fill:#000000" />
  <path
     d="M 310.46468,393.64758 L 310.46468,399.10893 L 295.1005,399.10893 L 295.1005,393.64758 L 310.46468,393.64758 z M 275.38754,389.00742 C 277.96149,387.54164 279.78046,386.32311 281.02549,385.3209 L 297.9879,385.3209 C 296.85325,386.61008 295.67886,387.71824 294.14686,389.00742 L 275.38754,389.00742 z M 267.28161,423.28545 C 278.82682,420.86603 285.82018,417.75787 289.74952,415.4709 C 290.10714,416.24794 290.28374,416.76008 290.52656,417.51505 C 286.88861,419.621 278.4957,423.5062 264.64144,425.96976 L 266.59729,431.12206 C 279.42726,428.14636 287.33011,424.61878 291.3919,422.28766 C 291.50228,425.74901 291.2153,426.68058 287.82017,426.68058 L 282.6458,426.68058 L 284.0012,432.47747 L 289.3301,432.47747 C 292.52656,432.47747 297.21087,432.47747 297.21087,423.90796 C 297.21087,422.79538 297.03427,415.22808 292.96806,410.29653 C 291.85989,409.03384 291.06078,408.21265 290.52656,407.72259 C 293.03428,406.61442 295.1005,405.32525 297.54199,403.79324 C 300.49562,421.79759 308.93268,427.08234 317.0342,431.01169 L 320.78694,425.68279 C 318.78695,424.685 313.57284,422.10664 309.48897,418.04485 C 313.21522,415.93889 315.97018,413.7623 318.85759,411.32081 L 314.03641,407.14422 C 311.74945,409.58572 308.86645,411.54156 306.04527,413.42676 C 305.24616,411.89476 303.95698,408.4334 303.11371,403.79324 L 316.27923,403.79324 L 316.27923,389.00742 L 302.71636,389.00742 C 305.20201,386.65423 305.53313,386.32311 306.35432,385.3209 L 306.35432,380.61452 L 285.99678,380.61452 C 286.64137,379.85955 286.93276,379.50635 287.75395,378.39377 L 281.47141,377.10901 C 274.9637,385.01185 266.81804,387.18844 263.93063,387.94341 L 266.41627,393.11337 C 267.88205,392.60564 268.21759,392.42463 269.03878,392.07143 L 269.03878,403.79324 L 288.46476,403.79324 C 281.47141,407.078 273.81139,408.54378 266.2176,409.83296 L 268.21759,414.64972 C 271.50235,414.07135 277.91734,412.89696 285.46698,409.96541 C 286.28817,410.65414 286.77382,411.13979 287.17558,411.58571 C 280.42505,415.18393 273.03435,417.17951 265.46263,418.11107 L 267.28161,423.28545 z M 289.46255,393.64758 L 289.46255,399.10893 L 274.74295,399.10893 L 274.74295,393.64758 L 289.46255,393.64758 L 289.46255,393.64758 z"
     style="fill:#000000" />
</svg>
