<?xml version="1.0" encoding="UTF-8" standalone="no"?>
<!-- Created with Inkscape (http://www.inkscape.org/) -->
<svg
   xmlns:svg="http://www.w3.org/2000/svg"
   xmlns="http://www.w3.org/2000/svg"
   version="1.0"
   width="352.49759"
   height="446.38251">
  <defs />
  <path
     d="M 3.7244,353.78932 L 349.99903,353.78932 L 349.99903,420.04926 L 328.25429,442.20427 L 25.05883,442.61451 L 3.7244,418.40812 L 3.7244,353.78932 z"
     style="fill:#ffffff" />
  <path
     d="M 347.89053,34.54072 C 347.89053,17.26926 333.88175,3.26048 316.62798,3.26048 L 34.9513,3.26048 C 17.70192,3.26048 3.671,17.26926 3.671,34.54072 L 3.671,367.85959 L 347.89053,367.85959 L 347.89053,34.54072 L 347.89053,34.54072 z"
     style="fill:#000000" />
  <path
     d="M 348.35852,410.94112 C 348.35852,428.21258 334.34973,442.24344 317.09597,442.24344 L 35.4193,442.24344 C 18.16991,442.24344 4.13906,428.21258 4.13906,410.94112 L 4.13906,35.4193 C 4.13906,18.14785 18.16991,4.13906 35.4193,4.13906 L 317.09597,4.13906 C 334.34973,4.13906 348.35852,18.14785 348.35852,35.4193 L 348.35852,410.94112 L 348.35852,410.94112 z"
     style="fill:none;stroke:#000000;stroke-width:8.27811527;stroke-linejoin:miter;marker-start:none;marker-end:none;stroke-miterlimit:79.84031677" />
  <path
     d="M 89.98864,34.95132 C 83.72818,30.75707 76.33306,28.35973 68.69505,28.35973 C 51.24699,28.35973 46.27577,42.34643 46.27577,57.77685 C 46.27577,75.37943 54.81879,89.63103 73.80327,89.63103 C 83.72818,89.63103 92.76126,85.92686 101.30861,81.35292 L 94.93785,99.95771 C 86.65532,102.24468 78.1299,103.02171 69.58254,103.02171 C 56.59796,103.02171 45.60911,100.82305 35.44137,92.07694 C 25.60469,83.77234 20.40831,71.78562 20.40831,58.81878 C 20.40831,47.0749 25.36187,34.70849 34.28465,26.78357 C 43.98873,18.52312 57.353,15.45912 69.8297,15.45912 L 89.07474,17.12798 L 89.98864,34.95132 L 89.98864,34.95132 z"
     style="fill:#ffffff" />
  <path
     d="M 132.65512,87.18954 C 136.87586,88.90256 141.60431,89.12331 146.06343,89.12331 C 153.16719,89.12331 159.8073,87.96658 164.64615,82.10788 L 165.29077,82.10788 L 160.18262,101.33077 L 103.75011,101.33077 L 103.75011,100.9555 C 109.9885,97.02615 109.10112,89.87828 109.10112,83.28227 L 109.10112,35.57383 C 109.10112,28.96017 109.9885,21.6975 103.75011,17.90502 L 103.75011,17.50325 L 148.35043,17.50325 C 150.26212,17.50325 152.30186,17.50325 153.7014,16.85866 L 154.08109,16.85866 L 154.08109,35.35308 L 153.7014,35.35308 C 150.26212,29.33544 142.97738,30.00211 136.73899,30.00211 L 132.65512,30.00211 L 132.65512,50.62897 L 144.50939,50.62897 C 146.33278,50.62897 148.08553,50.53625 149.23781,50.00645 L 149.88243,50.00645 L 149.88243,67.8342 L 149.23781,67.8342 C 147.44094,62.72606 141.60431,63.26026 136.87586,63.26026 L 132.65512,63.26026 L 132.65512,87.18954 L 132.65512,87.18954 z"
     style="fill:#ffffff" />
  <path
     d="M 197.6571,29.86965 C 200.19127,29.86965 202.89766,30.11248 205.05218,31.64448 C 208.51358,34.0639 210.15592,38.39501 210.15592,42.50096 C 210.15592,50.53625 204.27514,57.2647 196.39441,58.64219 L 196.39441,29.86965 L 197.6571,29.86965 z M 196.39441,65.43245 L 211.18023,93.1851 C 215.59522,101.08795 219.72762,102.24468 228.25301,101.77669 L 245.85557,100.6023 C 240.72976,96.40363 237.04328,91.03058 233.60399,85.30434 L 218.43848,59.94902 C 226.85346,56.35522 233.60399,49.38394 233.60399,39.81664 C 233.60399,31.24714 229.76295,24.51868 222.25746,20.41273 C 216.53121,17.3708 211.44513,17.50325 205.20674,17.50325 L 167.46736,17.50325 L 167.46736,17.90502 C 173.68367,21.83436 172.84038,29.09262 172.84038,35.70628 L 172.84038,83.12775 C 172.84038,89.7679 173.68367,97.02615 167.46736,100.9555 L 167.46736,101.33077 L 201.74539,101.33077 L 201.74539,100.9555 C 195.48493,97.02615 196.39441,89.7679 196.39441,83.12775 L 196.39441,65.43245 L 196.39441,65.43245 z"
     style="fill:#ffffff" />
  <path
     d="M 263.7275,55.7327 C 263.7275,42.61134 270.36765,28.2052 285.41838,28.2052 C 302.86644,28.2052 308.57503,48.98218 308.57503,63.52517 C 308.57503,69.76355 307.70528,76.24476 303.86861,81.35292 C 299.78032,86.83634 293.67442,90.27562 286.92827,90.27562 C 279.67002,90.27562 273.27273,85.41472 269.74514,79.2867 C 266.14692,72.91586 263.7275,63.12782 263.7275,55.7327 z M 238.97263,59.17198 C 238.97263,86.08137 259.26394,103.02171 285.41838,103.02171 C 311.28142,103.02171 333.3255,86.83634 333.3255,59.06161 C 333.3255,31.02197 313.70084,15.45912 286.92827,15.45912 C 261.06523,15.45912 238.97263,32.04624 238.97263,59.17198 L 238.97263,59.17198 z"
     style="fill:#ffffff" />
  <path
     d="M 83.56924,330.39835 L 165.73669,330.39835 C 181.65274,330.39835 222.23538,328.77805 244.57084,307.28586 C 266.12485,286.70756 269.74514,257.58184 269.74514,237.70995 C 269.74514,225.45392 267.67889,184.31944 243.28167,165.15836 C 228.65037,153.59107 209.64823,140.89355 165.73669,140.89355 L 83.56924,140.89355 L 83.56924,330.39835 z M 141.84714,184.31944 L 172.41653,184.31944 C 198.34584,184.31944 209.64823,207.67476 209.64823,234.71216 C 209.64823,255.98361 202.4562,286.95039 172.41653,286.95039 L 141.84714,286.95039 L 141.84714,184.31944 L 141.84714,184.31944 z"
     style="fill:#ffffff" />
  <path
     d="M 22.43038,380.97213 L 22.43038,387.29882 L 29.86965,387.29882 L 29.86965,427.19272 L 35.70628,427.19272 L 35.70628,380.97213 L 22.43038,380.97213 L 22.43038,380.97213 z"
     style="fill:#000000" />
  <path
     d="M 83.86056,380.97213 L 83.86056,387.47542 L 65.12339,427.19272 L 58.10796,427.19272 L 77.77677,387.29882 L 52.02409,387.29882 L 52.02409,380.97213 L 83.86056,380.97213 L 83.86056,380.97213 z"
     style="fill:#000000" />
  <path
     d="M 88.14318,416.11549 C 100.50958,413.47091 107.28211,409.47534 111.56469,406.94555 L 111.56469,393.15751 L 88.14318,393.15751 L 88.14318,387.16637 L 111.56469,387.16637 L 111.56469,377.44013 L 116.89359,377.44013 L 116.89359,387.16637 L 133.43216,387.16637 L 133.43216,393.15751 L 116.89359,393.15751 L 116.89359,403.19281 C 121.44544,399.48421 123.26443,396.86611 124.42116,395.15751 L 128.68163,399.08686 C 126.70812,401.59458 123.35269,406.08021 116.89359,410.36276 L 116.89359,427.83731 C 116.89359,430.7203 115.22914,432.47747 112.40795,432.47747 L 102.75233,432.47747 L 101.97535,426.37153 L 109.96646,426.37153 C 111.52054,426.37153 111.56469,425.83732 111.56469,424.55255 L 111.56469,413.51507 C 102.12988,418.68944 94.38156,420.91018 90.05486,422.08457 L 88.14318,416.11549 L 88.14318,416.11549 z"
     style="fill:#000000" />
  <path
     d="M 155.6131,380.72489 C 159.93979,385.7006 162.13847,389.33855 165.64393,396.26568 L 160.95966,400.19502 C 157.80735,393.15751 156.0546,390.2966 151.66168,384.30104 L 155.6131,380.72489 z M 136.76106,421.37376 C 138.09436,420.91018 138.91558,420.68943 141.335,419.68722 L 141.335,378.48649 L 146.64183,378.48649 L 146.64183,417.51505 C 146.64183,417.51505 154.43429,414.1155 159.69697,411.34288 L 160.71684,416.93669 C 155.07888,420.15522 144.15619,425.30752 137.67497,427.72693 L 136.76106,421.37376 z M 178.45628,389.40918 C 178.45628,397.90805 176.94632,407.83297 174.05891,414.45104 C 178.45628,419.91239 180.49602,422.55255 183.03019,426.97197 L 178.69907,432.29645 C 176.79183,427.72693 174.37241,424.08456 171.24219,419.621 C 165.35696,428.54812 157.80735,431.29866 154.47841,432.47747 L 151.77201,426.43775 C 171.57331,420.73358 172.99493,403.55042 172.99493,389.00742 L 172.99493,378.90592 L 178.45628,378.90592 L 178.45628,389.40918 L 178.45628,389.40918 z"
     style="fill:#000000" />
  <path
     d="M 209.82479,377.44013 L 209.82479,395.15751 L 228.072,395.15751 L 228.072,401.44005 L 209.82479,401.44005 L 209.82479,424.30531 L 231.2022,424.30531 L 231.2022,430.47748 L 185.13618,430.47748 L 185.13618,424.30531 L 204.47385,424.30531 L 204.47385,377.44013 L 209.82479,377.44013 L 209.82479,377.44013 z"
     style="fill:#000000" />
  <path
     d="M 270.32351,377.37391 L 270.32351,388.23039 L 258.53105,388.23039 L 258.53105,394.51292 L 270.32351,394.51292 L 270.32351,424.97198 C 270.32351,426.19493 270.2308,426.37153 268.67668,426.37153 L 261.10938,426.37153 L 262.39418,432.41124 L 269.78926,432.41124 C 273.54204,432.41124 275.53762,431.59005 275.53762,427.08235 L 275.53762,394.51292 L 279.57734,394.51292 L 279.57734,388.23039 L 275.53762,388.23039 L 275.53762,377.37391 L 270.32351,377.37391 z M 235.18011,400.72924 C 236.93286,402.37161 240.12936,405.30318 244.32361,410.94112 C 240.48255,419.51062 235.46709,424.04042 233.42297,425.90354 L 236.93286,431.29866 C 240.32799,427.94769 244.6591,423.26337 247.92183,416.04927 C 250.65029,420.19936 252.20434,423.3296 253.22864,425.37374 L 257.31251,421.44439 C 255.51558,417.26781 252.5399,412.98527 250.29709,409.94334 C 252.78273,402.26123 253.75844,395.73588 254.24851,392.2701 L 257.06969,392.2701 L 257.06969,386.30103 L 248.61056,386.30103 L 248.61056,377.37391 L 243.45823,377.37391 L 243.45823,386.30103 L 234.28828,386.30103 L 234.28828,392.2701 L 249.02995,392.2701 C 248.74297,395.15751 248.25295,399.44006 246.54434,405.12657 C 242.65915,400.37604 240.23973,397.97869 238.86222,396.62329 L 235.18011,400.72924 z M 256.69,402.37161 C 259.1315,406.94555 261.3522,412.83074 262.81798,417.91239 L 267.7893,414.98084 C 264.86216,406.01398 262.77383,401.97427 261.30806,399.37383 L 256.69,402.37161 L 256.69,402.37161 z"
     style="fill:#000000" />
  <path
     d="M 320.73834,393.62551 L 320.73834,399.08686 L 307.99662,399.08686 L 307.99662,393.62551 L 320.73834,393.62551 z M 291.61262,389.00742 C 293.76714,387.54164 295.27706,386.30103 296.29693,385.29882 L 310.3719,385.29882 C 309.44034,386.58801 308.48231,387.69617 307.19755,389.00742 L 291.61262,389.00742 z M 284.90624,423.26337 C 294.50003,420.84396 300.29246,417.75787 303.55518,415.47091 C 303.84653,416.22587 304.00109,416.73801 304.17769,417.51505 C 301.15783,419.621 294.2086,423.5062 282.70757,425.94769 L 284.3058,431.12206 C 294.98564,428.12429 301.5596,424.5967 304.91058,422.26559 C 305.02096,425.72694 304.77813,426.6585 301.95692,426.6585 L 297.65233,426.6585 L 298.78254,432.47747 L 303.22406,432.47747 C 305.84211,432.47747 309.74941,432.47747 309.74941,423.90796 C 309.74941,422.79539 309.59489,415.22808 306.24388,410.29653 C 305.30794,409.01176 304.6236,408.16851 304.17769,407.72259 C 306.28803,406.59235 307.99662,405.30318 310.03639,403.77117 C 312.46022,421.79759 319.47565,427.08235 326.19969,431.01169 L 329.32989,425.66072 C 327.6434,424.66292 323.33436,422.08457 319.91715,418.04485 C 323.02528,415.9124 325.33435,413.7623 327.70962,411.29873 L 323.71402,407.12215 C 321.82885,409.58572 319.42706,411.51948 317.09597,413.40469 C 316.41161,411.87268 315.34322,408.41133 314.65448,403.77117 L 325.57717,403.77117 L 325.57717,389.00742 L 314.32332,389.00742 C 316.36749,386.63216 316.65447,386.30103 317.34321,385.29882 L 317.34321,380.61451 L 300.42495,380.61451 C 300.9812,379.83748 301.22403,379.48428 301.89072,378.3717 L 296.69424,377.08693 C 291.27708,385.01185 284.50886,387.16637 282.13358,387.94341 L 284.17335,393.09129 C 285.39631,392.58357 285.68327,392.38048 286.34994,392.04935 L 286.34994,403.77117 L 302.49117,403.77117 C 296.69424,407.078 290.30136,408.54378 284.01882,409.83296 L 285.68327,414.62764 C 288.41613,414.04928 293.72295,412.87489 300.00549,409.94334 C 300.66778,410.65414 301.06954,411.11772 301.40067,411.58571 C 295.80686,415.16186 289.67881,417.15743 283.39628,418.08899 L 284.90624,423.26337 z M 303.31235,393.62551 L 303.31235,399.08686 L 291.07837,399.08686 L 291.07837,393.62551 L 303.31235,393.62551 L 303.31235,393.62551 z"
     style="fill:#000000" />
  <path
     d="M 64.86732,352.83095 L 64.86732,118.46096 L 169.46294,118.46096 C 219.09187,118.46096 242.88427,133.30417 260.91073,147.5337 C 278.79588,161.58663 287.10046,182.35919 291.16228,198.57546 C 295.33888,215.23762 295.90837,230.59738 295.90837,237.70995 C 295.90837,259.26395 292.2351,296.38524 263.81139,323.48889 C 248.26177,338.45131 227.71439,345.41375 211.02129,348.8707 C 193.93084,352.41152 178.06776,352.83095 169.46294,352.83095 L 64.86732,352.83095 z M 256.04983,315.38296 C 281.04753,291.5464 284.68549,258.41185 284.68549,237.70995 C 284.68549,226.42964 283.21088,179.32166 253.96591,156.35486 C 237.71873,143.5293 216.38109,129.68387 169.46294,129.68387 L 76.09024,129.68387 L 76.09024,341.60803 L 169.46294,341.60803 C 184.34585,341.60803 229.98811,340.46455 256.04983,315.38296 z M 156.80956,275.74072 L 156.80956,195.52911 L 176.14724,195.52911 C 196.46063,195.52911 202.16923,216.84468 202.16923,234.71216 C 202.16923,244.42074 200.47387,255.40525 196.13389,263.52884 C 192.16043,270.97252 186.32819,275.74072 176.14724,275.74072 L 156.80956,275.74072 z M 186.2355,258.24409 C 189.36132,252.39422 190.94627,243.48918 190.94627,234.71216 C 190.94627,223.84245 188.59753,216.04556 185.74541,211.71007 C 183.62179,208.48712 181.19354,206.75204 176.14724,206.75204 L 168.03244,206.75204 L 168.03244,264.5178 L 176.14724,264.5178 C 181.44965,264.5178 183.84258,262.72972 186.2355,258.24409 z"
     style="fill:#ffffff" />
</svg>
