<?xml version="1.0" encoding="utf-8"?>
<!-- Generator: Adobe Illustrator 16.0.0, SVG Export Plug-In . SVG Version: 6.00 Build 0)  -->
<!DOCTYPE svg PUBLIC "-//W3C//DTD SVG 1.1//EN" "http://www.w3.org/Graphics/SVG/1.1/DTD/svg11.dtd">
<svg version="1.1" id="Layer_1" xmlns="http://www.w3.org/2000/svg" xmlns:xlink="http://www.w3.org/1999/xlink" x="0px" y="0px"
	 width="80px" height="80px" viewBox="0 0 80 80" enable-background="new 0 0 80 80" xml:space="preserve">
<path opacity="0.1" fill="#33CCFF" enable-background="new    " d="M60.307,60.292c-0.879,0.878-1.813,1.694-2.793,2.458
	l5.088,7.004c5.896-4.531,10.453-10.716,12.986-17.859l-8.229-2.672C65.837,53.42,63.409,57.186,60.307,60.292z"/>
<path opacity="0.1" fill="#33CCFF" enable-background="new    " d="M39.938,69.129v8.659c7.785-0.203,15-2.695,20.998-6.822
	l-5.082-6.998C51.285,67.064,45.833,68.932,39.938,69.129z"/>
<path opacity="0.1" fill="#33CCFF" enable-background="new    " d="M8.646,38.895c0.001-2.907,0.417-5.711,1.18-8.367l-8.233-2.676
	C0.559,31.353,0,35.058,0,38.895c0,3.835,0.559,7.542,1.593,11.042l8.233-2.676C9.064,44.605,8.647,41.801,8.646,38.895z"/>
<path opacity="0.1" fill="#33CCFF" d="M37.879,8.659V0c-7.786,0.203-15,2.694-21,6.822l5.083,6.998
	C26.531,10.723,31.983,8.857,37.879,8.659z"/>
<path opacity="0.1" fill="#33CCFF" enable-background="new    " d="M17.509,17.497c0.879-0.878,1.815-1.695,2.793-2.459
	l-5.088-7.003C9.319,12.567,4.761,18.75,2.229,25.894l8.226,2.673C11.979,24.367,14.406,20.603,17.509,17.497z"/>
<path opacity="0.1" fill="#33CCFF" enable-background="new    " d="M69.17,38.895c0,2.907-0.418,5.71-1.18,8.367l8.232,2.676
	c1.033-3.5,1.594-7.207,1.594-11.042c0-3.836-0.56-7.542-1.594-11.043l-8.232,2.676C68.752,33.183,69.17,35.987,69.17,38.895z"/>
<path opacity="0.1" fill="#33CCFF" enable-background="new    " d="M17.509,60.292c-3.103-3.106-5.53-6.872-7.055-11.069
	l-8.226,2.672C4.76,59.04,9.319,65.223,15.214,69.754l5.088-7.003C19.324,61.986,18.388,61.17,17.509,60.292z"/>
<path fill="#33CCFF" enable-background="new    " d="M60.307,17.497c3.104,3.106,5.531,6.871,7.055,11.07l8.228-2.673
	c-2.532-7.143-7.091-13.326-12.985-17.859l-5.09,7.003C58.492,15.802,59.428,16.619,60.307,17.497z"/>
<path fill="#33CCFF" enable-background="new    " d="M55.855,13.82l5.082-6.997c-5.998-4.129-13.213-6.62-21-6.823v8.659
	C45.833,8.857,51.285,10.724,55.855,13.82z"/>
<path opacity="0.1" fill="#33CCFF" enable-background="new    " d="M21.963,63.969l-5.083,6.997c6,4.128,13.214,6.619,21,6.822
	v-8.659C31.984,68.932,26.532,67.064,21.963,63.969z"/>
<rect x="8.253" y="24.499" fill="none" width="61.247" height="55.501"/>
<text transform="matrix(1 0 0 1 29.8418 52.9746)" font-family="'Impact'" font-size="36">2</text>
</svg>
