<?xml version="1.0" encoding="utf-8"?>
<!-- Generator: Adobe Illustrator 13.0.0, SVG Export Plug-In  -->
<!DOCTYPE svg PUBLIC "-//W3C//DTD SVG 1.1//EN" "http://www.w3.org/Graphics/SVG/1.1/DTD/svg11.dtd" [
	<!ENTITY ns_flows "http://ns.adobe.com/Flows/1.0/">
]>
<svg version="1.1"
	 xmlns="http://www.w3.org/2000/svg" xmlns:xlink="http://www.w3.org/1999/xlink" xmlns:a="http://ns.adobe.com/AdobeSVGViewerExtensions/3.0/"
	 x="0px" y="0px" width="426px" height="519px" viewBox="0 3.621 426 519" enable-background="new 0 3.621 426 519"
	 xml:space="preserve">
<defs>
</defs>
<g>
	<defs>
		<rect id="SVGID_17_" width="426.082" height="536.12"/>
	</defs>
	<clipPath id="SVGID_18_">
		<use xlink:href="#SVGID_17_"  overflow="visible"/>
	</clipPath>
	<rect y="3.624" clip-path="url(#SVGID_18_)" fill="#A5C400" width="425.717" height="425.712"/>
</g>
<g>
	<defs>
		<rect id="SVGID_16_" width="426.082" height="536.12"/>
	</defs>
	<clipPath id="SVGID_19_">
		<use xlink:href="#SVGID_16_"  overflow="visible"/>
	</clipPath>
	<path clip-path="url(#SVGID_19_)" fill="#FFFFFF" d="M126.872,63.194h167.75c-18.741,96.225-48.536,196.696-50.243,305.68h-68.975
		c4.261-83.44,22.571-166.038,42.578-246.929h-91.109V63.194L126.872,63.194z"/>
</g>
<g>
	<defs>
		<rect id="SVGID_15_" width="426.082" height="536.12"/>
	</defs>
	<clipPath id="SVGID_20_">
		<use xlink:href="#SVGID_15_"  overflow="visible"/>
	</clipPath>
	<path clip-path="url(#SVGID_20_)" d="M0.009,522.996h425.708V3.624H0.009 M417.204,420.812H8.522V12.132h408.681L417.204,420.812
		L417.204,420.812z"/>
</g>
<g>
	<defs>
		<rect id="SVGID_14_" width="426.082" height="536.12"/>
	</defs>
	<clipPath id="SVGID_21_">
		<use xlink:href="#SVGID_14_"  overflow="visible"/>
	</clipPath>
	<path clip-path="url(#SVGID_21_)" d="M381.254,20.654v3.159h-6.739v21.33h-3.948v-21.33h-6.729v-3.159H381.254z M408.691,45.143
		h-3.959V25.855h-0.115l-6.787,19.288h-3.221l-6.452-19.288h-0.124v19.288h-3.95V20.654h6.279l6.105,18.219h0.115l5.943-18.219
		h6.164L408.691,45.143L408.691,45.143z"/>
</g>
<g>
	<defs>
		<rect id="SVGID_13_" width="426.082" height="536.12"/>
	</defs>
	<clipPath id="SVGID_22_">
		<use xlink:href="#SVGID_13_"  overflow="visible"/>
	</clipPath>
	<polygon clip-path="url(#SVGID_22_)" fill="#FFFFFF" points="27.043,491.073 34.267,491.073 40.905,458.786 41.049,458.786 
		47.98,491.073 54.763,491.073 64.119,451.548 57.639,451.548 51.522,483.864 51.369,483.864 44.812,451.548 37.517,451.548 
		30.801,483.864 30.653,483.864 24.311,451.548 17.826,451.548 	"/>
</g>
<g>
	<defs>
		<rect id="SVGID_12_" width="426.082" height="536.12"/>
	</defs>
	<clipPath id="SVGID_23_">
		<use xlink:href="#SVGID_12_"  overflow="visible"/>
	</clipPath>
	<polygon clip-path="url(#SVGID_23_)" fill="#FFFFFF" points="74.842,491.073 82.065,491.073 88.699,458.786 88.857,458.786 
		95.788,491.073 102.551,491.073 111.927,451.548 105.437,451.548 99.321,483.864 99.163,483.864 92.596,451.548 85.305,451.548 
		78.6,483.864 78.451,483.864 72.109,451.548 65.62,451.548 	"/>
</g>
<g>
	<defs>
		<rect id="SVGID_11_" width="426.082" height="536.12"/>
	</defs>
	<clipPath id="SVGID_24_">
		<use xlink:href="#SVGID_11_"  overflow="visible"/>
	</clipPath>
	<polygon clip-path="url(#SVGID_24_)" fill="#FFFFFF" points="122.63,491.073 129.858,491.073 136.492,458.786 136.641,458.786 
		143.582,491.073 150.354,491.073 159.72,451.548 153.24,451.548 147.114,483.864 146.966,483.864 140.399,451.548 133.104,451.548 
		126.393,483.864 126.245,483.864 119.903,451.548 113.403,451.548 	"/>
</g>
<g>
	<defs>
		<rect id="SVGID_10_" width="426.082" height="536.12"/>
	</defs>
	<clipPath id="SVGID_25_">
		<use xlink:href="#SVGID_10_"  overflow="visible"/>
	</clipPath>
	<rect x="163.21" y="483.27" clip-path="url(#SVGID_25_)" fill="#FFFFFF" width="6.778" height="7.804"/>
</g>
<g>
	<defs>
		<rect id="SVGID_9_" width="426.082" height="536.12"/>
	</defs>
	<clipPath id="SVGID_26_">
		<use xlink:href="#SVGID_9_"  overflow="visible"/>
	</clipPath>
	<path clip-path="url(#SVGID_26_)" fill="#FFFFFF" d="M185.326,471.325c0-9.012,1.107-15.492,7.972-15.492
		c5.751,0,7.223,6.06,7.223,14.744c0,10.181-1.472,16.221-7.223,16.221C186.659,486.798,185.326,478.984,185.326,471.325
		 M179.502,504.053h6.188v-17.466h0.153c1.404,3.384,4.726,5.521,8.259,5.521c10.248,0,12.908-12.539,12.908-21.531
		c0-11.715-3.533-20.055-12.908-20.055c-4.281,0-7.736,2.962-8.551,5.904h-0.148v-4.88h-5.901V504.053z"/>
</g>
<g>
	<defs>
		<rect id="SVGID_8_" width="426.082" height="536.12"/>
	</defs>
	<clipPath id="SVGID_27_">
		<use xlink:href="#SVGID_8_"  overflow="visible"/>
	</clipPath>
	<path clip-path="url(#SVGID_27_)" fill="#FFFFFF" d="M219.042,467.184v-1.477c0-2.339,0.729-10.313,7.219-10.313
		c5.455,0,6.864,5.225,6.864,9.652v2.138H219.042z M239.604,472.054v-2.502c0-8.483-1.111-19.028-13.201-19.028
		c-12.154,0-14.083,11.427-14.083,21.319c0,13.564,4.055,20.267,13.718,20.267c10.767,0,13.269-9.808,13.269-14.006h-6.184
		c0,2.942-0.825,9.146-6.721,9.146c-7.584,0-7.584-9.146-7.584-15.194L239.604,472.054L239.604,472.054z"/>
</g>
<g>
	<defs>
		<rect id="SVGID_7_" width="426.082" height="536.12"/>
	</defs>
	<clipPath id="SVGID_28_">
		<use xlink:href="#SVGID_7_"  overflow="visible"/>
	</clipPath>
	<path clip-path="url(#SVGID_28_)" fill="#FFFFFF" d="M258.634,455.833c6.635,0,7.956,7.813,7.956,15.492
		c0,8.091-1.321,14.446-8.032,14.446c-6.175,0-7.151-8.043-7.151-14.446C251.406,461.893,252.882,455.833,258.634,455.833
		 M272.419,451.548h-5.896v5.033h-0.162c-0.807-3.106-4.268-6.059-8.553-6.059c-10.018,0-12.884,10.104-12.884,20.803
		c0,5.234,0.729,19.748,12.232,19.748c3.911,0,7.593-1.994,8.925-5.302h0.152v5.167c0,2.723,0.289,8.839-7.678,8.839
		c-3.24,0-6.06-1.399-6.338-5.004h-6.191c1.016,9.874,10.535,9.874,12.951,9.874c7.976,0,13.439-4.275,13.439-16.076v-37.023
		H272.419z"/>
</g>
<g>
	<defs>
		<rect id="SVGID_6_" width="426.082" height="536.12"/>
	</defs>
	<clipPath id="SVGID_29_">
		<use xlink:href="#SVGID_6_"  overflow="visible"/>
	</clipPath>
	<path clip-path="url(#SVGID_29_)" fill="#FFFFFF" d="M280.922,491.073h6.185v-39.517h-6.185V491.073z M280.922,445.519h6.185
		v-7.096h-6.185V445.519z"/>
</g>
<g>
	<defs>
		<rect id="SVGID_5_" width="426.082" height="536.12"/>
	</defs>
	<clipPath id="SVGID_30_">
		<use xlink:href="#SVGID_5_"  overflow="visible"/>
	</clipPath>
	<rect x="296.97" y="483.27" clip-path="url(#SVGID_30_)" fill="#FFFFFF" width="6.787" height="7.804"/>
</g>
<g>
	<defs>
		<rect id="SVGID_4_" width="426.082" height="536.12"/>
	</defs>
	<clipPath id="SVGID_31_">
		<use xlink:href="#SVGID_4_"  overflow="visible"/>
	</clipPath>
	<path clip-path="url(#SVGID_31_)" fill="#FFFFFF" d="M313.641,491.073h6.202v-39.517h-6.202V491.073z M313.641,445.519h6.202
		v-7.096h-6.202V445.519z"/>
</g>
<g>
	<defs>
		<rect id="SVGID_3_" width="426.082" height="536.12"/>
	</defs>
	<clipPath id="SVGID_32_">
		<use xlink:href="#SVGID_3_"  overflow="visible"/>
	</clipPath>
	<path clip-path="url(#SVGID_32_)" fill="#FFFFFF" d="M328.328,491.073h6.174V463.8c0-5.752,4.506-7.967,7.822-7.967
		c5.599,0,5.829,4.946,5.829,7.967v27.273h6.191v-28.021c0-4.63,0-12.528-10.411-12.528c-3.814,0-7.946,2.069-9.566,5.693h-0.153
		v-4.669h-5.886V491.073z"/>
</g>
<g>
	<defs>
		<rect id="SVGID_2_" width="426.082" height="536.12"/>
	</defs>
	<clipPath id="SVGID_33_">
		<use xlink:href="#SVGID_2_"  overflow="visible"/>
	</clipPath>
	<path clip-path="url(#SVGID_33_)" fill="#FFFFFF" d="M364.306,491.073h6.223v-34.646h6.758v-4.88h-6.758v-4.63
		c0-2.731,1.304-3.758,3.969-3.758h2.866v-5.312h-4.496c-5.982,0-8.562,3.098-8.562,9.069v4.63h-5.743v4.88h5.743V491.073z"/>
</g>
<g>
	<defs>
		<rect id="SVGID_1_" width="426.082" height="536.12"/>
	</defs>
	<clipPath id="SVGID_34_">
		<use xlink:href="#SVGID_1_"  overflow="visible"/>
	</clipPath>
	<path clip-path="url(#SVGID_34_)" fill="#FFFFFF" d="M379.634,471.325c0,11.12,2.818,20.783,14.236,20.783
		c11.36,0,14.227-9.663,14.227-20.783c0-11.149-2.8-20.803-14.227-20.803C382.53,450.522,379.634,460.176,379.634,471.325
		 M393.727,487.258c-6.347,0-7.583-7.4-7.583-15.933c0-8.57,1.332-15.934,7.583-15.934c6.635,0,7.899,7.362,7.899,15.934
		C401.626,479.856,400.293,487.258,393.727,487.258"/>
</g>
</svg>
