<?xml version="1.0" encoding="utf-8"?>
<!-- Generator: Adobe Illustrator 13.0.0, SVG Export Plug-In  -->
<!DOCTYPE svg PUBLIC "-//W3C//DTD SVG 1.1//EN" "http://www.w3.org/Graphics/SVG/1.1/DTD/svg11.dtd" [
	<!ENTITY ns_flows "http://ns.adobe.com/Flows/1.0/">
]>
<svg version="1.1"
	 xmlns="http://www.w3.org/2000/svg" xmlns:xlink="http://www.w3.org/1999/xlink" xmlns:a="http://ns.adobe.com/AdobeSVGViewerExtensions/3.0/"
	 x="0px" y="0px" width="426px" height="519px" viewBox="0 3.624 426 519" enable-background="new 0 3.624 426 519"
	 xml:space="preserve">
<defs>
</defs>
<g>
	<defs>
		<rect id="SVGID_18_" width="426.082" height="536.125"/>
	</defs>
	<clipPath id="SVGID_19_">
		<use xlink:href="#SVGID_18_"  overflow="visible"/>
	</clipPath>
	<rect y="3.624" clip-path="url(#SVGID_19_)" fill="#F5A200" width="425.727" height="425.716"/>
</g>
<g>
	<defs>
		<rect id="SVGID_17_" width="426.082" height="536.125"/>
	</defs>
	<clipPath id="SVGID_20_">
		<use xlink:href="#SVGID_17_"  overflow="visible"/>
	</clipPath>
	<path clip-path="url(#SVGID_20_)" fill="#FFFFFF" d="M149.868,368.877H83.447V138.129H40.029V98.963
		c29.8,0.422,49.386-11.931,60.027-40.877h49.812V368.877z"/>
</g>
<g>
	<defs>
		<rect id="SVGID_16_" width="426.082" height="536.125"/>
	</defs>
	<clipPath id="SVGID_21_">
		<use xlink:href="#SVGID_16_"  overflow="visible"/>
	</clipPath>
	<path clip-path="url(#SVGID_21_)" fill="#FFFFFF" d="M280.125,192.624c12.77-11.926,22.145-20.439,43.427-20.439
		c39.593,0,60.453,33.635,60.453,96.226c0,58.756-15.328,105.586-85.569,105.586c-49.391,0-74.506-25.125-83.445-72.81
		c-3.83-20.86-4.262-46.414-4.262-81.314c0.432-42.583,0.853-68.127,4.692-88.987c8.939-47.679,34.047-72.801,83.438-72.801
		c44.691,0,80.892,27.677,80.892,74.512v15.756h-62.16v-7.248c0-21.282-8.091-26.818-18.73-26.818
		c-12.771,1.706-18.312,13.627-18.732,30.648v47.689H280.125z M299.28,233.492c-13.191,0-19.154,13.206-19.154,41.299
		c0,28.523,5.963,41.293,19.154,41.293c14.054,0,20.017-12.77,20.017-41.293C319.296,246.697,313.333,233.492,299.28,233.492"/>
</g>
<g>
	<defs>
		<rect id="SVGID_15_" width="426.082" height="536.125"/>
	</defs>
	<clipPath id="SVGID_22_">
		<use xlink:href="#SVGID_15_"  overflow="visible"/>
	</clipPath>
	<path clip-path="url(#SVGID_22_)" d="M0,523.002h425.727V3.624H0 M417.195,420.818H8.513V12.132h408.682V420.818z"/>
</g>
<g>
	<defs>
		<rect id="SVGID_14_" width="426.082" height="536.125"/>
	</defs>
	<clipPath id="SVGID_23_">
		<use xlink:href="#SVGID_14_"  overflow="visible"/>
	</clipPath>
	<path clip-path="url(#SVGID_23_)" d="M381.245,20.655v3.159h-6.729v21.33h-3.949v-21.33h-6.739v-3.159H381.245z M408.691,45.144
		h-3.959V25.855h-0.115l-6.787,19.289h-3.221l-6.463-19.288h-0.114v19.288h-3.949V20.655h6.279l6.105,18.219h0.115l5.943-18.219
		h6.163v24.489H408.691z"/>
</g>
<g>
	<defs>
		<rect id="SVGID_13_" width="426.082" height="536.125"/>
	</defs>
	<clipPath id="SVGID_24_">
		<use xlink:href="#SVGID_13_"  overflow="visible"/>
	</clipPath>
	<polygon clip-path="url(#SVGID_24_)" fill="#FFFFFF" points="27.034,491.079 34.258,491.079 40.896,458.792 41.045,458.792 
		47.976,491.079 54.759,491.079 64.11,451.553 57.635,451.553 51.519,483.87 51.36,483.87 44.803,451.553 37.508,451.553 
		30.797,483.87 30.648,483.87 24.307,451.553 17.817,451.553 	"/>
</g>
<g>
	<defs>
		<rect id="SVGID_12_" width="426.082" height="536.125"/>
	</defs>
	<clipPath id="SVGID_25_">
		<use xlink:href="#SVGID_12_"  overflow="visible"/>
	</clipPath>
	<polygon clip-path="url(#SVGID_25_)" fill="#FFFFFF" points="74.833,491.079 82.057,491.079 88.695,458.792 88.854,458.792 
		95.785,491.079 102.548,491.079 111.919,451.553 105.434,451.553 99.317,483.87 99.159,483.87 92.592,451.553 85.297,451.553 
		78.591,483.87 78.447,483.87 72.106,451.553 65.616,451.553 	"/>
</g>
<g>
	<defs>
		<rect id="SVGID_11_" width="426.082" height="536.125"/>
	</defs>
	<clipPath id="SVGID_26_">
		<use xlink:href="#SVGID_11_"  overflow="visible"/>
	</clipPath>
	<polygon clip-path="url(#SVGID_26_)" fill="#FFFFFF" points="122.627,491.079 129.851,491.079 136.489,458.792 136.633,458.792 
		143.574,491.079 150.347,491.079 159.713,451.553 153.232,451.553 147.106,483.87 146.963,483.87 140.396,451.553 133.101,451.553 
		126.385,483.87 126.236,483.87 119.895,451.553 113.4,451.553 	"/>
</g>
<g>
	<defs>
		<rect id="SVGID_10_" width="426.082" height="536.125"/>
	</defs>
	<clipPath id="SVGID_27_">
		<use xlink:href="#SVGID_10_"  overflow="visible"/>
	</clipPath>
	<rect x="163.212" y="483.276" clip-path="url(#SVGID_27_)" fill="#FFFFFF" width="6.773" height="7.803"/>
</g>
<g>
	<defs>
		<rect id="SVGID_9_" width="426.082" height="536.125"/>
	</defs>
	<clipPath id="SVGID_28_">
		<use xlink:href="#SVGID_9_"  overflow="visible"/>
	</clipPath>
	<path clip-path="url(#SVGID_28_)" fill="#FFFFFF" d="M185.324,471.331c0-9.012,1.107-15.492,7.966-15.492
		c5.757,0,7.228,6.061,7.228,14.744c0,10.182-1.471,16.221-7.228,16.221C186.656,486.803,185.324,478.991,185.324,471.331
		 M179.5,504.059h6.184v-17.467h0.158c1.404,3.385,4.721,5.521,8.254,5.521c10.248,0,12.913-12.539,12.913-21.531
		c0-11.715-3.547-20.055-12.913-20.055c-4.275,0-7.731,2.961-8.546,5.904h-0.15v-4.881h-5.9V504.059z"/>
</g>
<g>
	<defs>
		<rect id="SVGID_8_" width="426.082" height="536.125"/>
	</defs>
	<clipPath id="SVGID_29_">
		<use xlink:href="#SVGID_8_"  overflow="visible"/>
	</clipPath>
	<path clip-path="url(#SVGID_29_)" fill="#FFFFFF" d="M219.035,467.188v-1.477c0-2.34,0.732-10.314,7.224-10.314
		c5.455,0,6.854,5.225,6.854,9.652v2.139H219.035L219.035,467.188z M239.593,472.059v-2.502c0-8.484-1.103-19.029-13.19-19.029
		c-12.16,0-14.083,11.428-14.083,21.32c0,13.564,4.055,20.268,13.723,20.268c10.752,0,13.265-9.809,13.265-14.006h-6.193
		c0,2.941-0.824,9.145-6.711,9.145c-7.584,0-7.584-9.145-7.584-15.195H239.593L239.593,472.059z"/>
</g>
<g>
	<defs>
		<rect id="SVGID_7_" width="426.082" height="536.125"/>
	</defs>
	<clipPath id="SVGID_30_">
		<use xlink:href="#SVGID_7_"  overflow="visible"/>
	</clipPath>
	<path clip-path="url(#SVGID_30_)" fill="#FFFFFF" d="M258.632,455.838c6.634,0,7.957,7.812,7.957,15.492
		c0,8.092-1.323,14.447-8.043,14.447c-6.174,0-7.144-8.043-7.144-14.447C251.404,461.897,252.88,455.838,258.632,455.838
		 M272.408,451.553h-5.896v5.033h-0.152c-0.805-3.105-4.267-6.059-8.551-6.059c-10.02,0-12.886,10.104-12.886,20.803
		c0,5.234,0.729,19.748,12.231,19.748c3.912,0,7.594-1.994,8.916-5.301h0.164v5.166c0,2.723,0.276,8.84-7.688,8.84
		c-3.231,0-6.05-1.4-6.337-5.004h-6.193c1.026,9.873,10.547,9.873,12.961,9.873c7.978,0,13.432-4.275,13.432-16.076V451.553z"/>
</g>
<g>
	<defs>
		<rect id="SVGID_6_" width="426.082" height="536.125"/>
	</defs>
	<clipPath id="SVGID_31_">
		<use xlink:href="#SVGID_6_"  overflow="visible"/>
	</clipPath>
	<path clip-path="url(#SVGID_31_)" fill="#FFFFFF" d="M280.912,491.079h6.191v-39.518h-6.191V491.079z M280.912,445.524h6.191
		v-7.096h-6.191V445.524z"/>
</g>
<g>
	<defs>
		<rect id="SVGID_5_" width="426.082" height="536.125"/>
	</defs>
	<clipPath id="SVGID_32_">
		<use xlink:href="#SVGID_5_"  overflow="visible"/>
	</clipPath>
	<rect x="296.979" y="483.276" clip-path="url(#SVGID_32_)" fill="#FFFFFF" width="6.777" height="7.803"/>
</g>
<g>
	<defs>
		<rect id="SVGID_4_" width="426.082" height="536.125"/>
	</defs>
	<clipPath id="SVGID_33_">
		<use xlink:href="#SVGID_4_"  overflow="visible"/>
	</clipPath>
	<path clip-path="url(#SVGID_33_)" fill="#FFFFFF" d="M313.64,491.079h6.212v-39.518h-6.212V491.079z M313.64,445.524h6.212v-7.096
		h-6.212V445.524z"/>
</g>
<g>
	<defs>
		<rect id="SVGID_3_" width="426.082" height="536.125"/>
	</defs>
	<clipPath id="SVGID_34_">
		<use xlink:href="#SVGID_3_"  overflow="visible"/>
	</clipPath>
	<path clip-path="url(#SVGID_34_)" fill="#FFFFFF" d="M328.317,491.079h6.174v-27.273c0-5.752,4.516-7.967,7.833-7.967
		c5.598,0,5.828,4.947,5.828,7.967v27.273h6.192v-28.021c0-4.631,0-12.529-10.411-12.529c-3.814,0-7.957,2.07-9.566,5.693h-0.153
		v-4.668h-5.896L328.317,491.079L328.317,491.079z"/>
</g>
<g>
	<defs>
		<rect id="SVGID_2_" width="426.082" height="536.125"/>
	</defs>
	<clipPath id="SVGID_35_">
		<use xlink:href="#SVGID_2_"  overflow="visible"/>
	</clipPath>
	<path clip-path="url(#SVGID_35_)" fill="#FFFFFF" d="M364.305,491.079h6.212v-34.646h6.76v-4.879h-6.76v-4.631
		c0-2.73,1.313-3.758,3.979-3.758h2.867v-5.312h-4.497c-5.981,0-8.562,3.098-8.562,9.07v4.629h-5.742v4.881h5.742V491.079z"/>
</g>
<g>
	<defs>
		<rect id="SVGID_1_" width="426.082" height="536.125"/>
	</defs>
	<clipPath id="SVGID_36_">
		<use xlink:href="#SVGID_1_"  overflow="visible"/>
	</clipPath>
	<path clip-path="url(#SVGID_36_)" fill="#FFFFFF" d="M379.634,471.331c0,11.121,2.818,20.783,14.236,20.783
		c11.36,0,14.217-9.662,14.217-20.783c0-11.15-2.79-20.803-14.217-20.803C382.53,450.528,379.634,460.18,379.634,471.331
		 M393.727,487.264c-6.347,0-7.583-7.4-7.583-15.934c0-8.57,1.322-15.934,7.583-15.934c6.635,0,7.899,7.361,7.899,15.934
		C401.626,479.862,400.284,487.264,393.727,487.264"/>
</g>
</svg>
