<?xml version="1.0" encoding="utf-8"?>
<!-- Generator: Adobe Illustrator 13.0.0, SVG Export Plug-In  -->
<!DOCTYPE svg PUBLIC "-//W3C//DTD SVG 1.1//EN" "http://www.w3.org/Graphics/SVG/1.1/DTD/svg11.dtd" [
	<!ENTITY ns_flows "http://ns.adobe.com/Flows/1.0/">
]>
<svg version="1.1"
	 xmlns="http://www.w3.org/2000/svg" xmlns:xlink="http://www.w3.org/1999/xlink" xmlns:a="http://ns.adobe.com/AdobeSVGViewerExtensions/3.0/"
	 x="0px" y="0px" width="426px" height="519px" viewBox="0 3.624 426 519" enable-background="new 0 3.624 426 519"
	 xml:space="preserve">
<defs>
</defs>
<g>
	<defs>
		<rect id="SVGID_16_" width="426.082" height="536.125"/>
	</defs>
	<clipPath id="SVGID_17_">
		<use xlink:href="#SVGID_16_"  overflow="visible"/>
	</clipPath>
	<rect y="3.624" clip-path="url(#SVGID_17_)" fill="#A5C400" width="425.717" height="425.716"/>
</g>
<g>
	<defs>
		<rect id="SVGID_15_" width="426.082" height="536.125"/>
	</defs>
	<clipPath id="SVGID_18_">
		<use xlink:href="#SVGID_15_"  overflow="visible"/>
	</clipPath>
	<path clip-path="url(#SVGID_18_)" d="M0,523.002h425.717V3.624H0 M417.205,420.818H8.522V12.132h408.682L417.205,420.818
		L417.205,420.818z"/>
</g>
<g>
	<defs>
		<rect id="SVGID_14_" width="426.082" height="536.125"/>
	</defs>
	<clipPath id="SVGID_19_">
		<use xlink:href="#SVGID_14_"  overflow="visible"/>
	</clipPath>
	<path clip-path="url(#SVGID_19_)" d="M381.254,20.655v3.159h-6.729v21.33h-3.96v-21.33h-6.739v-3.159H381.254z M408.691,45.144
		h-3.949V25.855h-0.125l-6.777,19.288h-3.24l-6.44-19.288h-0.115v19.289h-3.959V20.655h6.279l6.104,18.219h0.125l5.936-18.219h6.164
		L408.691,45.144L408.691,45.144z"/>
</g>
<g>
	<defs>
		<rect id="SVGID_13_" width="426.082" height="536.125"/>
	</defs>
	<clipPath id="SVGID_20_">
		<use xlink:href="#SVGID_13_"  overflow="visible"/>
	</clipPath>
	<polygon clip-path="url(#SVGID_20_)" fill="#FFFFFF" points="27.039,491.079 34.263,491.079 40.901,458.792 41.045,458.792 
		47.976,491.079 54.759,491.079 64.115,451.553 57.64,451.553 51.523,483.87 51.365,483.87 44.808,451.553 37.512,451.553 
		30.797,483.87 30.653,483.87 24.312,451.553 17.822,451.553 	"/>
</g>
<g>
	<defs>
		<rect id="SVGID_12_" width="426.082" height="536.125"/>
	</defs>
	<clipPath id="SVGID_21_">
		<use xlink:href="#SVGID_12_"  overflow="visible"/>
	</clipPath>
	<polygon clip-path="url(#SVGID_21_)" fill="#FFFFFF" points="74.838,491.079 82.062,491.079 88.7,458.792 88.854,458.792 
		95.785,491.079 102.548,491.079 111.924,451.553 105.434,451.553 99.322,483.87 99.164,483.87 92.597,451.553 85.302,451.553 
		78.596,483.87 78.447,483.87 72.105,451.553 65.621,451.553 	"/>
</g>
<g>
	<defs>
		<rect id="SVGID_11_" width="426.082" height="536.125"/>
	</defs>
	<clipPath id="SVGID_22_">
		<use xlink:href="#SVGID_11_"  overflow="visible"/>
	</clipPath>
	<polygon clip-path="url(#SVGID_22_)" fill="#FFFFFF" points="122.627,491.079 129.855,491.079 136.489,458.792 136.638,458.792 
		143.579,491.079 150.352,491.079 159.718,451.553 153.237,451.553 147.111,483.87 146.963,483.87 140.396,451.553 133.105,451.553 
		126.39,483.87 126.241,483.87 119.9,451.553 113.4,451.553 	"/>
</g>
<g>
	<defs>
		<rect id="SVGID_10_" width="426.082" height="536.125"/>
	</defs>
	<clipPath id="SVGID_23_">
		<use xlink:href="#SVGID_10_"  overflow="visible"/>
	</clipPath>
	<rect x="163.212" y="483.276" clip-path="url(#SVGID_23_)" fill="#FFFFFF" width="6.773" height="7.803"/>
</g>
<g>
	<defs>
		<rect id="SVGID_9_" width="426.082" height="536.125"/>
	</defs>
	<clipPath id="SVGID_24_">
		<use xlink:href="#SVGID_9_"  overflow="visible"/>
	</clipPath>
	<path clip-path="url(#SVGID_24_)" fill="#FFFFFF" d="M185.323,471.331c0-9.012,1.107-15.492,7.972-15.492
		c5.752,0,7.223,6.062,7.223,14.744c0,10.182-1.471,16.221-7.223,16.221C186.661,486.803,185.323,478.991,185.323,471.331
		 M179.504,504.059h6.184v-17.467h0.158c1.4,3.385,4.722,5.521,8.254,5.521c10.248,0,12.908-12.539,12.908-21.531
		c0-11.715-3.533-20.055-12.908-20.055c-4.28,0-7.736,2.961-8.551,5.902H185.4v-4.881h-5.896V504.059z"/>
</g>
<g>
	<defs>
		<rect id="SVGID_8_" width="426.082" height="536.125"/>
	</defs>
	<clipPath id="SVGID_25_">
		<use xlink:href="#SVGID_8_"  overflow="visible"/>
	</clipPath>
	<path clip-path="url(#SVGID_25_)" fill="#FFFFFF" d="M219.035,467.188v-1.477c0-2.34,0.738-10.314,7.224-10.314
		c5.464,0,6.864,5.225,6.864,9.652v2.139H219.035L219.035,467.188z M239.604,472.059v-2.502c0-8.484-1.111-19.029-13.19-19.029
		c-12.165,0-14.092,11.428-14.092,21.32c0,13.564,4.055,20.268,13.728,20.268c10.758,0,13.26-9.809,13.26-14.006h-6.185
		c0,2.941-0.825,9.145-6.711,9.145c-7.595,0-7.595-9.145-7.595-15.195H239.604L239.604,472.059z"/>
</g>
<g>
	<defs>
		<rect id="SVGID_7_" width="426.082" height="536.125"/>
	</defs>
	<clipPath id="SVGID_26_">
		<use xlink:href="#SVGID_7_"  overflow="visible"/>
	</clipPath>
	<path clip-path="url(#SVGID_26_)" fill="#FFFFFF" d="M258.623,455.838c6.645,0,7.967,7.812,7.967,15.492
		c0,8.092-1.322,14.447-8.044,14.447c-6.173,0-7.142-8.043-7.142-14.447C251.404,461.897,252.871,455.838,258.623,455.838
		 M272.408,451.553h-5.887v5.033h-0.152c-0.807-3.105-4.275-6.059-8.553-6.059c-10.026,0-12.895,10.104-12.895,20.803
		c0,5.234,0.729,19.748,12.23,19.748c3.902,0,7.584-1.994,8.927-5.301h0.153v5.166c0,2.723,0.287,8.84-7.688,8.84
		c-3.24,0-6.039-1.4-6.326-5.004h-6.192c1.017,9.873,10.545,9.873,12.961,9.873c7.968,0,13.422-4.275,13.422-16.076V451.553z"/>
</g>
<g>
	<defs>
		<rect id="SVGID_6_" width="426.082" height="536.125"/>
	</defs>
	<clipPath id="SVGID_27_">
		<use xlink:href="#SVGID_6_"  overflow="visible"/>
	</clipPath>
	<path clip-path="url(#SVGID_27_)" fill="#FFFFFF" d="M280.921,491.079h6.175v-39.518h-6.175V491.079z M280.921,445.524h6.175
		v-7.096h-6.175V445.524z"/>
</g>
<g>
	<defs>
		<rect id="SVGID_5_" width="426.082" height="536.125"/>
	</defs>
	<clipPath id="SVGID_28_">
		<use xlink:href="#SVGID_5_"  overflow="visible"/>
	</clipPath>
	<rect x="296.969" y="483.276" clip-path="url(#SVGID_28_)" fill="#FFFFFF" width="6.787" height="7.803"/>
</g>
<g>
	<defs>
		<rect id="SVGID_4_" width="426.082" height="536.125"/>
	</defs>
	<clipPath id="SVGID_29_">
		<use xlink:href="#SVGID_4_"  overflow="visible"/>
	</clipPath>
	<path clip-path="url(#SVGID_29_)" fill="#FFFFFF" d="M313.65,491.079h6.19v-39.518h-6.19V491.079z M313.65,445.524h6.19v-7.096
		h-6.19V445.524z"/>
</g>
<g>
	<defs>
		<rect id="SVGID_3_" width="426.082" height="536.125"/>
	</defs>
	<clipPath id="SVGID_30_">
		<use xlink:href="#SVGID_3_"  overflow="visible"/>
	</clipPath>
	<path clip-path="url(#SVGID_30_)" fill="#FFFFFF" d="M328.317,491.079h6.174v-27.273c0-5.752,4.523-7.967,7.842-7.967
		c5.589,0,5.819,4.947,5.819,7.967v27.273h6.191v-28.021c0-4.631,0-12.527-10.399-12.527c-3.825,0-7.957,2.068-9.577,5.691h-0.163
		v-4.668h-5.887V491.079L328.317,491.079z"/>
</g>
<g>
	<defs>
		<rect id="SVGID_2_" width="426.082" height="536.125"/>
	</defs>
	<clipPath id="SVGID_31_">
		<use xlink:href="#SVGID_2_"  overflow="visible"/>
	</clipPath>
	<path clip-path="url(#SVGID_31_)" fill="#FFFFFF" d="M364.305,491.079h6.212v-34.646h6.771v-4.879h-6.771v-4.631
		c0-2.729,1.323-3.758,3.979-3.758h2.866v-5.312h-4.496c-5.974,0-8.562,3.098-8.562,9.07v4.629h-5.742v4.881h5.742L364.305,491.079
		L364.305,491.079z"/>
</g>
<g>
	<defs>
		<rect id="SVGID_1_" width="426.082" height="536.125"/>
	</defs>
	<clipPath id="SVGID_32_">
		<use xlink:href="#SVGID_1_"  overflow="visible"/>
	</clipPath>
	<path clip-path="url(#SVGID_32_)" fill="#FFFFFF" d="M379.644,471.331c0,11.121,2.818,20.783,14.229,20.783
		c11.36,0,14.227-9.662,14.227-20.783c0-11.15-2.8-20.803-14.227-20.803C382.539,450.528,379.644,460.18,379.644,471.331
		 M393.727,487.264c-6.337,0-7.584-7.4-7.584-15.934c0-8.57,1.323-15.934,7.584-15.934c6.636,0,7.898,7.359,7.898,15.934
		C401.625,479.862,400.293,487.264,393.727,487.264"/>
</g>
<path id="path198_1_" fill="#FFFFFF" d="M119.603,289.448V132.776c0-51.233,46.534-73.429,92.215-73.429
	c55.922,0,86.655,23.483,86.655,75.56v38.007h-70.861v-38.007c0-14.504-2.559-26.887-18.776-26.887
	c-15.792,0-18.359,12.383-18.359,26.887v72.148c14.94-12.381,28.601-20.073,49.518-20.073c32.447,0,58.479,20.073,58.479,58.925
	v50.796c0,58.062-46.097,78.553-84.949,78.553C154.19,375.256,119.603,349.643,119.603,289.448L119.603,289.448z M227.611,312.497
	v-54.632c0-8.972-4.689-15.368-16.646-15.368c-13.233,0-20.49,7.249-20.49,17.063v53.8c0,7.247,5.978,13.233,19.211,13.233
	C221.643,326.592,227.611,320.606,227.611,312.497L227.611,312.497z"/>
</svg>
