<?xml version="1.0" encoding="UTF-8" standalone="no"?>
<svg xmlns="http://www.w3.org/2000/svg" height="527.17999" width="389.51999">
  <g transform="matrix(10,0,0,-10,-4784.82,1353.76)">
    <path d="m478.766 135.093h38.386v-52.152h-38.386v52.152z" fill="#1b1615"/>
    <path d="m516.868 83.224h-37.82v51.587h37.82v-51.587zm0.566 52.152h-0.566-37.819-0.567v-0.566-51.586-0.566h0.567 37.819 0.566v0.566 51.586 0.566z" fill="#fff"/>
    <path d="m514.832 132.88h-33.731v-7.868h33.731v7.868z" fill="#fff"/>
    <path d="m481.165 123.068h33.671v-30.681h-33.671v30.681z" fill="#fff"/>
    <g fill="#fff">
      <path d="m481.2028 85.6895v4.613h6.782v-1.078h-4.059v-0.659h3.434v-1.078h-3.434v-0.722h4.215v-1.076h-6.938z"/>
      <path d="m493.903 88.9597c-0.043 0.156-0.196 0.256-0.393 0.312-0.194 0.058-0.435 0.086-0.705 0.086-0.598 0-0.866-0.097-0.866-0.269 0-0.684 4.781-0.256 4.781-1.933 0-1.07-1.607-1.59-3.891-1.59-2.194 0-3.625 0.71-3.683 1.546h2.608c0.059-0.169 0.222-0.288 0.453-0.364 0.218-0.078 0.505-0.116 0.775-0.116 0.68 0 1.134 0.119 1.134 0.337 0 0.697-4.786 0.218-4.786 1.977 0 0.982 1.526 1.472 3.605 1.472 2.307 0 3.361-0.653 3.558-1.458h-2.59z"/>
      <path d="m500.7988 88.3036h1.072c0.844 0 1.297 0.122 1.297 0.439 0 0.325-0.462 0.482-1.098 0.482h-1.271v-0.921zm0-1.008v-1.606h-2.723v4.613h3.926c2.769 0 3.681-0.422 3.681-1.318 0-0.533-0.424-0.976-1.394-1.131 0.874-0.176 1.407-0.285 1.407-1.217 0-0.601-0.035-0.807 0.287-0.807v-0.14h-2.759c-0.069 0.102-0.138 0.396-0.138 0.807 0 0.606-0.185 0.799-1.455 0.799h-0.832z"/>
      <path d="m510.0818 89.2242v-0.773h1.135c0.542 0 0.937 0.14 0.937 0.405 0 0.359-0.536 0.368-1.109 0.368h-0.963zm0-1.609v-0.849h1.188c0.676 0 1.182 0.077 1.182 0.42 0 0.405-0.633 0.429-1.505 0.429h-0.865zm-2.722-1.926v4.613h3.973c1.873 0 3.361-0.248 3.361-1.163 0-0.476-0.557-0.821-1.086-1.001 0.9-0.129 1.383-0.561 1.383-1.058 0-1.027-1.417-1.391-3.58-1.391h-4.051z"/>
    </g>
    <g fill="#1b1615">
      <path d="m484.0992 131.6945v-3.768c0-0.201-0.02-0.399-0.059-0.592-0.038-0.194-0.102-0.369-0.191-0.523-0.088-0.155-0.206-0.279-0.353-0.375-0.146-0.096-0.327-0.144-0.541-0.144-0.39 0-0.679 0.147-0.867 0.442-0.189 0.294-0.283 0.692-0.283 1.192v3.768h0.706v-3.694c0-0.329 0.039-0.564 0.119-0.703 0.079-0.14 0.183-0.21 0.315-0.21 0.156 0 0.269 0.079 0.341 0.236 0.071 0.156 0.108 0.382 0.108 0.677v3.694h0.705z"/>
      <path d="m486.7201 127.8304c0-0.343-0.035-0.616-0.107-0.82-0.071-0.203-0.164-0.358-0.278-0.464-0.114-0.105-0.24-0.174-0.381-0.206-0.14-0.032-0.278-0.048-0.412-0.048-0.217 0-0.394 0.047-0.529 0.14-0.136 0.094-0.239 0.22-0.311 0.379s-0.118 0.343-0.14 0.552-0.028 0.428-0.019 0.658h0.706c0-0.127 0.002-0.248 0.009-0.36 0.006-0.113 0.022-0.212 0.046-0.298 0.025-0.085 0.066-0.153 0.12-0.203 0.054-0.049 0.13-0.073 0.226-0.073 0.119 0 0.208 0.055 0.266 0.165 0.06 0.111 0.089 0.257 0.089 0.439 0 0.157-0.034 0.294-0.104 0.412-0.071 0.117-0.158 0.229-0.265 0.335-0.105 0.105-0.219 0.21-0.341 0.316-0.122 0.105-0.235 0.228-0.341 0.368s-0.194 0.303-0.264 0.489c-0.069 0.187-0.105 0.413-0.105 0.677 0 0.206 0.018 0.401 0.054 0.582s0.096 0.34 0.18 0.474c0.084 0.135 0.197 0.242 0.341 0.321 0.143 0.078 0.322 0.117 0.537 0.117 0.342 0 0.598-0.128 0.764-0.382 0.167-0.255 0.239-0.661 0.217-1.215h-0.686c0 0.098-0.004 0.195-0.012 0.291-0.008 0.095-0.024 0.181-0.047 0.257-0.023 0.077-0.056 0.138-0.098 0.185-0.042 0.046-0.098 0.069-0.171 0.069-0.115 0-0.204-0.047-0.268-0.142-0.064-0.097-0.096-0.238-0.096-0.424 0-0.168 0.035-0.309 0.105-0.427s0.159-0.226 0.264-0.324c0.106-0.098 0.22-0.198 0.342-0.298 0.121-0.101 0.235-0.219 0.34-0.354 0.107-0.133 0.194-0.296 0.264-0.484 0.07-0.19 0.105-0.424 0.105-0.704"/>
      <path d="m487.1787 126.3809v5.314h1.84v-0.817h-1.135v-1.31h1.047v-0.818h-1.047v-1.552h1.174v-0.817h-1.879z"/>
      <path d="m490.1599 126.3809h-0.705v5.314h1.303c0.243 0 0.436-0.119 0.577-0.354 0.143-0.235 0.213-0.581 0.213-1.038 0-0.337-0.048-0.625-0.143-0.86-0.095-0.236-0.256-0.383-0.484-0.442v-0.015c0.038-0.009 0.091-0.024 0.16-0.043 0.068-0.021 0.136-0.065 0.203-0.133 0.067-0.069 0.125-0.171 0.174-0.306 0.05-0.134 0.076-0.322 0.076-0.563 0-0.083 0-0.201 0.002-0.352 0.002-0.153 0.006-0.309 0.012-0.472 0.005-0.162 0.015-0.311 0.025-0.45 0.011-0.136 0.025-0.232 0.04-0.286h-0.692c-0.046 0.162-0.07 0.331-0.072 0.508-0.001 0.177-0.002 0.35-0.002 0.523 0 0.157-0.001 0.306-0.002 0.448-0.002 0.143-0.017 0.266-0.047 0.372s-0.08 0.19-0.149 0.253c-0.071 0.065-0.173 0.097-0.307 0.097h-0.182v-2.201zm0 3.018h0.314c0.068 0 0.125 0.023 0.173 0.073 0.045 0.049 0.084 0.112 0.111 0.187 0.028 0.077 0.047 0.162 0.059 0.255 0.011 0.092 0.015 0.181 0.015 0.265 0 0.255-0.031 0.434-0.095 0.54s-0.151 0.159-0.263 0.159h-0.314v-1.479z"/>
      <path d="m494.1128 127.8304c0-0.343-0.036-0.616-0.107-0.82-0.072-0.203-0.164-0.358-0.278-0.464-0.115-0.105-0.24-0.174-0.381-0.206-0.14-0.032-0.278-0.048-0.412-0.048-0.218 0-0.395 0.047-0.529 0.14-0.136 0.094-0.24 0.22-0.312 0.379-0.071 0.159-0.117 0.343-0.14 0.552-0.021 0.209-0.028 0.428-0.018 0.658h0.706c0-0.127 0.002-0.248 0.008-0.36 0.007-0.113 0.022-0.212 0.048-0.298 0.024-0.085 0.064-0.153 0.119-0.203 0.054-0.049 0.13-0.073 0.226-0.073 0.119 0 0.207 0.055 0.266 0.165 0.06 0.111 0.089 0.257 0.089 0.439 0 0.157-0.035 0.294-0.105 0.412-0.07 0.117-0.157 0.229-0.265 0.335-0.105 0.105-0.218 0.21-0.34 0.316-0.122 0.105-0.235 0.228-0.341 0.368-0.105 0.14-0.195 0.303-0.264 0.489-0.07 0.187-0.106 0.413-0.106 0.677 0 0.206 0.019 0.401 0.054 0.582 0.036 0.181 0.096 0.34 0.18 0.474 0.085 0.135 0.198 0.242 0.342 0.321 0.143 0.078 0.322 0.117 0.536 0.117 0.343 0 0.598-0.128 0.764-0.382 0.168-0.255 0.24-0.661 0.218-1.215h-0.687c0 0.098-0.004 0.195-0.011 0.291-0.009 0.095-0.023 0.181-0.047 0.257-0.024 0.077-0.056 0.138-0.099 0.185-0.041 0.046-0.098 0.069-0.17 0.069-0.115 0-0.205-0.047-0.269-0.142-0.064-0.097-0.095-0.238-0.095-0.424 0-0.168 0.035-0.309 0.104-0.427 0.071-0.118 0.159-0.226 0.264-0.324 0.106-0.098 0.221-0.198 0.342-0.298 0.122-0.101 0.235-0.219 0.342-0.354 0.105-0.133 0.192-0.296 0.263-0.484 0.071-0.19 0.105-0.424 0.105-0.704"/>
      <path d="m495.562 126.381h0.706v5.314h-0.706v-5.314z"/>
      <path d="m496.8192 126.3809v5.314h0.953l0.897-3.681h0.009v3.681h0.659v-5.314h-0.93l-0.92 3.887h-0.009v-3.887h-0.659z"/>
      <path d="m501.8936 131.6945v-0.884h-0.786v-4.43h-0.705v4.43h-0.785v0.884h2.276z"/>
      <path d="m502.1745 126.3809v5.314h1.84v-0.817h-1.135v-1.31h1.047v-0.818h-1.047v-1.552h1.174v-0.817h-1.879z"/>
      <path d="m505.1556 126.3809h-0.706v5.314h1.304c0.243 0 0.435-0.119 0.577-0.354 0.141-0.235 0.213-0.581 0.213-1.038 0-0.337-0.048-0.625-0.143-0.86-0.095-0.236-0.256-0.383-0.484-0.442v-0.015c0.038-0.009 0.091-0.024 0.16-0.043 0.068-0.021 0.136-0.065 0.203-0.133 0.067-0.069 0.125-0.171 0.175-0.306 0.049-0.134 0.075-0.322 0.075-0.563 0-0.083 0-0.201 0.002-0.352 0.001-0.153 0.005-0.309 0.012-0.472 0.005-0.162 0.014-0.311 0.025-0.45 0.011-0.136 0.024-0.232 0.039-0.286h-0.691c-0.047 0.162-0.071 0.331-0.072 0.508-0.002 0.177-0.002 0.35-0.002 0.523 0 0.157-0.001 0.306-0.002 0.448-0.002 0.143-0.018 0.266-0.048 0.372-0.029 0.106-0.079 0.19-0.149 0.253-0.07 0.065-0.172 0.097-0.306 0.097h-0.182v-2.201zm0 3.018h0.312c0.069 0 0.127 0.023 0.174 0.073 0.046 0.049 0.084 0.112 0.112 0.187 0.028 0.077 0.047 0.162 0.058 0.255 0.011 0.092 0.016 0.181 0.016 0.265 0 0.255-0.031 0.434-0.096 0.54-0.063 0.106-0.152 0.159-0.264 0.159h-0.312v-1.479z"/>
      <path d="m506.7582 126.3809 0.934 5.314h0.93l0.916-5.314h-0.743l-0.187 1.178h-0.962l-0.192-1.178h-0.696zm1.359 4.291h-0.009l-0.323-2.297h0.673l-0.341 2.297z"/>
      <path d="m510.9539 126.2927c-0.289 0-0.513 0.078-0.673 0.232-0.159 0.155-0.274 0.361-0.345 0.618-0.072 0.258-0.114 0.551-0.127 0.879-0.011 0.329-0.018 0.667-0.018 1.016 0 0.354 0.007 0.693 0.018 1.023 0.013 0.328 0.055 0.621 0.127 0.876 0.071 0.254 0.186 0.459 0.345 0.614 0.16 0.154 0.384 0.232 0.673 0.232 0.362 0 0.62-0.15 0.773-0.452 0.154-0.302 0.224-0.741 0.208-1.314h-0.691c0 0.353-0.021 0.603-0.065 0.75s-0.118 0.221-0.225 0.221c-0.099 0-0.178-0.038-0.238-0.113-0.059-0.077-0.104-0.193-0.135-0.35-0.032-0.157-0.052-0.36-0.061-0.608-0.01-0.248-0.014-0.54-0.014-0.879s0.004-0.631 0.014-0.879c0.009-0.248 0.029-0.45 0.061-0.608 0.031-0.157 0.076-0.273 0.135-0.349 0.06-0.076 0.139-0.114 0.238-0.114 0.081 0 0.143 0.037 0.187 0.11 0.043 0.074 0.075 0.165 0.093 0.273 0.019 0.108 0.031 0.224 0.033 0.352 0.003 0.128 0.007 0.243 0.01 0.346h0.696c0-0.353-0.022-0.649-0.066-0.889-0.043-0.241-0.108-0.435-0.196-0.582-0.087-0.147-0.193-0.251-0.32-0.312-0.126-0.062-0.271-0.093-0.437-0.093"/>
      <path d="m514.384 131.6945v-0.884h-0.785v-4.43h-0.706v4.43h-0.784v0.884h2.275z"/>
    </g>
    <g>
      <path d="m500.6696 98.689-5.896 2.555 1.083-2.864-5.687-2.14 0.946-2.69 5.747 2.167 1.046-2.764 2.761 5.736z" fill="#1b1615"/>
      <path d="m502.4896 99.272 2.816 5.692 1.06-2.864 5.707 2.153 1.051-2.648-5.77-2.181 1.024-2.768-5.888 2.616z" fill="#1b1615"/>
      <path d="m501.1665 114.7776-1.408-0.519c-0.99-0.365-1.49-1.452-1.12-2.422l2.844-7.5 12.733 4.829-2.76 7.394c-0.373 0.975-1.478 1.47-2.473 1.104l-1.405-0.521-6.411-2.365z" fill="#1b1615"/>
      <path d="m507.2784 119.0729c0.77-2.008-0.261-4.247-2.306-5.004-2.047-0.755-4.327 0.258-5.098 2.266-0.769 2.007 0.262 4.247 2.306 5.005 2.046 0.756 4.328-0.26 5.098-2.267" fill="#fff"/>
      <path d="m506.2293 120.3845c0.696-1.818-0.234-3.839-2.081-4.523-1.844-0.679-3.904 0.235-4.6 2.046-0.697 1.816 0.237 3.838 2.082 4.52 1.847 0.683 3.905-0.236 4.599-2.043" fill="#1b1615"/>
      <path d="m485.3259 108.9213-1.408-0.524c-0.989-0.366-1.492-1.45-1.117-2.423l2.841-7.496 12.736 4.827-2.764 7.396c-0.374 0.974-1.479 1.47-2.47 1.101l-1.407-0.52-6.411-2.361z" fill="#1b1615"/>
      <path d="m491.4378 113.2139c0.773-2.01-0.262-4.248-2.308-5.006-2.042-0.757-4.325 0.259-5.097 2.267-0.769 2.008 0.263 4.249 2.309 5.005 2.042 0.755 4.326-0.257 5.096-2.266" fill="#fff"/>
      <path d="m490.3915 114.6218c0.694-1.812-0.24-3.834-2.084-4.517-1.846-0.684-3.906 0.231-4.599 2.042-0.697 1.814 0.236 3.837 2.083 4.518 1.843 0.686 3.905-0.232 4.6-2.043" fill="#1b1615"/>
    </g>
    <path d="m510.9238 95.8302v-0.317h-0.712v-2.134h-0.419v2.134h-0.712v0.317h1.843zm2.901-2.451h-0.419v1.931h-0.012l-0.718-1.931h-0.34l-0.682 1.931h-0.013v-1.931h-0.418v2.451h0.664l0.645-1.823h0.013l0.628 1.823h0.652v-2.451z" fill="#1b1615"/>
  </g>
</svg>
