<?xml version="1.0" encoding="UTF-8" standalone="no"?>
<svg xmlns="http://www.w3.org/2000/svg" height="527.17999" width="389.53">
  <g transform="matrix(10,0,0,-10,-3625.61,1353.76)">
    <path d="m362.844 135.093h38.387v-52.153h-38.387v52.153z" fill="#1b1615"/>
    <path d="m400.948 83.224h-37.821v51.587h37.821v-51.587zm0.566 52.152h-0.566-37.821-0.566v-0.566-51.586-0.566h0.566 37.821 0.566v0.566 51.586 0.566z" fill="#fff"/>
    <path d="m398.911 132.88h-33.731v-7.868h33.731v7.868z" fill="#fff"/>
    <path d="m365.245 123.068h33.669v-30.681h-33.669v30.681z" fill="#fff"/>
    <g fill="#fff">
      <path d="m365.2817 85.6901v4.613h6.782v-1.079h-4.058v-0.658h3.434v-1.078h-3.434v-0.722h4.215v-1.076h-6.939z"/>
      <path d="m377.9828 88.9596c-0.043 0.156-0.196 0.256-0.393 0.312-0.194 0.058-0.435 0.086-0.704 0.086-0.6 0-0.867-0.097-0.867-0.268 0-0.684 4.781-0.256 4.781-1.934 0-1.069-1.607-1.59-3.891-1.59-2.194 0-3.626 0.711-3.684 1.546h2.609c0.059-0.169 0.221-0.288 0.452-0.364 0.219-0.077 0.504-0.116 0.776-0.116 0.68 0 1.133 0.119 1.133 0.338 0 0.697-4.785 0.217-4.785 1.977 0 0.981 1.526 1.471 3.605 1.471 2.307 0 3.359-0.653 3.558-1.458h-2.59z"/>
      <path d="m384.8782 88.3042h1.073c0.843 0 1.296 0.121 1.296 0.438 0 0.326-0.461 0.482-1.099 0.482h-1.27v-0.92zm0-1.008v-1.606h-2.724v4.613h3.927c2.769 0 3.681-0.422 3.681-1.319 0-0.533-0.424-0.975-1.393-1.13 0.874-0.177 1.406-0.286 1.406-1.217 0-0.601-0.035-0.807 0.288-0.807v-0.14h-2.76c-0.068 0.102-0.137 0.396-0.137 0.807 0 0.606-0.186 0.799-1.455 0.799h-0.833z"/>
      <path d="m394.1614 89.2241v-0.773h1.134c0.542 0 0.938 0.141 0.938 0.405 0 0.359-0.537 0.368-1.11 0.368h-0.962zm0-1.608v-0.85h1.187c0.677 0 1.184 0.078 1.184 0.421 0 0.404-0.634 0.429-1.506 0.429h-0.865zm-2.723-1.926v4.613h3.973c1.874 0 3.362-0.249 3.362-1.164 0-0.475-0.556-0.82-1.086-1 0.899-0.129 1.382-0.562 1.382-1.058 0-1.027-1.417-1.391-3.579-1.391h-4.052z"/>
    </g>
    <g fill="#1b1615">
      <path d="m368.5075 127.7813c0-0.344-0.045-0.618-0.135-0.821s-0.207-0.358-0.349-0.464c-0.144-0.105-0.303-0.173-0.479-0.206-0.177-0.031-0.349-0.047-0.517-0.047-0.274 0-0.496 0.047-0.666 0.139-0.171 0.094-0.301 0.22-0.391 0.379-0.09 0.16-0.149 0.344-0.176 0.552-0.028 0.209-0.035 0.428-0.023 0.659h0.886c0-0.127 0.004-0.248 0.011-0.36 0.008-0.113 0.029-0.213 0.059-0.299 0.032-0.086 0.082-0.153 0.15-0.202s0.163-0.074 0.284-0.074c0.15 0 0.261 0.056 0.336 0.166 0.074 0.11 0.111 0.256 0.111 0.439 0 0.155-0.044 0.293-0.132 0.41-0.088 0.119-0.199 0.231-0.332 0.337-0.133 0.104-0.276 0.209-0.428 0.315-0.153 0.106-0.296 0.229-0.428 0.368-0.134 0.141-0.245 0.303-0.333 0.489-0.088 0.187-0.131 0.412-0.131 0.678 0 0.205 0.022 0.399 0.067 0.581s0.119 0.339 0.226 0.474c0.106 0.136 0.248 0.242 0.428 0.32 0.181 0.08 0.406 0.119 0.676 0.119 0.43 0 0.75-0.128 0.96-0.383 0.209-0.256 0.301-0.66 0.272-1.215h-0.862c0 0.099-0.006 0.196-0.015 0.291-0.01 0.096-0.029 0.181-0.059 0.258-0.029 0.076-0.07 0.137-0.123 0.185-0.053 0.045-0.124 0.069-0.215 0.069-0.144 0-0.257-0.048-0.337-0.144-0.081-0.095-0.12-0.237-0.12-0.423 0-0.167 0.044-0.309 0.132-0.426 0.088-0.119 0.198-0.226 0.331-0.325 0.134-0.098 0.276-0.197 0.429-0.298 0.153-0.1 0.296-0.218 0.429-0.353s0.244-0.297 0.332-0.485c0.087-0.189 0.132-0.424 0.132-0.703"/>
      <path d="m371.0738 129.5172v2.127h0.886v-5.313h-0.886v2.369h-1.017v-2.369h-0.886v5.313h0.886v-2.127h1.017z"/>
      <path d="m372.4065 126.3311 1.174 5.313h1.169l1.151-5.313h-0.934l-0.235 1.177h-1.21l-0.24-1.177h-0.875zm1.709 4.291h-0.012l-0.405-2.296h0.845l-0.428 2.296z"/>
      <path d="m377.1863 126.3311h-0.887v5.313h1.638c0.306 0 0.547-0.118 0.726-0.353 0.178-0.236 0.267-0.581 0.267-1.037 0-0.338-0.06-0.626-0.18-0.861-0.118-0.236-0.322-0.383-0.607-0.442v-0.015c0.048-0.01 0.113-0.025 0.2-0.044 0.085-0.019 0.17-0.064 0.255-0.132 0.084-0.068 0.157-0.171 0.22-0.306 0.062-0.135 0.094-0.322 0.094-0.563 0-0.083 0.001-0.201 0.003-0.354 0.002-0.151 0.007-0.309 0.015-0.47 0.008-0.162 0.018-0.312 0.032-0.449 0.013-0.137 0.031-0.233 0.05-0.287h-0.869c-0.059 0.163-0.089 0.331-0.091 0.508-0.003 0.177-0.003 0.351-0.003 0.523 0 0.156-0.001 0.306-0.003 0.449-0.002 0.142-0.022 0.265-0.059 0.371s-0.099 0.19-0.188 0.254c-0.088 0.063-0.216 0.095-0.384 0.095h-0.229v-2.2zm0 3.017h0.393c0.086 0 0.158 0.025 0.217 0.074s0.107 0.112 0.141 0.187c0.036 0.077 0.06 0.162 0.074 0.254 0.013 0.094 0.021 0.182 0.021 0.265 0 0.255-0.041 0.435-0.121 0.541s-0.191 0.159-0.332 0.159h-0.393v-1.48z"/>
      <path d="m379.5817 126.3311v5.313h2.314v-0.816h-1.427v-1.311h1.315v-0.817h-1.315v-1.552h1.474v-0.817h-2.361z"/>
      <path d="m385.1492 127.7813c0-0.344-0.046-0.618-0.135-0.821-0.09-0.203-0.207-0.358-0.35-0.464-0.142-0.105-0.302-0.173-0.478-0.206-0.177-0.031-0.349-0.047-0.517-0.047-0.275 0-0.496 0.047-0.667 0.139-0.17 0.094-0.3 0.22-0.39 0.379-0.09 0.16-0.149 0.344-0.176 0.552-0.028 0.209-0.035 0.428-0.024 0.659h0.887c0-0.127 0.004-0.248 0.012-0.36 0.008-0.113 0.027-0.213 0.058-0.299s0.081-0.153 0.15-0.202c0.068-0.049 0.163-0.074 0.284-0.074 0.149 0 0.261 0.056 0.336 0.166 0.074 0.11 0.112 0.256 0.112 0.439 0 0.155-0.045 0.293-0.133 0.41-0.088 0.119-0.199 0.231-0.332 0.337-0.132 0.104-0.276 0.209-0.429 0.315-0.152 0.106-0.295 0.229-0.428 0.368-0.133 0.141-0.244 0.303-0.331 0.489-0.089 0.187-0.132 0.412-0.132 0.678 0 0.205 0.022 0.399 0.067 0.581s0.119 0.339 0.226 0.474c0.105 0.136 0.248 0.242 0.428 0.32 0.181 0.08 0.406 0.119 0.676 0.119 0.431 0 0.75-0.128 0.959-0.383 0.21-0.256 0.301-0.66 0.274-1.215h-0.863c0 0.099-0.006 0.196-0.015 0.291-0.01 0.096-0.03 0.181-0.059 0.258-0.03 0.076-0.07 0.137-0.123 0.185-0.054 0.045-0.125 0.069-0.215 0.069-0.144 0-0.257-0.048-0.337-0.144-0.081-0.095-0.12-0.237-0.12-0.423 0-0.167 0.043-0.309 0.131-0.426 0.089-0.119 0.199-0.226 0.332-0.325 0.134-0.098 0.276-0.197 0.429-0.298 0.153-0.1 0.295-0.218 0.429-0.353 0.133-0.135 0.244-0.297 0.332-0.485 0.088-0.189 0.132-0.424 0.132-0.703"/>
      <path d="m387.085 126.331h0.887v5.313h-0.887v-5.313z"/>
      <path d="m388.7245 126.3311v5.313h1.198l1.127-3.68h0.012v3.68h0.828v-5.313h-1.169l-1.156 3.886h-0.012v-3.886h-0.828z"/>
      <path d="m392.6176 126.3311v5.313h2.202v-0.816h-1.315v-1.362h1.256v-0.817h-1.256v-2.318h-0.887z"/>
      <path d="m396.6638 126.2429c-0.365 0-0.647 0.077-0.846 0.232-0.2 0.154-0.345 0.361-0.434 0.618-0.091 0.258-0.144 0.55-0.159 0.88-0.016 0.328-0.023 0.667-0.023 1.016 0 0.353 0.007 0.693 0.023 1.022 0.015 0.328 0.068 0.62 0.159 0.876 0.089 0.254 0.234 0.46 0.434 0.614 0.199 0.155 0.481 0.232 0.846 0.232 0.364 0 0.645-0.077 0.845-0.232 0.2-0.154 0.345-0.36 0.434-0.614 0.091-0.256 0.144-0.548 0.159-0.876 0.016-0.329 0.024-0.669 0.024-1.022 0-0.349-0.008-0.688-0.024-1.016-0.015-0.33-0.068-0.622-0.159-0.88-0.089-0.257-0.234-0.464-0.434-0.618-0.2-0.155-0.481-0.232-0.845-0.232m0 0.794c0.125 0 0.225 0.039 0.299 0.115 0.075 0.076 0.132 0.192 0.17 0.35 0.039 0.157 0.065 0.359 0.077 0.607 0.012 0.247 0.017 0.54 0.017 0.88 0 0.338-0.005 0.631-0.017 0.878-0.012 0.248-0.038 0.451-0.077 0.608-0.038 0.156-0.095 0.272-0.17 0.349-0.074 0.076-0.174 0.114-0.299 0.114-0.126 0-0.226-0.038-0.3-0.114-0.074-0.077-0.131-0.193-0.17-0.349-0.039-0.157-0.065-0.36-0.077-0.608-0.011-0.247-0.017-0.54-0.017-0.878 0-0.34 0.006-0.633 0.017-0.88 0.012-0.248 0.038-0.45 0.077-0.607 0.039-0.158 0.096-0.274 0.17-0.35s0.174-0.115 0.3-0.115"/>
    </g>
    <g>
      <path d="m389.3918 121.2294-22.154-9.179c-1.286-0.533-1.898-2.012-1.367-3.3l5.566-13.436c0.534-1.287 2.015-1.898 3.301-1.367l22.151 9.178c1.287 0.53 1.9 2.014 1.366 3.299l-5.567 13.434c-0.531 1.289-2.011 1.901-3.296 1.371" fill="#1b1615"/>
      <path d="m395.9113 106.0506c0.24-0.574-0.035-1.232-0.607-1.473l-20.474-8.48c-0.574-0.238-1.234 0.034-1.473 0.609l-5.143 12.419c-0.239 0.57 0.036 1.232 0.609 1.47l20.475 8.48c0.573 0.24 1.233-0.033 1.47-0.609l5.143-12.416z" fill="#fff"/>
      <path d="m383.8387 103.4003c0.246-0.592-0.033-1.27-0.624-1.514l-7.259-3.005c-0.592-0.248-1.268 0.033-1.514 0.623l-3.491 8.425c-0.244 0.593 0.038 1.273 0.627 1.515l7.259 3.007c0.591 0.247 1.267-0.035 1.514-0.626l3.488-8.425z" fill="#c9edf5"/>
      <path d="m384.2231 103.2083c0.265-0.638-0.039-1.372-0.677-1.639l-7.841-3.247c-0.637-0.264-1.37 0.041-1.635 0.678l-3.771 9.101c-0.267 0.641 0.038 1.375 0.676 1.638l7.839 3.248c0.642 0.267 1.373-0.036 1.638-0.675l3.771-9.104z" fill="#1b1615"/>
      <path d="m383.1368 111.8925 6.88 2.851c0.321 0.131 0.471 0.496 0.34 0.815-0.133 0.318-0.498 0.471-0.816 0.339l-6.881-2.851c-0.321-0.132-0.469-0.498-0.338-0.816 0.13-0.321 0.497-0.471 0.815-0.338" fill="#1b1615"/>
      <path d="m384.1978 109.3351 6.878 2.851c0.317 0.134 0.469 0.496 0.339 0.816-0.132 0.321-0.498 0.473-0.818 0.341l-6.88-2.852c-0.32-0.133-0.469-0.5-0.337-0.816 0.134-0.318 0.498-0.47 0.818-0.34" fill="#1b1615"/>
      <path d="m385.2537 106.7819 6.882 2.851c0.319 0.13 0.469 0.496 0.336 0.811-0.131 0.324-0.497 0.475-0.815 0.343l-6.88-2.853c-0.32-0.128-0.471-0.497-0.337-0.814 0.132-0.321 0.495-0.47 0.814-0.338" fill="#1b1615"/>
      <path d="m386.326 104.1965 6.88 2.851c0.318 0.134 0.469 0.496 0.339 0.817-0.134 0.318-0.499 0.471-0.817 0.339l-6.882-2.851c-0.32-0.132-0.47-0.498-0.338-0.817 0.134-0.32 0.496-0.47 0.818-0.339" fill="#1b1615"/>
      <path d="m376.1304 103.6559-0.746-0.308c-0.524-0.214-0.771-0.82-0.554-1.345l1.644-3.977 6.806 2.794-1.655 3.998c-0.221 0.523-0.821 0.776-1.349 0.559l-0.747-0.312-3.399-1.409z" fill="#fff"/>
      <path d="m378.4581 107.9764c-0.421 1.014-1.584 1.495-2.602 1.074-1.016-0.42-1.498-1.584-1.078-2.6 0.421-1.016 1.585-1.5 2.603-1.078 1.015 0.423 1.497 1.586 1.077 2.604" fill="#fff"/>
    </g>
    <g transform="translate(395.0034,95.8307)">
      <path d="m0 0v-0.317h-0.712v-2.134h-0.419v2.134h-0.712v0.317h1.843zm2.901-2.451h-0.419v1.93h-0.012l-0.718-1.93h-0.34l-0.682 1.93h-0.013v-1.93h-0.419v2.451h0.665l0.645-1.823h0.013l0.628 1.823h0.652v-2.451z" fill="#1b1615"/>
    </g>
  </g>
</svg>
