<?xml version="1.0" encoding="UTF-8" standalone="no"?>
<svg xmlns="http://www.w3.org/2000/svg" height="527.17999" width="389.53">
  <g transform="matrix(10,0,0,-10,-4205.22,1353.76)">
    <path d="m420.804 135.093h38.387v-52.152h-38.387v52.152z" fill="#1b1615"/>
    <path d="m458.909 83.224h-37.821v51.587h37.821v-51.587zm0.566 52.152h-0.566-37.822-0.565v-0.566-51.586-0.566h0.565 37.822 0.566v0.566 51.586 0.566z" fill="#fff"/>
    <path d="m456.872 132.88h-33.731v-7.868h33.731v7.868z" fill="#fff"/>
    <path d="m423.204 123.068h33.671v-30.681h-33.671v30.681z" fill="#fff"/>
    <g fill="#fff">
      <path d="m423.2422 85.6895v4.614h6.781v-1.079h-4.057v-0.659h3.434v-1.077h-3.434v-0.722h4.215v-1.077h-6.939z"/>
      <path d="m435.9427 88.9597c-0.043 0.156-0.195 0.256-0.393 0.312-0.193 0.058-0.435 0.086-0.704 0.086-0.599 0-0.867-0.097-0.867-0.269 0-0.683 4.781-0.256 4.781-1.933 0-1.07-1.607-1.59-3.89-1.59-2.195 0-3.627 0.71-3.684 1.546h2.609c0.059-0.169 0.22-0.288 0.452-0.364 0.218-0.078 0.504-0.116 0.775-0.116 0.681 0 1.134 0.119 1.134 0.337 0 0.697-4.786 0.218-4.786 1.978 0 0.981 1.526 1.471 3.605 1.471 2.308 0 3.36-0.653 3.558-1.458h-2.59z"/>
      <path d="m442.8389 88.3043h1.072c0.843 0 1.297 0.121 1.297 0.438 0 0.326-0.462 0.482-1.098 0.482h-1.271v-0.92zm0-1.009v-1.606h-2.724v4.614h3.927c2.769 0 3.68-0.422 3.68-1.319 0-0.533-0.423-0.975-1.393-1.13 0.874-0.177 1.407-0.286 1.407-1.218 0-0.6-0.035-0.806 0.289-0.806v-0.141h-2.761c-0.069 0.103-0.138 0.397-0.138 0.807 0 0.607-0.185 0.799-1.455 0.799h-0.832z"/>
      <path d="m452.1216 89.2242v-0.773h1.135c0.541 0 0.937 0.14 0.937 0.405 0 0.359-0.536 0.368-1.11 0.368h-0.962zm0-1.609v-0.849h1.188c0.676 0 1.182 0.078 1.182 0.421 0 0.404-0.633 0.428-1.505 0.428h-0.865zm-2.722-1.926v4.614h3.973c1.873 0 3.361-0.249 3.361-1.164 0-0.475-0.556-0.821-1.085-1.001 0.899-0.129 1.382-0.561 1.382-1.058 0-1.026-1.417-1.391-3.58-1.391h-4.051z"/>
    </g>
    <g fill="#1b1615">
      <path d="m425.9452 127.7976c0-0.343-0.034-0.616-0.103-0.819-0.07-0.205-0.159-0.36-0.269-0.464-0.11-0.107-0.233-0.175-0.367-0.207-0.136-0.032-0.269-0.048-0.398-0.048-0.211 0-0.382 0.047-0.512 0.14-0.131 0.093-0.231 0.219-0.3 0.38-0.069 0.158-0.115 0.343-0.135 0.552-0.022 0.208-0.028 0.428-0.019 0.659h0.682c0-0.128 0.003-0.249 0.009-0.362 0.005-0.113 0.021-0.212 0.045-0.297 0.024-0.087 0.062-0.155 0.115-0.203 0.053-0.049 0.126-0.074 0.219-0.074 0.114 0 0.2 0.055 0.257 0.165 0.057 0.112 0.085 0.258 0.085 0.439 0 0.157-0.033 0.294-0.1 0.412-0.069 0.118-0.153 0.229-0.256 0.335s-0.212 0.211-0.329 0.317c-0.117 0.104-0.227 0.228-0.329 0.367-0.102 0.14-0.188 0.304-0.256 0.49-0.067 0.187-0.101 0.413-0.101 0.678 0 0.206 0.017 0.4 0.052 0.581 0.034 0.182 0.092 0.34 0.174 0.475 0.081 0.135 0.191 0.242 0.329 0.32 0.138 0.079 0.311 0.118 0.519 0.118 0.331 0 0.577-0.128 0.738-0.383 0.16-0.255 0.231-0.66 0.21-1.214h-0.664c0 0.097-0.004 0.195-0.011 0.291-0.007 0.095-0.022 0.181-0.045 0.257s-0.055 0.137-0.095 0.184c-0.041 0.047-0.095 0.07-0.164 0.07-0.112 0-0.198-0.047-0.26-0.143s-0.092-0.237-0.092-0.424c0-0.167 0.033-0.309 0.101-0.427s0.153-0.225 0.255-0.323c0.102-0.099 0.212-0.198 0.33-0.299 0.117-0.101 0.226-0.218 0.329-0.353 0.102-0.135 0.187-0.297 0.255-0.486 0.067-0.189 0.101-0.424 0.101-0.704"/>
      <path d="m427.7512 129.5356v2.128h0.682v-5.315h-0.682v2.37h-0.781v-2.37h-0.681v5.315h0.681v-2.128h0.781z"/>
      <path d="m428.6079 126.3488 0.902 5.315h0.899l0.884-5.315h-0.718l-0.179 1.178h-0.931l-0.184-1.178h-0.673zm1.314 4.291h-0.01l-0.311-2.297h0.65l-0.329 2.297z"/>
      <path d="m432.1142 126.3488h-0.681v5.315h1.259c0.235 0 0.421-0.118 0.558-0.353 0.136-0.237 0.205-0.583 0.205-1.038 0-0.339-0.046-0.626-0.138-0.862-0.091-0.235-0.247-0.383-0.467-0.442v-0.015c0.036-0.009 0.088-0.024 0.154-0.044 0.066-0.019 0.131-0.063 0.196-0.131 0.064-0.071 0.121-0.171 0.169-0.307 0.048-0.135 0.072-0.323 0.072-0.563 0-0.083 0.001-0.201 0.002-0.353 0.002-0.152 0.005-0.309 0.012-0.472 0.006-0.162 0.014-0.311 0.025-0.449 0.01-0.136 0.023-0.233 0.037-0.286h-0.667c-0.045 0.161-0.068 0.331-0.071 0.508 0 0.175-0.002 0.35-0.002 0.523 0 0.156 0 0.305-0.002 0.448-0.001 0.142-0.017 0.266-0.045 0.372-0.029 0.105-0.076 0.19-0.144 0.255-0.068 0.063-0.166 0.095-0.296 0.095h-0.176v-2.201zm0 3.017h0.302c0.067 0 0.123 0.026 0.168 0.075 0.045 0.048 0.08 0.111 0.108 0.186 0.027 0.076 0.046 0.161 0.056 0.255 0.01 0.093 0.016 0.181 0.016 0.265 0 0.255-0.03 0.436-0.092 0.541s-0.147 0.159-0.256 0.159h-0.302v-1.481z"/>
      <path d="m433.7879 126.3488v5.315h1.779v-0.817h-1.097v-1.311h1.01v-0.817h-1.01v-1.553h1.133v-0.817h-1.815z"/>
      <path d="m437.8994 127.7976c0-0.343-0.034-0.616-0.103-0.819-0.07-0.205-0.159-0.36-0.269-0.464-0.11-0.107-0.232-0.175-0.367-0.207-0.136-0.032-0.269-0.048-0.398-0.048-0.211 0-0.382 0.047-0.512 0.14-0.131 0.093-0.231 0.219-0.3 0.38-0.069 0.158-0.115 0.343-0.135 0.552-0.022 0.208-0.028 0.428-0.019 0.659h0.682c0-0.128 0.003-0.249 0.009-0.362s0.021-0.212 0.045-0.297c0.024-0.087 0.062-0.155 0.115-0.203 0.053-0.049 0.126-0.074 0.219-0.074 0.114 0 0.2 0.055 0.257 0.165 0.057 0.112 0.085 0.258 0.085 0.439 0 0.157-0.033 0.294-0.1 0.412-0.069 0.118-0.154 0.229-0.256 0.335-0.103 0.106-0.212 0.211-0.329 0.317-0.117 0.104-0.227 0.228-0.33 0.367-0.101 0.14-0.187 0.304-0.254 0.49-0.068 0.187-0.102 0.413-0.102 0.678 0 0.206 0.017 0.4 0.052 0.581 0.034 0.182 0.093 0.34 0.174 0.475s0.191 0.242 0.329 0.32c0.138 0.079 0.312 0.118 0.519 0.118 0.331 0 0.577-0.128 0.738-0.383s0.231-0.66 0.21-1.214h-0.664c0 0.097-0.004 0.195-0.011 0.291-0.007 0.095-0.022 0.181-0.045 0.257s-0.054 0.137-0.095 0.184c-0.04 0.047-0.095 0.07-0.164 0.07-0.112 0-0.198-0.047-0.26-0.143s-0.092-0.237-0.092-0.424c0-0.167 0.033-0.309 0.101-0.427s0.153-0.225 0.255-0.323c0.103-0.099 0.212-0.198 0.329-0.299 0.118-0.101 0.227-0.218 0.33-0.353 0.102-0.135 0.187-0.297 0.255-0.486s0.101-0.424 0.101-0.704"/>
      <path d="m439.0585 126.3488v5.315h0.682v-4.433h1.02v-0.882h-1.702z"/>
      <path d="m441.9836 126.2592c-0.28 0-0.497 0.077-0.651 0.232-0.153 0.155-0.264 0.361-0.333 0.619-0.069 0.257-0.111 0.551-0.122 0.88-0.012 0.328-0.018 0.668-0.018 1.015 0 0.354 0.006 0.695 0.018 1.023 0.011 0.33 0.053 0.621 0.122 0.876 0.069 0.256 0.18 0.461 0.333 0.615 0.154 0.155 0.371 0.232 0.651 0.232s0.496-0.077 0.65-0.232c0.153-0.154 0.264-0.359 0.333-0.615 0.069-0.255 0.11-0.546 0.122-0.876 0.012-0.328 0.018-0.669 0.018-1.023 0-0.347-0.006-0.687-0.018-1.015-0.012-0.329-0.053-0.623-0.122-0.88-0.069-0.258-0.18-0.464-0.333-0.619-0.154-0.155-0.37-0.232-0.65-0.232m0 0.796c0.096 0 0.173 0.037 0.23 0.114 0.056 0.076 0.1 0.192 0.131 0.35 0.03 0.156 0.049 0.359 0.058 0.607s0.014 0.541 0.014 0.879c0 0.34-0.005 0.633-0.014 0.881-0.009 0.247-0.028 0.45-0.058 0.606-0.031 0.157-0.075 0.274-0.131 0.35-0.057 0.076-0.134 0.114-0.23 0.114-0.097 0-0.173-0.038-0.231-0.114-0.056-0.076-0.101-0.193-0.13-0.35-0.031-0.156-0.05-0.359-0.059-0.606-0.009-0.248-0.014-0.541-0.014-0.881 0-0.338 0.005-0.631 0.014-0.879s0.028-0.451 0.059-0.607c0.029-0.158 0.074-0.274 0.13-0.35 0.058-0.077 0.134-0.114 0.231-0.114"/>
      <path d="m444.5741 126.2592c-0.28 0-0.496 0.077-0.65 0.232-0.153 0.155-0.265 0.361-0.334 0.619-0.069 0.257-0.11 0.551-0.121 0.88-0.013 0.328-0.019 0.668-0.019 1.015 0 0.354 0.006 0.695 0.019 1.023 0.011 0.33 0.052 0.621 0.121 0.876 0.069 0.256 0.181 0.461 0.334 0.615 0.154 0.155 0.37 0.232 0.65 0.232 0.348 0 0.597-0.151 0.746-0.453 0.15-0.301 0.216-0.74 0.202-1.314h-0.669c0 0.354-0.021 0.604-0.063 0.751s-0.114 0.221-0.216 0.221c-0.097 0-0.173-0.038-0.231-0.114-0.057-0.076-0.1-0.193-0.131-0.35-0.029-0.156-0.049-0.359-0.057-0.606-0.01-0.248-0.015-0.541-0.015-0.881 0-0.338 0.005-0.631 0.015-0.879 0.008-0.248 0.028-0.451 0.057-0.607 0.031-0.158 0.074-0.274 0.131-0.35 0.058-0.077 0.134-0.114 0.231-0.114 0.078 0 0.138 0.036 0.18 0.11 0.042 0.073 0.073 0.164 0.09 0.272 0.018 0.108 0.029 0.226 0.032 0.353 0.003 0.128 0.006 0.244 0.009 0.347h0.672c0-0.353-0.021-0.651-0.063-0.89-0.041-0.241-0.105-0.436-0.189-0.583s-0.188-0.251-0.309-0.312c-0.122-0.062-0.263-0.093-0.422-0.093"/>
      <path d="m445.5761 126.3488 0.902 5.315h0.898l0.885-5.315h-0.718l-0.18 1.178h-0.93l-0.185-1.178h-0.672zm1.313 4.291h-0.009l-0.311-2.297h0.649l-0.329 2.297z"/>
      <path d="m450.0829 131.6638v-0.884h-0.757v-4.431h-0.682v4.431h-0.758v0.884h2.197z"/>
      <path d="m450.232 126.349h0.682v5.314h-0.682v-5.314z"/>
      <path d="m452.4127 126.2592c-0.28 0-0.497 0.077-0.651 0.232-0.153 0.155-0.264 0.361-0.333 0.619-0.069 0.257-0.11 0.551-0.122 0.88-0.011 0.328-0.018 0.668-0.018 1.015 0 0.354 0.007 0.695 0.018 1.023 0.012 0.33 0.053 0.621 0.122 0.876 0.069 0.256 0.18 0.461 0.333 0.615 0.154 0.155 0.371 0.232 0.651 0.232s0.495-0.077 0.649-0.232c0.154-0.154 0.265-0.359 0.334-0.615 0.069-0.255 0.11-0.546 0.122-0.876 0.012-0.328 0.019-0.669 0.019-1.023 0-0.347-0.007-0.687-0.019-1.015-0.012-0.329-0.053-0.623-0.122-0.88-0.069-0.258-0.18-0.464-0.334-0.619s-0.369-0.232-0.649-0.232m0 0.796c0.096 0 0.173 0.037 0.23 0.114 0.056 0.076 0.1 0.192 0.131 0.35 0.029 0.156 0.05 0.359 0.059 0.607s0.013 0.541 0.013 0.879c0 0.34-0.004 0.633-0.013 0.881-0.009 0.247-0.03 0.45-0.059 0.606-0.031 0.157-0.075 0.274-0.131 0.35-0.057 0.076-0.134 0.114-0.23 0.114-0.097 0-0.173-0.038-0.231-0.114-0.057-0.076-0.1-0.193-0.13-0.35-0.031-0.156-0.05-0.359-0.059-0.606-0.009-0.248-0.014-0.541-0.014-0.881 0-0.338 0.005-0.631 0.014-0.879s0.028-0.451 0.059-0.607c0.03-0.158 0.073-0.274 0.13-0.35 0.058-0.077 0.134-0.114 0.231-0.114"/>
      <path d="m453.9149 126.3488v5.315h0.921l0.866-3.682h0.008v3.682h0.637v-5.315h-0.898l-0.889 3.886h-0.009v-3.886h-0.636z"/>
    </g>
    <g>
      <path d="m445.822 90.73h-1.49v33.44h1.49v-33.44z" fill="#1b1615"/>
      <path d="m457.132 113.896h-34.027v1.491h34.027v-1.491z" fill="#1b1615"/>
      <path d="m457.212 105.512h-34.058v1.491h34.058v-1.491z" fill="#1b1615"/>
      <path d="m445.0369 94.4763h-10.058c-1.948 0-4.845 1.158-4.845 4.346v7.081h1.49v-7.081c0-2.259 2.192-2.857 3.355-2.857h10.058v-1.489z" fill="#1b1615"/>
      <path d="m446.279 114.7844c0-0.67-0.543-1.214-1.212-1.214-0.67 0-1.214 0.544-1.214 1.214 0 0.669 0.544 1.212 1.214 1.212 0.669 0 1.212-0.543 1.212-1.212" fill="#fff"/>
      <path d="m445.0666 113.1688c-0.891 0-1.614 0.725-1.614 1.616 0 0.889 0.723 1.612 1.614 1.612 0.889 0 1.613-0.723 1.613-1.612 0-0.891-0.724-1.616-1.613-1.616m0 2.426c-0.448 0-0.812-0.364-0.812-0.81 0-0.45 0.364-0.813 0.812-0.813s0.812 0.363 0.812 0.813c0 0.446-0.364 0.81-0.812 0.81" fill="#1b1615"/>
      <path d="m446.279 106.2149c0-0.672-0.543-1.214-1.212-1.214-0.67 0-1.214 0.542-1.214 1.214 0 0.668 0.544 1.212 1.214 1.212 0.669 0 1.212-0.544 1.212-1.212" fill="#fff"/>
      <path d="m445.0666 104.5993c-0.891 0-1.614 0.724-1.614 1.616 0 0.889 0.723 1.614 1.614 1.614 0.889 0 1.613-0.725 1.613-1.614 0-0.892-0.724-1.616-1.613-1.616m0 2.428c-0.448 0-0.812-0.366-0.812-0.812 0-0.448 0.364-0.812 0.812-0.812s0.812 0.364 0.812 0.812c0 0.446-0.364 0.812-0.812 0.812" fill="#1b1615"/>
      <path d="m432.1699 106.2149c0-0.672-0.543-1.214-1.213-1.214-0.669 0-1.215 0.542-1.215 1.214 0 0.668 0.546 1.212 1.215 1.212 0.67 0 1.213-0.544 1.213-1.212" fill="#fff"/>
      <path d="m430.9568 104.5993c-0.892 0-1.615 0.724-1.615 1.616 0 0.889 0.723 1.614 1.615 1.614 0.889 0 1.614-0.725 1.614-1.614 0-0.892-0.725-1.616-1.614-1.616m0 2.428c-0.449 0-0.813-0.366-0.813-0.812 0-0.448 0.364-0.812 0.813-0.812 0.447 0 0.811 0.364 0.811 0.812 0 0.446-0.364 0.812-0.811 0.812" fill="#1b1615"/>
      <path d="m446.4655 95.3764c0-0.669-0.544-1.212-1.213-1.212-0.667 0-1.213 0.543-1.213 1.212 0 0.671 0.546 1.214 1.213 1.214 0.669 0 1.213-0.543 1.213-1.214" fill="#fff"/>
      <path d="m445.0399 93.7642c-0.889 0-1.613 0.723-1.613 1.612s0.724 1.615 1.613 1.615 1.614-0.726 1.614-1.615-0.725-1.612-1.614-1.612m0 2.424c-0.446 0-0.812-0.363-0.812-0.812 0-0.447 0.366-0.811 0.812-0.811 0.448 0 0.812 0.364 0.812 0.811 0 0.449-0.364 0.812-0.812 0.812" fill="#1b1615"/>
      <path d="m441.3145 117.0104c-0.885 3.114-4.132 4.921-7.249 4.034-3.115-0.888-4.923-4.134-4.033-7.248 0.614-2.154 2.356-3.683 4.4-4.13 0.273-0.06 5.448-8.56 5.448-8.56s-0.494 9.752-0.345 9.88c1.652 1.448 2.42 3.769 1.779 6.024" fill="#1b1615"/>
    </g>
    <path d="m452.9519 95.8268v-0.316h-0.712v-2.135h-0.419v2.135h-0.712v0.316h1.843zm2.901-2.451h-0.419v1.93h-0.012l-0.717-1.93h-0.342l-0.681 1.93h-0.012v-1.93h-0.419v2.451h0.664l0.646-1.821h0.011l0.629 1.821h0.652v-2.451z" fill="#1b1615"/>
  </g>
</svg>
