<?xml version="1.0" encoding="utf-8"?>
<!-- Generator: Adobe Illustrator 13.0.0, SVG Export Plug-In . SVG Version: 6.00 Build 14948)  -->
<!DOCTYPE svg PUBLIC "-//W3C//DTD SVG 1.1//EN" "http://www.w3.org/Graphics/SVG/1.1/DTD/svg11.dtd">
<svg version="1.1" id="Calque_3" xmlns="http://www.w3.org/2000/svg" xmlns:xlink="http://www.w3.org/1999/xlink" x="0px" y="0px"
	 width="16.115px" height="16.115px" viewBox="0 0 16.115 16.115" enable-background="new 0 0 16.115 16.115" xml:space="preserve">
<path fill="#FFFFFF" d="M15.975,1.57c0,0.868-0.703,1.571-1.57,1.571H1.57C0.703,3.141,0,2.438,0,1.57l0,0C0,0.703,0.703,0,1.57,0
	h12.834C15.271,0,15.975,0.703,15.975,1.57L15.975,1.57z"/>
<path fill="#FFFFFF" d="M15.975,14.153c0,0.868-0.703,1.571-1.57,1.571H1.57c-0.867,0-1.57-0.703-1.57-1.571l0,0
	c0-0.867,0.703-1.57,1.57-1.57h12.834C15.271,12.583,15.975,13.286,15.975,14.153L15.975,14.153z"/>
<path fill="#FFFFFF" d="M15.975,7.861c0,0.868-0.703,1.571-1.57,1.571H1.57C0.703,9.433,0,8.729,0,7.861l0,0
	c0-0.867,0.703-1.57,1.57-1.57h12.834C15.271,6.291,15.975,6.994,15.975,7.861L15.975,7.861z"/>
</svg>
