<?xml version="1.0" encoding="utf-8"?>
<!-- Generator: Adobe Illustrator 13.0.0, SVG Export Plug-In . SVG Version: 6.00 Build 14948)  -->
<!DOCTYPE svg PUBLIC "-//W3C//DTD SVG 1.1//EN" "http://www.w3.org/Graphics/SVG/1.1/DTD/svg11.dtd">
<svg version="1.1" xmlns="http://www.w3.org/2000/svg" xmlns:xlink="http://www.w3.org/1999/xlink" x="0px" y="0px"
	 width="16.115px" height="16.115px" viewBox="0 0 16.115 16.115" enable-background="new 0 0 16.115 16.115" xml:space="preserve">
<g id="Calque_2">
</g>
<g id="Calque_3">
	<path display="none" fill="#FFFFFF" d="M15.975,0.57c0,0.868-0.703,1.571-1.57,1.571H1.57C0.703,2.141,0,1.438,0,0.57l0,0
		C0-0.297,0.703-1,1.57-1h12.834C15.271-1,15.975-0.297,15.975,0.57L15.975,0.57z"/>
	<path display="none" fill="#FFFFFF" d="M15.975,10.153c0,0.868-0.703,1.571-1.57,1.571H1.57c-0.867,0-1.57-0.703-1.57-1.571l0,0
		c0-0.867,0.703-1.57,1.57-1.57h12.834C15.271,8.583,15.975,9.286,15.975,10.153L15.975,10.153z"/>
	<path display="none" fill="#FFFFFF" d="M15.975,5.362c0,0.868-0.703,1.571-1.57,1.571H1.57C0.703,6.933,0,6.23,0,5.362l0,0
		c0-0.867,0.703-1.57,1.57-1.57h12.834C15.271,3.792,15.975,4.495,15.975,5.362L15.975,5.362z"/>
	<rect x="1.001" y="0.7" fill="#FFFFFF" width="14.166" height="1.686"/>
	<rect x="1.001" y="3.866" fill="#FFFFFF" width="14.166" height="1.686"/>
	<rect x="1.001" y="7.033" fill="#FFFFFF" width="14.166" height="1.686"/>
	<polygon fill="#FFFFFF" points="10.809,10.745 8.084,15.467 5.359,10.745 	"/>
</g>
</svg>
