<?xml version="1.0" encoding="utf-8"?>
<!-- Generator: Adobe Illustrator 13.0.0, SVG Export Plug-In  -->
<!DOCTYPE svg PUBLIC "-//W3C//DTD SVG 1.1//EN" "http://www.w3.org/Graphics/SVG/1.1/DTD/svg11.dtd" [
	<!ENTITY ns_flows "http://ns.adobe.com/Flows/1.0/">
]>
<svg version="1.1"
	 xmlns="http://www.w3.org/2000/svg" xmlns:xlink="http://www.w3.org/1999/xlink" xmlns:a="http://ns.adobe.com/AdobeSVGViewerExtensions/3.0/"
	 x="0px" y="0px" width="50px" height="50px" viewBox="0 0 50 50" enable-background="new 0 0 50 50" xml:space="preserve">
<defs>
</defs>
<rect fill="#FFFFFF" width="50" height="50"/>
<g>
	<g>
		<path fill="#999999" d="M24.831,20.746c-1.269,0-2.41,0.512-3.243,1.343c-0.831,0.832-1.342,1.975-1.343,3.243
			c0,1.27,0.512,2.41,1.343,3.242c0.833,0.831,1.974,1.342,3.243,1.342s2.411-0.511,3.242-1.342
			c0.831-0.832,1.342-1.973,1.345-3.242c-0.003-1.268-0.514-2.411-1.345-3.243C27.242,21.258,26.1,20.746,24.831,20.746z
			 M31.25,18.418l-1.484-1.484h-9.607L18.5,18.593h-4.803v13.71h22.267V18.418H31.25z M24.831,31.488
			c-3.4-0.002-6.155-2.757-6.156-6.156c0-3.4,2.755-6.155,6.156-6.156c3.399,0,6.155,2.756,6.155,6.156
			C30.986,28.731,28.23,31.486,24.831,31.488z M33.344,22.304c-0.724,0-1.31-0.586-1.31-1.31c0-0.723,0.586-1.31,1.31-1.31
			c0.725,0,1.312,0.587,1.312,1.31C34.655,21.718,34.068,22.304,33.344,22.304z"/>
	</g>
</g>
<g>
	<path fill="#CCCCCC" d="M24.901,45.898h-0.017c-5.584,0-10.82-2.16-14.741-6.083c-3.925-3.925-6.085-9.169-6.083-14.764
		c-0.002-5.5,2.158-10.69,6.083-14.613c2.008-2.01,4.374-3.558,7.035-4.599c2.509-0.985,5.185-1.482,7.953-1.482
		c5.357,0,10.465,2.158,14.388,6.081c2.01,2.007,3.558,4.374,4.599,7.035c0.985,2.517,1.482,5.193,1.482,7.955
		c0,5.353-2.158,10.461-6.081,14.386C35.6,43.738,30.407,45.898,24.901,45.898L24.901,45.898z M11.626,14.72
		c-2.327,2.944-3.605,6.588-3.607,10.332c0.002,4.539,1.752,8.79,4.925,11.964c3.174,3.173,7.419,4.923,11.95,4.925
		c3.748,0,7.398-1.278,10.346-3.607L11.626,14.72L11.626,14.72z M14.427,11.922l23.611,23.613c2.33-2.928,3.605-6.493,3.605-10.107
		c0-2.274-0.408-4.465-1.21-6.51c-0.843-2.148-2.092-4.059-3.713-5.681c-3.174-3.175-7.288-4.923-11.588-4.923
		c-2.272,0-4.461,0.408-6.508,1.21C17.107,10.121,15.695,10.927,14.427,11.922L14.427,11.922z"/>
	<path fill="#FFFFFF" d="M25.135,4.922c5.091,0,10.135,2.065,13.985,5.917c2.016,2.015,3.499,4.354,4.474,6.842
		c0.974,2.489,1.443,5.124,1.443,7.748c0,5.091-2.065,10.135-5.917,13.987l-0.999-1l0.999,1c-3.922,3.924-9.074,5.919-14.224,5.919
		c-0.001,0-0.003,0-0.004,0h-0.007c-5.179,0-10.384-1.959-14.342-5.919c-3.966-3.966-5.92-9.178-5.918-14.364
		c-0.001-5.147,1.998-10.294,5.918-14.212c2.014-2.016,4.354-3.499,6.842-4.473c2.488-0.976,5.124-1.444,7.747-1.444
		C25.133,4.922,25.134,4.922,25.135,4.922 M38.08,36.376c2.71-3.171,4.128-7.061,4.128-10.949c0-2.287-0.408-4.573-1.248-6.716
		c-0.842-2.143-2.108-4.143-3.839-5.874C33.785,9.503,29.459,7.75,25.133,7.75h-0.001c-2.285,0-4.571,0.409-6.713,1.248
		c-1.726,0.677-3.358,1.631-4.833,2.882L38.08,36.376 M24.893,42.504c3.986,0,7.964-1.384,11.188-4.131L11.584,13.878
		c-2.744,3.22-4.129,7.192-4.131,11.172c0.002,4.483,1.679,8.952,5.09,12.364C15.953,40.822,20.414,42.502,24.893,42.504
		 M25.135,3.791h-0.002c-2.838,0-5.584,0.512-8.16,1.522c-2.732,1.07-5.165,2.66-7.229,4.726c-4.031,4.029-6.25,9.361-6.25,15.012
		c-0.001,5.747,2.218,11.132,6.25,15.164c4.028,4.03,9.406,6.25,15.142,6.25c5.293,0,10.295-1.934,14.214-5.47l0.021,0.021
		l0.793-0.794c0.003-0.002,0.005-0.005,0.007-0.007l0.001-0.001c0.002-0.002,0.004-0.004,0.006-0.006l0.793-0.793l-0.021-0.02
		c3.535-3.909,5.469-8.827,5.469-13.967c0-2.834-0.512-5.58-1.521-8.16c-1.07-2.732-2.661-5.164-4.728-7.23
		C35.893,6.009,30.642,3.791,25.135,3.791L25.135,3.791z M15.288,11.982c1.089-0.786,2.276-1.434,3.544-1.931
		c1.982-0.776,4.102-1.17,6.3-1.17c4.149,0,8.123,1.689,11.19,4.757c1.563,1.564,2.77,3.41,3.586,5.487
		c0.775,1.98,1.17,4.101,1.17,6.302c0,3.282-1.092,6.524-3.095,9.251L15.288,11.982L15.288,11.982z M24.893,41.374
		c-4.379-0.002-8.481-1.692-11.55-4.759c-3.066-3.067-4.756-7.174-4.758-11.564c0.001-3.402,1.094-6.722,3.099-9.473l22.698,22.696
		C31.628,40.28,28.303,41.374,24.893,41.374L24.893,41.374L24.893,41.374z"/>
</g>
</svg>
