<?xml version="1.0" encoding="utf-8"?>
<!-- Generator: Adobe Illustrator 13.0.0, SVG Export Plug-In  -->
<!DOCTYPE svg PUBLIC "-//W3C//DTD SVG 1.1//EN" "http://www.w3.org/Graphics/SVG/1.1/DTD/svg11.dtd" [
	<!ENTITY ns_flows "http://ns.adobe.com/Flows/1.0/">
]>
<svg version="1.1"
	 xmlns="http://www.w3.org/2000/svg" xmlns:xlink="http://www.w3.org/1999/xlink" xmlns:a="http://ns.adobe.com/AdobeSVGViewerExtensions/3.0/"
	 x="0px" y="0px" width="426px" height="519px" viewBox="0 3.624 426 519" enable-background="new 0 3.624 426 519"
	 xml:space="preserve">
<defs>
</defs>
<g>
	<defs>
		<rect id="SVGID_18_" width="426.086" height="536.125"/>
	</defs>
	<clipPath id="SVGID_19_">
		<use xlink:href="#SVGID_18_"  overflow="visible"/>
	</clipPath>
	<rect y="3.624" clip-path="url(#SVGID_19_)" fill="#F5A200" width="425.722" height="425.716"/>
</g>
<g>
	<defs>
		<rect id="SVGID_17_" width="426.086" height="536.125"/>
	</defs>
	<clipPath id="SVGID_20_">
		<use xlink:href="#SVGID_17_"  overflow="visible"/>
	</clipPath>
	<path clip-path="url(#SVGID_20_)" fill="#FFFFFF" d="M149.873,368.877H83.461V138.129H40.034V98.963
		c29.805,0.422,49.386-11.931,60.027-40.877h49.812V368.877z"/>
</g>
<g>
	<defs>
		<rect id="SVGID_16_" width="426.086" height="536.125"/>
	</defs>
	<clipPath id="SVGID_21_">
		<use xlink:href="#SVGID_16_"  overflow="visible"/>
	</clipPath>
	<path clip-path="url(#SVGID_21_)" fill="#FFFFFF" d="M376.351,305.866v63.021H213.719v-66.004
		C287.79,201.99,311.641,184.96,311.641,146.22c0-15.755-5.973-25.117-17.457-25.117c-15.75,0-19.164,12.338-19.164,26.396v18.296
		h-62.159v-20.429c0-48.11,23.411-87.276,81.323-87.276c55.344,0,85.569,34.905,85.569,90.685
		c0,66.411-56.196,109.838-94.515,157.091H376.351z"/>
</g>
<g>
	<defs>
		<rect id="SVGID_15_" width="426.086" height="536.125"/>
	</defs>
	<clipPath id="SVGID_22_">
		<use xlink:href="#SVGID_15_"  overflow="visible"/>
	</clipPath>
	<path clip-path="url(#SVGID_22_)" d="M0.01,523.002h425.712V3.624H0.01 M417.209,420.818H8.518V12.132h408.691V420.818z"/>
</g>
<g>
	<defs>
		<rect id="SVGID_14_" width="426.086" height="536.125"/>
	</defs>
	<clipPath id="SVGID_23_">
		<use xlink:href="#SVGID_14_"  overflow="visible"/>
	</clipPath>
	<path clip-path="url(#SVGID_23_)" d="M381.26,20.655v3.159h-6.729v21.33h-3.97v-21.33h-6.729v-3.159H381.26z M408.696,45.144
		h-3.959V25.855h-0.115l-6.778,19.288h-3.24l-6.44-19.288h-0.115v19.289h-3.969V20.655h6.288l6.106,18.219h0.114l5.936-18.219h6.174
		L408.696,45.144L408.696,45.144z"/>
</g>
<g>
	<defs>
		<rect id="SVGID_13_" width="426.086" height="536.125"/>
	</defs>
	<clipPath id="SVGID_24_">
		<use xlink:href="#SVGID_13_"  overflow="visible"/>
	</clipPath>
	<polygon clip-path="url(#SVGID_24_)" fill="#FFFFFF" points="27.039,491.079 34.268,491.079 40.901,458.792 41.05,458.792 
		47.981,491.079 54.764,491.079 64.12,451.553 57.64,451.553 51.523,483.87 51.365,483.87 44.808,451.553 37.518,451.553 
		30.802,483.87 30.653,483.87 24.312,451.553 17.822,451.553 	"/>
</g>
<g>
	<defs>
		<rect id="SVGID_12_" width="426.086" height="536.125"/>
	</defs>
	<clipPath id="SVGID_25_">
		<use xlink:href="#SVGID_12_"  overflow="visible"/>
	</clipPath>
	<polygon clip-path="url(#SVGID_25_)" fill="#FFFFFF" points="74.838,491.079 82.062,491.079 88.7,458.792 88.858,458.792 
		95.79,491.079 102.553,491.079 111.929,451.553 105.438,451.553 99.322,483.87 99.164,483.87 92.597,451.553 85.302,451.553 
		78.601,483.87 78.452,483.87 72.111,451.553 65.621,451.553 	"/>
</g>
<g>
	<defs>
		<rect id="SVGID_11_" width="426.086" height="536.125"/>
	</defs>
	<clipPath id="SVGID_26_">
		<use xlink:href="#SVGID_11_"  overflow="visible"/>
	</clipPath>
	<polygon clip-path="url(#SVGID_26_)" fill="#FFFFFF" points="122.632,491.079 129.855,491.079 136.494,458.792 136.643,458.792 
		143.579,491.079 150.356,491.079 159.718,451.553 153.242,451.553 147.116,483.87 146.968,483.87 140.401,451.553 133.105,451.553 
		126.39,483.87 126.246,483.87 119.905,451.553 113.405,451.553 	"/>
</g>
<g>
	<defs>
		<rect id="SVGID_10_" width="426.086" height="536.125"/>
	</defs>
	<clipPath id="SVGID_27_">
		<use xlink:href="#SVGID_10_"  overflow="visible"/>
	</clipPath>
	<rect x="163.212" y="483.276" clip-path="url(#SVGID_27_)" fill="#FFFFFF" width="6.773" height="7.803"/>
</g>
<g>
	<defs>
		<rect id="SVGID_9_" width="426.086" height="536.125"/>
	</defs>
	<clipPath id="SVGID_28_">
		<use xlink:href="#SVGID_9_"  overflow="visible"/>
	</clipPath>
	<path clip-path="url(#SVGID_28_)" fill="#FFFFFF" d="M185.328,471.331c0-9.012,1.107-15.492,7.972-15.492
		c5.752,0,7.223,6.061,7.223,14.744c0,10.182-1.471,16.221-7.223,16.221C186.661,486.803,185.328,478.991,185.328,471.331
		 M179.504,504.059h6.184v-17.467h0.158c1.404,3.385,4.721,5.521,8.259,5.521c10.248,0,12.908-12.539,12.908-21.531
		c0-11.715-3.538-20.055-12.908-20.055c-4.28,0-7.736,2.961-8.551,5.904h-0.148v-4.881h-5.901L179.504,504.059L179.504,504.059z"/>
</g>
<g>
	<defs>
		<rect id="SVGID_8_" width="426.086" height="536.125"/>
	</defs>
	<clipPath id="SVGID_29_">
		<use xlink:href="#SVGID_8_"  overflow="visible"/>
	</clipPath>
	<path clip-path="url(#SVGID_29_)" fill="#FFFFFF" d="M219.04,467.188v-1.477c0-2.34,0.733-10.314,7.224-10.314
		c5.465,0,6.863,5.225,6.863,9.652v2.139H219.04L219.04,467.188z M239.607,472.059v-2.502c0-8.484-1.111-19.029-13.195-19.029
		c-12.166,0-14.088,11.428-14.088,21.32c0,13.564,4.055,20.268,13.724,20.268c10.761,0,13.263-9.809,13.263-14.006h-6.184
		c0,2.941-0.824,9.145-6.715,9.145c-7.588,0-7.588-9.145-7.588-15.195H239.607L239.607,472.059z"/>
</g>
<g>
	<defs>
		<rect id="SVGID_7_" width="426.086" height="536.125"/>
	</defs>
	<clipPath id="SVGID_30_">
		<use xlink:href="#SVGID_7_"  overflow="visible"/>
	</clipPath>
	<path clip-path="url(#SVGID_30_)" fill="#FFFFFF" d="M258.628,455.838c6.644,0,7.966,7.812,7.966,15.492
		c0,8.092-1.322,14.447-8.043,14.447c-6.174,0-7.142-8.043-7.142-14.447C251.409,461.897,252.876,455.838,258.628,455.838
		 M272.413,451.553h-5.886v5.033h-0.154c-0.805-3.105-4.275-6.059-8.551-6.059c-10.027,0-12.895,10.104-12.895,20.803
		c0,5.234,0.729,19.748,12.232,19.748c3.9,0,7.583-1.994,8.925-5.301h0.153v5.166c0,2.723,0.287,8.84-7.688,8.84
		c-3.239,0-6.038-1.4-6.327-5.004h-6.192c1.017,9.873,10.546,9.873,12.962,9.873c7.966,0,13.421-4.275,13.421-16.076V451.553
		L272.413,451.553z"/>
</g>
<g>
	<defs>
		<rect id="SVGID_6_" width="426.086" height="536.125"/>
	</defs>
	<clipPath id="SVGID_31_">
		<use xlink:href="#SVGID_6_"  overflow="visible"/>
	</clipPath>
	<path clip-path="url(#SVGID_31_)" fill="#FFFFFF" d="M280.926,491.079h6.184v-39.518h-6.184V491.079z M280.926,445.524h6.184
		v-7.096h-6.184V445.524z"/>
</g>
<g>
	<defs>
		<rect id="SVGID_5_" width="426.086" height="536.125"/>
	</defs>
	<clipPath id="SVGID_32_">
		<use xlink:href="#SVGID_5_"  overflow="visible"/>
	</clipPath>
	<rect x="296.975" y="483.276" clip-path="url(#SVGID_32_)" fill="#FFFFFF" width="6.786" height="7.803"/>
</g>
<g>
	<defs>
		<rect id="SVGID_4_" width="426.086" height="536.125"/>
	</defs>
	<clipPath id="SVGID_33_">
		<use xlink:href="#SVGID_4_"  overflow="visible"/>
	</clipPath>
	<path clip-path="url(#SVGID_33_)" fill="#FFFFFF" d="M313.654,491.079h6.203v-39.518h-6.203V491.079z M313.654,445.524h6.203
		v-7.096h-6.203V445.524z"/>
</g>
<g>
	<defs>
		<rect id="SVGID_3_" width="426.086" height="536.125"/>
	</defs>
	<clipPath id="SVGID_34_">
		<use xlink:href="#SVGID_3_"  overflow="visible"/>
	</clipPath>
	<path clip-path="url(#SVGID_34_)" fill="#FFFFFF" d="M328.322,491.079h6.174v-27.273c0-5.752,4.515-7.967,7.842-7.967
		c5.589,0,5.811,4.947,5.811,7.967v27.273h6.191v-28.021c0-4.631,0-12.529-10.392-12.529c-3.825,0-7.957,2.07-9.577,5.693h-0.163
		v-4.668h-5.886V491.079L328.322,491.079z"/>
</g>
<g>
	<defs>
		<rect id="SVGID_2_" width="426.086" height="536.125"/>
	</defs>
	<clipPath id="SVGID_35_">
		<use xlink:href="#SVGID_2_"  overflow="visible"/>
	</clipPath>
	<path clip-path="url(#SVGID_35_)" fill="#FFFFFF" d="M364.311,491.079h6.213v-34.646h6.768v-4.879h-6.768v-4.631
		c0-2.73,1.322-3.758,3.979-3.758h2.866v-5.312h-4.496c-5.973,0-8.562,3.098-8.562,9.07v4.629h-5.742v4.881h5.742V491.079z"/>
</g>
<g>
	<defs>
		<rect id="SVGID_1_" width="426.086" height="536.125"/>
	</defs>
	<clipPath id="SVGID_36_">
		<use xlink:href="#SVGID_1_"  overflow="visible"/>
	</clipPath>
	<path clip-path="url(#SVGID_36_)" fill="#FFFFFF" d="M379.64,471.331c0,11.121,2.818,20.783,14.235,20.783
		c11.36,0,14.227-9.662,14.227-20.783c0-11.15-2.799-20.803-14.227-20.803C382.534,450.528,379.64,460.18,379.64,471.331
		 M393.722,487.264c-6.337,0-7.572-7.4-7.572-15.934c0-8.57,1.322-15.934,7.572-15.934c6.645,0,7.909,7.361,7.909,15.934
		C401.631,479.862,400.298,487.264,393.722,487.264"/>
</g>
</svg>
