<?xml version="1.0" encoding="utf-8"?>
<!-- Generator: Adobe Illustrator 13.0.0, SVG Export Plug-In  -->
<!DOCTYPE svg PUBLIC "-//W3C//DTD SVG 1.1//EN" "http://www.w3.org/Graphics/SVG/1.1/DTD/svg11.dtd" [
	<!ENTITY ns_flows "http://ns.adobe.com/Flows/1.0/">
]>
<svg version="1.1"
	 xmlns="http://www.w3.org/2000/svg" xmlns:xlink="http://www.w3.org/1999/xlink" xmlns:a="http://ns.adobe.com/AdobeSVGViewerExtensions/3.0/"
	 x="0px" y="0px" width="425px" height="519px" viewBox="0 3.624 425 519" enable-background="new 0 3.624 425 519"
	 xml:space="preserve">
<defs>
</defs>
<g>
	<defs>
		<rect id="SVGID_18_" width="426.082" height="536.121"/>
	</defs>
	<clipPath id="SVGID_19_">
		<use xlink:href="#SVGID_18_"  overflow="visible"/>
	</clipPath>
	<rect y="3.624" clip-path="url(#SVGID_19_)" fill="#E2011A" width="425.716" height="425.711"/>
</g>
<g>
	<defs>
		<rect id="SVGID_17_" width="426.082" height="536.121"/>
	</defs>
	<clipPath id="SVGID_20_">
		<use xlink:href="#SVGID_17_"  overflow="visible"/>
	</clipPath>
	<path clip-path="url(#SVGID_20_)" fill="#FFFFFF" d="M149.866,368.875H83.451V138.127H40.028V98.961
		c29.805,0.422,49.39-11.93,60.031-40.876h49.807V368.875z"/>
</g>
<g>
	<defs>
		<rect id="SVGID_16_" width="426.082" height="536.121"/>
	</defs>
	<clipPath id="SVGID_21_">
		<use xlink:href="#SVGID_16_"  overflow="visible"/>
	</clipPath>
	<path clip-path="url(#SVGID_21_)" fill="#FFFFFF" d="M211.162,280.324c0-30.658,6.812-52.362,31.923-71.525
		c-20.86-20.86-28.521-39.17-28.521-67.264c0-48.963,31.079-83.45,82.166-83.45s82.167,34.487,82.167,83.45
		c0,28.093-7.66,46.403-28.521,67.264c25.125,19.164,31.922,40.867,31.922,71.525c0,55.764-17.438,93.67-85.567,93.67
		C228.619,373.994,211.162,336.087,211.162,280.324 M296.731,236.897c-15.329,0-19.164,10.641-19.164,39.597
		c0,29.368,3.835,39.588,19.164,39.588c15.319,0,19.163-10.22,19.163-39.588C315.894,247.538,312.05,236.897,296.731,236.897
		 M296.731,114.286c-14.045,0-17.457,6.811-17.457,36.194c0,29.368,3.412,36.184,17.457,36.184c14.044,0,17.456-6.816,17.456-36.184
		C314.187,121.097,310.775,114.286,296.731,114.286"/>
</g>
<g>
	<defs>
		<rect id="SVGID_15_" width="426.082" height="536.121"/>
	</defs>
	<clipPath id="SVGID_22_">
		<use xlink:href="#SVGID_15_"  overflow="visible"/>
	</clipPath>
	<path clip-path="url(#SVGID_22_)" d="M0,522.996h425.716V3.624H0 M417.205,420.813H8.522V12.132h408.683V420.813L417.205,420.813z"
		/>
</g>
<g>
	<defs>
		<rect id="SVGID_14_" width="426.082" height="536.121"/>
	</defs>
	<clipPath id="SVGID_23_">
		<use xlink:href="#SVGID_14_"  overflow="visible"/>
	</clipPath>
	<path clip-path="url(#SVGID_23_)" d="M381.253,20.654v3.159h-6.738v21.33h-3.959v-21.33h-6.729v-3.159H381.253z M408.691,45.143
		h-3.959V25.855h-0.115l-6.787,19.288h-3.23l-6.449-19.288h-0.115v19.288h-3.961V20.654h6.289l6.105,18.219h0.115l5.936-18.219
		h6.174v24.489H408.691z"/>
</g>
<g>
	<defs>
		<rect id="SVGID_13_" width="426.082" height="536.121"/>
	</defs>
	<clipPath id="SVGID_24_">
		<use xlink:href="#SVGID_13_"  overflow="visible"/>
	</clipPath>
	<polygon clip-path="url(#SVGID_24_)" fill="#FFFFFF" points="27.039,491.074 34.262,491.074 40.901,458.787 41.049,458.787 
		47.976,491.074 54.763,491.074 64.114,451.548 57.639,451.548 51.522,483.865 51.364,483.865 44.807,451.548 37.512,451.548 
		30.796,483.865 30.653,483.865 24.312,451.548 17.821,451.548 	"/>
</g>
<g>
	<defs>
		<rect id="SVGID_12_" width="426.082" height="536.121"/>
	</defs>
	<clipPath id="SVGID_25_">
		<use xlink:href="#SVGID_12_"  overflow="visible"/>
	</clipPath>
	<polygon clip-path="url(#SVGID_25_)" fill="#FFFFFF" points="74.837,491.074 82.061,491.074 88.694,458.787 88.853,458.787 
		95.784,491.074 102.547,491.074 111.922,451.548 105.432,451.548 99.316,483.865 99.163,483.865 92.596,451.548 85.301,451.548 
		78.595,483.865 78.446,483.865 72.105,451.548 65.62,451.548 	"/>
</g>
<g>
	<defs>
		<rect id="SVGID_11_" width="426.082" height="536.121"/>
	</defs>
	<clipPath id="SVGID_26_">
		<use xlink:href="#SVGID_11_"  overflow="visible"/>
	</clipPath>
	<polygon clip-path="url(#SVGID_26_)" fill="#FFFFFF" points="122.625,491.074 129.854,491.074 136.488,458.787 136.636,458.787 
		143.577,491.074 150.35,491.074 159.716,451.548 153.235,451.548 147.109,483.865 146.961,483.865 140.394,451.548 
		133.104,451.548 126.388,483.865 126.24,483.865 119.898,451.548 113.398,451.548 	"/>
</g>
<g>
	<defs>
		<rect id="SVGID_10_" width="426.082" height="536.121"/>
	</defs>
	<clipPath id="SVGID_27_">
		<use xlink:href="#SVGID_10_"  overflow="visible"/>
	</clipPath>
	<rect x="163.21" y="483.271" clip-path="url(#SVGID_27_)" fill="#FFFFFF" width="6.773" height="7.803"/>
</g>
<g>
	<defs>
		<rect id="SVGID_9_" width="426.082" height="536.121"/>
	</defs>
	<clipPath id="SVGID_28_">
		<use xlink:href="#SVGID_9_"  overflow="visible"/>
	</clipPath>
	<path clip-path="url(#SVGID_28_)" fill="#FFFFFF" d="M185.321,471.326c0-9.012,1.112-15.492,7.971-15.492
		c5.752,0,7.228,6.059,7.228,14.744c0,10.18-1.476,16.221-7.228,16.221C186.659,486.798,185.321,478.984,185.321,471.326
		 M179.502,504.052h6.183v-17.465h0.158c1.404,3.383,4.721,5.521,8.254,5.521c10.248,0,12.908-12.539,12.908-21.531
		c0-11.715-3.542-20.055-12.908-20.055c-4.28,0-7.736,2.961-8.551,5.904h-0.144v-4.881h-5.9V504.052z"/>
</g>
<g>
	<defs>
		<rect id="SVGID_8_" width="426.082" height="536.121"/>
	</defs>
	<clipPath id="SVGID_29_">
		<use xlink:href="#SVGID_8_"  overflow="visible"/>
	</clipPath>
	<path clip-path="url(#SVGID_29_)" fill="#FFFFFF" d="M219.033,467.183v-1.477c0-2.338,0.737-10.314,7.229-10.314
		c5.455,0,6.863,5.227,6.863,9.654v2.137H219.033z M239.605,472.054v-2.502c0-8.484-1.111-19.029-13.201-19.029
		c-12.16,0-14.087,11.428-14.087,21.32c0,13.564,4.056,20.266,13.724,20.266c10.766,0,13.258-9.807,13.258-14.006h-6.174
		c0,2.943-0.824,9.146-6.721,9.146c-7.587,0-7.587-9.146-7.587-15.195H239.605L239.605,472.054z"/>
</g>
<g>
	<defs>
		<rect id="SVGID_7_" width="426.082" height="536.121"/>
	</defs>
	<clipPath id="SVGID_30_">
		<use xlink:href="#SVGID_7_"  overflow="visible"/>
	</clipPath>
	<path clip-path="url(#SVGID_30_)" fill="#FFFFFF" d="M258.625,455.833c6.635,0,7.957,7.812,7.957,15.492
		c0,8.09-1.322,14.445-8.033,14.445c-6.174,0-7.151-8.043-7.151-14.445C251.396,461.892,252.873,455.833,258.625,455.833
		 M272.41,451.548h-5.886v5.033h-0.163c-0.806-3.107-4.267-6.059-8.552-6.059c-10.019,0-12.894,10.104-12.894,20.803
		c0,5.232,0.729,19.748,12.231,19.748c3.911,0,7.593-1.994,8.935-5.303h0.153v5.168c0,2.723,0.288,8.838-7.688,8.838
		c-3.239,0-6.049-1.398-6.326-5.004h-6.191c1.016,9.875,10.534,9.875,12.95,9.875c7.968,0,13.431-4.275,13.431-16.076V451.548
		L272.41,451.548z"/>
</g>
<g>
	<defs>
		<rect id="SVGID_6_" width="426.082" height="536.121"/>
	</defs>
	<clipPath id="SVGID_31_">
		<use xlink:href="#SVGID_6_"  overflow="visible"/>
	</clipPath>
	<path clip-path="url(#SVGID_31_)" fill="#FFFFFF" d="M280.914,491.074h6.184v-39.518h-6.184V491.074z M280.914,445.519h6.184
		v-7.096h-6.184V445.519z"/>
</g>
<g>
	<defs>
		<rect id="SVGID_5_" width="426.082" height="536.121"/>
	</defs>
	<clipPath id="SVGID_32_">
		<use xlink:href="#SVGID_5_"  overflow="visible"/>
	</clipPath>
	<rect x="296.97" y="483.271" clip-path="url(#SVGID_32_)" fill="#FFFFFF" width="6.787" height="7.803"/>
</g>
<g>
	<defs>
		<rect id="SVGID_4_" width="426.082" height="536.121"/>
	</defs>
	<clipPath id="SVGID_33_">
		<use xlink:href="#SVGID_4_"  overflow="visible"/>
	</clipPath>
	<path clip-path="url(#SVGID_33_)" fill="#FFFFFF" d="M313.64,491.074h6.203v-39.518h-6.203V491.074z M313.64,445.519h6.203v-7.096
		h-6.203V445.519z"/>
</g>
<g>
	<defs>
		<rect id="SVGID_3_" width="426.082" height="536.121"/>
	</defs>
	<clipPath id="SVGID_34_">
		<use xlink:href="#SVGID_3_"  overflow="visible"/>
	</clipPath>
	<path clip-path="url(#SVGID_34_)" fill="#FFFFFF" d="M328.318,491.074h6.174V463.8c0-5.752,4.516-7.967,7.832-7.967
		c5.6,0,5.818,4.945,5.818,7.967v27.273h6.193v-28.021c0-4.631,0-12.529-10.4-12.529c-3.814,0-7.947,2.07-9.566,5.693h-0.164v-4.668
		h-5.887V491.074L328.318,491.074z"/>
</g>
<g>
	<defs>
		<rect id="SVGID_2_" width="426.082" height="536.121"/>
	</defs>
	<clipPath id="SVGID_35_">
		<use xlink:href="#SVGID_2_"  overflow="visible"/>
	</clipPath>
	<path clip-path="url(#SVGID_35_)" fill="#FFFFFF" d="M364.306,491.074h6.211v-34.646h6.77v-4.881h-6.77v-4.629
		c0-2.732,1.314-3.758,3.98-3.758h2.865v-5.312h-4.496c-5.982,0-8.561,3.098-8.561,9.068v4.631h-5.742v4.879h5.742V491.074z"/>
</g>
<g>
	<defs>
		<rect id="SVGID_1_" width="426.082" height="536.121"/>
	</defs>
	<clipPath id="SVGID_36_">
		<use xlink:href="#SVGID_1_"  overflow="visible"/>
	</clipPath>
	<path clip-path="url(#SVGID_36_)" fill="#FFFFFF" d="M379.634,471.326c0,11.119,2.818,20.783,14.236,20.783
		c11.359,0,14.227-9.664,14.227-20.783c0-11.15-2.801-20.803-14.227-20.803C382.531,450.523,379.634,460.175,379.634,471.326
		 M393.716,487.257c-6.336,0-7.572-7.4-7.572-15.932c0-8.57,1.322-15.934,7.572-15.934c6.645,0,7.91,7.361,7.91,15.934
		C401.626,479.857,400.285,487.257,393.716,487.257"/>
</g>
</svg>
